<svg xmlns="http://www.w3.org/2000/svg" viewBox="0 0 204 204"><defs><style>.cls-1{fill:#fff;}.cls-2{fill:none;stroke:#fff;stroke-miterlimit:10;stroke-width:4px;}</style></defs><title>2D_3D</title><g id="Layer_2" data-name="Layer 2"><g id="Layer_1-2" data-name="Layer 1"><g id="Solutions"><g id="_2D_3D" data-name="2D/3D"><path class="cls-1" d="M101.73,24.49q38.1,0,76.2,0c6.71,0,7.38.63,7.38,7.06q0,57.63,0,115.27c0,7.11-.49,7.59-7.39,7.59-50.8,0-101.6-.09-152.4.13-5.5,0-6.84-1.87-6.82-6.91q.19-58.18,0-116.37c0-5.11,1.41-7,6.85-6.9C50.93,24.65,76.33,24.49,101.73,24.49Zm.1,124.05c23.74,0,47.48-.13,71.22.11,4.81,0,6.17-1.27,6.14-6.13q-.31-53.21,0-106.42c0-4.6-1.36-5.85-5.88-5.84q-71.5.22-143,0c-4.43,0-6,1.11-5.92,5.82q.3,53.21,0,106.42c0,5,1.51,6.17,6.23,6.13C54.35,148.44,78.09,148.55,101.83,148.54Z"/><path class="cls-1" d="M118.46,173.57c-19.18,0-38.37,0-57.55-.05-3.43,0-6.23.42-8.72,3.27-3.1,3.53-8,3.82-10.72.7-3.68-4.29-7.9-3.78-12.33-4-2-.09-4,.07-6-.09s-3.88-.47-3.81-3,2.2-2.7,4-2.91a50.32,50.32,0,0,1,6-.15c4.33,0,8.24.18,11.83-3.78,2.92-3.22,8-3.2,11.18.53,2.53,3,5.29,3.32,8.69,3.31q57.83-.09,115.66,0c3,0,7.75-.57,7.8,2.9.07,4.44-4.88,3.22-7.9,3.24C157.2,173.63,137.83,173.57,118.46,173.57Z"/><path class="cls-1" d="M85.31,66.4c.61.34,1.23.68,1.84,1,10.27,6.11,20.58,12.16,30.78,18.37,4.89,3,4.87,4.39-.16,7.41-10.06,6-20.26,11.84-30.33,17.88-4.07,2.44-5.76-.24-5.84-3.22-.32-12.4-.17-24.82-.09-37.23C81.54,68.41,83.22,67.23,85.31,66.4Zm26.87,23.08C104.63,85,97.87,80.86,91,76.89c-2.38-1.38-3.3-.13-3.3,2.27q0,10.41,0,20.83c0,2.1.91,3.43,3,2.25C97.69,98.23,104.57,94,112.18,89.48Z"/></g></g><rect class="cls-2" x="2" y="2" width="200" height="200" rx="16.39" ry="16.39"/></g></g></svg>