<svg xmlns="http://www.w3.org/2000/svg" viewBox="0 0 204 204"><defs><style>.cls-1{fill:#fff;}.cls-2{fill:none;stroke:#fff;stroke-miterlimit:10;stroke-width:4px;}</style></defs><title>AI</title><g id="Layer_2" data-name="Layer 2"><g id="Layer_1-2" data-name="Layer 1"><g id="Solutions"><g id="AI"><path class="cls-1" d="M37.84,158.16c-4.39-14.32,3.45-26.4,16.43-37.12,5.52-4.56,9.8-9.22,17.87-8.32,4.6.51,7.62-2.79,7.57-8-.07-6.6.25-13.21-.1-19.8-.25-4.75,1.31-8,5.41-10.38,3.69-2.17,6.51-4.37,3.71-9.9C86.39,60,92.86,51.63,99,49.73c5.26-1.63,13,2.26,15.35,7.71,4.27,9.88-2.41,19.3-13.23,18.64S86.34,79.24,86.34,90q0,7.2,0,14.4c0,9.82-5.09,15.09-14.93,14.82-4.29-.12-7.57.7-10.32,4.29A41.17,41.17,0,0,1,52.65,132c-7.21,5.15-8.71,12-8.2,20.34.61,10,.16,20,.07,30,0,1.89.34,4.58-2.44,4.7s-4.24-1.88-4.24-4.72C37.84,175.3,37.84,168.3,37.84,158.16Zm64.18-89c4.48.55,6.58-2.25,6.7-5.82A6.77,6.77,0,0,0,102.41,56c-3.06-.38-7.53,4.25-7,7.41C95.95,67,97.8,69.68,102,69.11Z"/><path class="cls-1" d="M149.76,37.67c3.63,14-2.68,24.22-12.57,33.09-.3.27-.49.65-.81.88C124.77,80.34,120.85,92,123.13,106a34.24,34.24,0,0,1,0,6c-.08,4.87-.69,9.2,5.44,12.14,5.71,2.74,7.61,12.86,5.19,18.53-2,4.73-9.44,9.35-14.55,9.06a15.53,15.53,0,0,1-13.93-11.16c-2-7.38.09-14.06,7.14-17.76,3.89-2,4.38-4.39,4.11-7.87,0-.2,0-.4,0-.6.13-10.37-2.57-21.93,1.16-30.78,4.1-9.73,13.91-17.16,21.65-25.19a12.66,12.66,0,0,0,4-10c-.24-8-.16-16,0-24,0-3.2-1.15-8.15,3.48-8.2s2.67,4.89,2.86,7.7C150,28.46,149.76,33.08,149.76,37.67Zm-30.12,90.18c-5.07,0-8.75,3.55-8.7,8.35,0,3.77,5.29,9.15,8.89,9.13,4,0,8.32-4.84,8.28-9.3C128.07,130.46,125.36,127.84,119.64,127.85Z"/><path class="cls-1" d="M105.56,102.72c0,3.59-.34,7.23.08,10.77a12.36,12.36,0,0,1-5,12c-3.69,2.81-4.19,6.14-3.55,10.5,1.17,7.94-2.32,12.82-10,15.21-5.26,1.63-11.7-1.38-15-7.1a12.69,12.69,0,0,1,.84-14.49c3.24-4.52,8-6.33,13.6-5.75,2.11.22,4,3.42,6.39.43,2.61-3.33,6.56-5.61,6.28-10.94-.43-8.16-.1-16.36-.13-24.55,0-2.44-.22-5.44,3-5.56,3.6-.13,3.52,3,3.51,5.67C105.55,93.54,105.56,98.13,105.56,102.72Zm-15,34.82c.24-4.4-2.15-7.14-6.19-7.06s-6.94,2.51-7.12,7.12A6.74,6.74,0,0,0,84.11,145C87.78,145,91.19,142.4,90.56,137.54Z"/><path class="cls-1" d="M164.79,161.18c0,7.18,0,14.36,0,21.55,0,2.6-.32,5.24-3.42,5.26s-3.3-2.66-3.29-5.23c.06-13.57-.06-27.13.11-40.7,0-3.07-.75-5.28-3.11-7.25-4.29-3.56-8.45-7.28-12.56-11.05-3-2.79-6.2-4.8-10.62-4.22-1.84.24-4.38.38-4.34-2.65,0-2.71,1.92-3.63,4.39-3.9,5.2-.56,9.78.52,13.69,4.27,5.46,5.23,11,10.35,16.67,15.4a7.65,7.65,0,0,1,2.49,6.38C164.73,146.41,164.79,153.8,164.79,161.18Z"/><path class="cls-1" d="M49,40.39c0-8.06,0-13.65,0-19.24,0-2.65.91-5.1,3.82-5.13,3.1,0,2.86,2.86,2.87,5,.07,9.58.17,19.17,0,28.75a10.82,10.82,0,0,0,3.63,8.95c4.81,4.46,9.18,9.39,13.93,13.93,2,1.92,3.19,4.18,1.45,6.21-2.34,2.72-4.21-.06-5.86-1.58-2.2-2-4-4.46-6.39-6.28C51.54,62.51,45.39,52.21,49,40.39Z"/><path class="cls-1" d="M101.91,178.33c-8.84,1-13.32-6.7-13.33-12.84S93,152.19,102.37,152c6.88-.11,12.88,5.73,13.46,13.31C116.4,172.76,110,178.35,101.91,178.33Zm.2-6.41c4.82.4,6.6-3,6.6-6.64,0-3.42-2-6.46-6.26-6.54a6.45,6.45,0,0,0-7,6.6C95.38,168.89,97.32,172.34,102.11,171.92Z"/><path class="cls-1" d="M141,99.21c7-1.21,12.84.6,18.17,6,5.71,5.77,12.48,10.49,18.63,15.86,1.85,1.61,5.65,3.21,2.94,6.45-2.37,2.82-5.1.73-7.29-1.13-6.07-5.16-12.33-10.12-18.06-15.64-3.72-3.59-7.56-5.38-12.74-4.89a92.15,92.15,0,0,1-11.37,0c-2.3-.07-3.76-1.3-3.79-3.73s1.94-2.8,3.74-2.87C134.46,99.13,137.66,99.21,141,99.21Z"/><path class="cls-1" d="M60.73,105.84c-5.35-1.25-10.27,1.52-14.94,6.33-5.12,5.29-11.06,9.79-16.6,14.68-2,1.72-4.18,3.17-6.2.69-1.87-2.31.32-4.06,1.93-5.51,7.7-7,15.49-13.81,23.17-20.79a6.43,6.43,0,0,1,4.24-1.95c6.2-.11,12.4-.18,18.59-.07,1.71,0,3.93.21,4,2.65s-1.78,3.68-3.8,3.9C68.18,106.08,65.15,105.84,60.73,105.84Z"/><path class="cls-1" d="M141,91.39c-3.84,0-6.43.06-9,0-2.25-.06-4.7-.17-4.46-3.38.2-2.82,2.28-3.44,4.7-3.43,3,0,6-.37,9,.07,6,.9,10.29-1.79,14.43-5.47,5.64-5,11.45-9.82,17.08-14.84,2.13-1.9,4.66-3.46,6.68-1S179,67.42,177,69.07C169.8,75.26,162.53,81.43,155.6,88,150.85,92.41,145.23,91.12,141,91.39Z"/><path class="cls-1" d="M60.9,91.42c-6.72,1.65-12.7-1.83-18.3-7.41S30.92,73.8,25,68.74c-1.69-1.46-3.89-3.27-2.08-5.4s4.27-1.21,6.34.57C35.92,69.64,42.83,75,49.19,81c4.57,4.32,9.87,3.2,15.13,3.58,3.79.28,10.27-2.09,10.22,3.72,0,5.44-6.39,2.15-9.85,3A21.61,21.61,0,0,1,60.9,91.42Z"/></g></g><rect class="cls-2" x="2" y="2" width="200" height="200" rx="16.39" ry="16.39"/></g></g></svg>