<svg xmlns="http://www.w3.org/2000/svg" viewBox="0 0 204 204"><defs><style>.cls-1{fill:#fff;}.cls-2{fill:none;stroke:#fff;stroke-miterlimit:10;stroke-width:4px;}</style></defs><title>ANPR</title><g id="Layer_2" data-name="Layer 2"><g id="Layer_1-2" data-name="Layer 1"><g id="Products"><g id="ANPR"><path class="cls-1" d="M102.22,147.86q-20.65,0-41.3,0c-4,0-4.24.24-4.26,4.16,0,3.61-.11,7.22,0,10.82.08,2.43-.85,3.44-3.31,3.43q-16-.09-31.9,0c-2.22,0-3-.94-3-3.1.07-5,0-10.06,0-15.1,0-14.81.35-29.63-.11-44.43-.18-5.6,2-9.12,6-12.27.22-.18.46-.34.68-.51,3.57-2.82,3.51-2.74-.13-5.27-3.17-2.2-6.65-4.08-8.63-7.65C13,72,16.49,65.56,23.15,65.48c4.65-.05,9.3,0,14,0,5.46,0,5.32-.06,7.33-5,2.75-6.71,5.78-13.32,8.64-20a4.17,4.17,0,0,1,4.38-2.8q44.58.09,89.16,0c2.95,0,4.3,1.36,5.23,4.09,1.37,4,3.26,7.84,5,11.72,1.41,3.17,3.12,6.23,4.26,9.49.74,2.13,2,2.47,3.87,2.47,5.41,0,10.83.19,16.23-.07,3.52-.17,5.63,1.55,6.95,4.32a8.75,8.75,0,0,1-.31,8.17c-2.18,4.1-6.23,6-9.81,8.35-2.23,1.49-2.34,1.95-.36,3.59,2.47,2.06,4.78,4.32,7.22,6.43a3.26,3.26,0,0,1,.9,2.85q0,32,0,64.09c0,2.2-.79,3.09-3,3.08-10.63-.05-21.27,0-31.9,0-2.27,0-3.23-1-3.14-3.32.14-3.6.08-7.21.06-10.82,0-3.83-.23-4-4-4H102.22Zm-.27-5v.05h63.48c4.18,0,8.35,0,12.52.08,2.1.05,2.88-.86,2.87-2.88q0-19.5,0-39a4.36,4.36,0,0,0-1.74-3.66q-4.72-3.89-9.2-8.06a8.68,8.68,0,0,0-6.37-2.47q-61.21.1-122.42,0a9.83,9.83,0,0,0-7.16,2.75c-2.72,2.5-5.5,5-8.44,7.18a5.41,5.41,0,0,0-2.31,4.82c.06,12.43,0,24.86,0,37.3,0,3.64.24,3.88,3.88,3.88Zm.14-61.15q28.91,0,57.82,0c3.37,0,4-.93,2.61-3.9-3-6.44-6.15-12.79-8.77-19.36-1.05-2.65-2.48-3-4.84-3q-40.3.07-80.6,0c-4.56,0-9.11,0-13.67,0A3.54,3.54,0,0,0,50.77,58C48,64.6,45.11,71.14,42.06,77.62c-1.61,3.43-1.34,4.11,2.5,4.11ZM102,50.88h36.14c3.13,0,6.26,0,9.39,0,1.17,0,2.42,0,2-1.84-1-4.69-3.46-6.55-8.24-6.55-25.51,0-51,.14-76.54-.1-4.78,0-8.2.39-9.49,5.75-.58,2.41-.74,2.74,1.78,2.74Zm-64.78,97.2v0c-3.79,0-7.57.06-11.36,0-1.76,0-2.68.48-2.64,2.38.06,2.84,0,5.68,0,8.52,0,1.62.6,2.46,2.32,2.45,8,0,15.91,0,23.86,0,1.75,0,2.6-.8,2.55-2.61-.06-2.46-.12-4.93,0-7.38S51,148,48.55,148.05C44.77,148.16,41,148.08,37.19,148.08Zm129.76.18v-.06c-3.89,0-7.78,0-11.67,0-1.9,0-2.77.82-2.71,2.77.09,2.65.13,5.31.06,8-.05,1.88.8,2.51,2.56,2.5q11.67,0,23.34,0c1.76,0,2.34-.78,2.32-2.41,0-2.66-.06-5.31,0-8,.07-2-.67-2.91-2.82-2.84C174.35,148.36,170.65,148.26,166.95,148.26ZM30.53,70.18v0H24.27c-1.56,0-3.22,0-3.87,1.73a4.17,4.17,0,0,0,.91,4.71A30,30,0,0,0,30.26,83c1.8.85,3.83,1,4.84-1.72,1.08-2.89,2.54-5.64,3.84-8.44.77-1.65.28-2.59-1.57-2.62C35.09,70.15,32.81,70.18,30.53,70.18Zm143.27,0v0h-6.52c-2,0-2.91.59-1.83,2.74a66.74,66.74,0,0,1,3.69,8.2c.93,2.73,2.82,2.73,4.7,1.87a25,25,0,0,0,9.38-7.1,3.2,3.2,0,0,0,.53-3.67,3.29,3.29,0,0,0-3.15-2C178.34,70.15,176.07,70.16,173.81,70.16Z"/><path class="cls-1" d="M102.07,136c-5,0-10.06,0-15.09,0-3.33,0-4.4-1.17-4.45-4.49-.11-8.54,0-8.64,8.41-8.64h25.62c4,0,4.92.95,5,4.8.18,8.38.18,8.38-8.12,8.37H102.07Z"/><path class="cls-1" d="M148.42,120.54c-3.89,0-7.78,0-11.67,0-2,0-2.82-.8-2.89-2.87-.15-4.5.36-8.63,3.91-12a9.45,9.45,0,0,1,4.8-2.23c3.15-.58,6.06-2,9.26-2.31,2.9-.29,5.46-1.88,8.46-2.08,3.23-.21,6.38,0,8.16,2.79,1.91,3,3,6.23,1.8,10.2-1.74,5.94-7.23,9-13,8.47-2.92-.25-5.88,0-8.82,0Zm2.06-4.63v0c2.65,0,5.3,0,8,0,4.9,0,7.74-3.13,7.36-7.95-.22-2.82-2.21-4.19-5.07-3.9s-5.27,1.41-8,1.77c-3.09.41-5.94,1.69-9,2.32a6.84,6.84,0,0,0-4.79,3.73c-1.09,2.31-.15,3.94,2.4,4C144.42,116,147.45,115.91,150.48,115.91Z"/><path class="cls-1" d="M52.34,120.53h-10c-7,0-11.68-4.21-12.32-11.07C29.46,103,34.52,98.17,40.9,99.21a87.88,87.88,0,0,1,13,3.34c2.19.71,4.55.76,6.77,1.76,3.72,1.68,6.2,4.74,6.25,8.93.1,8.56.7,7.17-6.91,7.28C57.46,120.56,54.9,120.53,52.34,120.53Zm-1.57-4.61c2.94,0,5.87,0,8.81,0,1.1,0,2.12-.1,2.54-1.33a3.1,3.1,0,0,0-.32-3.24c-1.67-1.85-3.53-3.52-6.18-3.69a21.58,21.58,0,0,1-4.35-1.08c-4-1.09-8.05-1.94-12.12-2.68a2.78,2.78,0,0,0-3.08,2c-1.9,4.62.16,9.93,6.46,10C45.27,115.94,48,115.92,50.77,115.92Z"/></g></g><g id="Solutions"><g id="ProjMapping"><path class="cls-1" d="M182.21,48c0-6.83-.25-13.66.08-20.47.23-4.74-1.47-6.44-6.2-6.33-10.25.23-20.5.07-30.75.06-10.93,0-10.93,0-9,10.52,0,.2,0,.4,0,.6,1.25,10.11,2.52,20.21,3.71,30.32.22,1.87.22,3.82,2.75,3.81,5.66,0,11.11,1.69,16.57,2.59,6,1,12.29,1,18.05,3.27,3.57,1.38,4.83.33,4.79-3.3C182.17,62,182.22,55,182.21,48Z"/></g></g><rect class="cls-2" x="2" y="2" width="200" height="200" rx="16.39" ry="16.39"/></g></g></svg>