<svg xmlns="http://www.w3.org/2000/svg" viewBox="0 0 204 204"><defs><style>.cls-1{fill:#fff;}.cls-2{fill:none;stroke:#fff;stroke-miterlimit:10;stroke-width:4px;}</style></defs><title>AssetTracking</title><g id="Layer_2" data-name="Layer 2"><g id="Layer_1-2" data-name="Layer 1"><g id="Products"><g id="AssetTracking"><path class="cls-1" d="M17.71,112.82q0-28.12,0-56.24a5.46,5.46,0,0,1,1.76-4.13c6.93-6.69,13.88-13.35,20.77-20.08a7.51,7.51,0,0,1,5.59-2.32q32.49.05,65,0a6,6,0,0,1,4.54,2q10.37,10.43,20.93,20.68a5.19,5.19,0,0,1,1.81,4c-.08,4.91,0,9.83,0,14.74a8.13,8.13,0,0,1-.29,2.15,2.43,2.43,0,0,1-2.83,2c-1.47-.18-1.91-1.27-1.92-2.55,0-3.64-.09-7.28,0-10.92.06-2.49-1.1-3.4-3.48-3.39-9,.05-18,0-27,.05-3.49,0-3.89.41-3.93,4-.05,5-.08,10,0,15,0,2.55-1,3.55-3.62,3.53-10.92-.08-21.84,0-32.76,0-3.14,0-3.68-.54-3.71-3.63,0-5.28-.1-10.56,0-15.83,0-2.25-.87-3.06-3.08-3q-14.33.09-28.67,0c-2.43,0-3.46.93-3.44,3.39,0,10.1,0,20.2,0,30.31q0,36,0,72.08c0,3,.63,3.76,3.65,3.77,9.65,0,19.29,0,28.94,0,2.1,0,2.61-1.19,2.61-3,0-5.46,0-10.92.06-16.38.05-3.65.46-4,4.18-4q15.84,0,31.67,0c3.79,0,4.17.39,4.19,4.28,0,5,0,10,0,15,0,3.63.28,4,3.8,4,9.19.07,18.38,0,27.57.06,2,0,3.05-.83,3-2.93,0-3.37,0-6.73.07-10.1,0-1.45.23-2.84,2.12-2.88a2.56,2.56,0,0,1,2.79,2.74c.11,5.18.2,10.37,0,15.55a3.4,3.4,0,0,1-3.49,3.19c-.82.05-1.64,0-2.46,0H23.56c-4.9,0-5.74-.89-5.73-5.68q0-27.71,0-55.42Zm60.59,37.4h0c-3.9,0-7.81.07-11.71,0-2-.05-2.8.66-2.76,2.66q.12,6.4,0,12.8c0,1.85.71,2.66,2.55,2.66q12,0,24,0c2.05,0,2.92-.92,2.87-3-.08-4-.08-8,0-12,.08-2.41-1-3.23-3.26-3.18C86.11,150.28,82.21,150.22,78.3,150.22Zm0-74.23h0c4,0,8,0,12,0,2,0,3-.74,3-2.89-.1-3.72-.11-7.45,0-11.18.05-2.29-1.07-3.07-3.16-3.06q-11.72,0-23.45,0c-1.92,0-2.84.72-2.79,2.74.08,3.91.1,7.82,0,11.72,0,2,.75,2.74,2.74,2.7C70.49,75.93,74.4,76,78.31,76Zm.28-23.68v0c3.91,0,7.82,0,11.73,0,2.52,0,3.28-.89,2.33-3.19a23.69,23.69,0,0,1-1.56-9.32c0-3-1.48-4.26-4.44-4.25-5.36,0-10.73.08-16.09,0-2,0-3,.69-3.83,2.63-1.73,3.94-.66,8.31-2.36,12.25-.71,1.63,1,1.79,2.23,1.8C70.58,52.34,74.59,52.31,78.59,52.31Zm-34.92,0H53.2c5.43,0,6.29-.75,7.06-6.23a29,29,0,0,0,.19-3.8,9.1,9.1,0,0,1,.78-4.24c1-1.91-.08-2.49-1.77-2.49-4.17,0-8.35,0-12.53.06A4.77,4.77,0,0,0,43.5,37c-4.4,4.19-8.44,8.75-13.14,12.64-.62.51-1.32,1.15-.89,2.07s1.24.64,1.94.65C35.5,52.35,39.58,52.34,43.67,52.34Zm69.21,0v0c3.82,0,7.63,0,11.45,0,.86,0,2,.31,2.39-.75.27-.8-.57-1.49-1.14-2-4.3-4.17-8.63-8.31-12.93-12.46a4.77,4.77,0,0,0-3.41-1.46c-3.45,0-6.91-.05-10.36-.08-1.93,0-2.69.82-2.64,2.85a40.07,40.07,0,0,0,1.83,11.4c.6,1.85,1.24,2.58,3.08,2.55C105.06,52.3,109,52.33,112.87,52.33Z"/><path class="cls-1" d="M164.69,113.22c-.45,7.24-2.12,13.63-6.08,19.3-1.36,2-.9,3,1.52,3.16a6.3,6.3,0,0,1,4.26,2.09c6.79,6.82,13.59,13.63,20.47,20.36,1.81,1.78,2,3.21.08,5-6.27,5.85-4.68,6.52-10.85.15-5.68-5.87-11.47-11.64-17.25-17.43a6.89,6.89,0,0,1-2.38-4.68c-.13-2.21-1.34-2.73-3.11-1.43-8.68,6.37-18.48,7.14-28.44,4.88a28.78,28.78,0,0,1-14.66-8.84c-3.35-3.61-6.15-7.54-7.21-12.22S98.73,114,99.8,108.83,102,98.77,105.14,94.5a32.06,32.06,0,0,1,14.15-11.44,35.79,35.79,0,0,1,21.9-1.25c8.2,1.93,14.64,7.11,19,14.74C163.23,101.93,164.15,107.7,164.69,113.22ZM132,135.71a21.94,21.94,0,0,0,22.52-22.22c-.13-13.74-9.3-22.81-22.22-22.68C117.5,91,110,100,109.72,113.15,109.46,125.55,117.37,135.05,132,135.71Z"/></g></g><rect class="cls-2" x="2" y="2" width="200" height="200" rx="16.39" ry="16.39"/></g></g></svg>