<svg xmlns="http://www.w3.org/2000/svg" viewBox="0 0 204 204"><defs><style>.cls-1{fill:#fff;}.cls-2{fill:none;stroke:#fff;stroke-miterlimit:10;stroke-width:4px;}</style></defs><title>Beacon</title><g id="Layer_2" data-name="Layer 2"><g id="Layer_1-2" data-name="Layer 1"><g id="Solutions"><g id="Beacon"><path class="cls-1" d="M102.23,185.06c-15.94-.32-31.93-.94-47.57-3.84-9.93-1.84-20-4.22-29-9.58-4.83-2.87-8.8-6.09-8.77-11.76,0-6,4.61-9.5,9.44-12.08,8.46-4.51,17.62-6.73,27-8.65,7.92-1.63,16-1.63,23.86-3.59a28.82,28.82,0,0,1,5.76-.38c2.22-.09,3.91,1,4.23,3.12.39,2.62-1.75,3.16-3.77,3.25a211.37,211.37,0,0,0-31.88,4.27c-8.19,1.63-16.32,4-23.59,8.31-6.15,3.66-6.12,7.07-.17,11.08,6.91,4.66,14.82,6.39,22.83,8.25,18.09,4.19,36.45,5.57,54.85,5.4,17.62-.16,35.27-1.8,52.45-5.94,6.88-1.66,14-3.55,19.76-8.4,4.33-3.68,4.36-7.19-.54-10a77.4,77.4,0,0,0-25.21-8.79c-10.75-2-21.53-3.75-32.49-4.16-2-.07-3.49-1.15-3.41-3.15.09-2.23,1.67-3.33,4-3.2,2.5.14,5,.09,7.49.46,15.62,2.38,31.51,3.48,46.28,9.92a30.87,30.87,0,0,1,10,6.46c5,5.05,4.55,12.46-1,17-6.85,5.57-15.17,8.08-23.43,10.1C140.53,183.68,121.38,184.56,102.23,185.06Z"/><path class="cls-1" d="M101.61,158.54c-13,0-13.08,0-11-12.85,1.86-11.21,2-22.62,2.64-33.87.92-15.31,3.85-30.51,3.05-45.94a16.71,16.71,0,0,1,.77-4.53c.61-2.58,1.57-4.91,4.89-4.5s4.73,2.3,4.58,5.52c-.27,5.63,1,11.1,1.52,16.65,1.07,12.44,1.23,25,2.86,37.34,1.45,11.07,1.1,22.26,3,33.23,1.35,7.86.73,8.89-7.14,8.93Z"/><path class="cls-1" d="M56.22,19c1.57.1,2.75.21,3.39,1.39s0,2.17-.77,3.1a58.71,58.71,0,0,0-12.32,23.6,61.58,61.58,0,0,0-.22,28,53.27,53.27,0,0,0,14.59,26.12c1.68,1.68,1.93,3.15.25,4.94-2,2.14-3.39.71-4.79-.7-12.58-12.65-17.88-28-17.56-45.74A61.28,61.28,0,0,1,49.54,25.24C51.35,22.58,53.07,19.71,56.22,19Z"/><path class="cls-1" d="M165.15,60.91c-1,15.83-5.25,29.84-15.49,41.61-1.82,2.09-4,4.73-6.59,2.34-2.2-2-.34-4.55,1.47-6.5,9.43-10.16,13.8-22.56,14.1-36.08a54.52,54.52,0,0,0-12-35.7c-1.7-2.15-4.19-4.7-1.44-6.88s4.61.76,6.4,2.92C161,33.9,164,47.34,165.15,60.91Z"/><path class="cls-1" d="M144.55,61.12c.56,11.74-3.44,21.16-10.73,29.32-1.36,1.53-3,3.79-5.2,1.66-2-1.93-1-3.9.67-6,11.54-14.23,12.21-31.19,2-46a8,8,0,0,1-.7-.91c-1-2.09-3.59-4.28-.61-6.46,3.41-2.5,4.84,1,6.18,2.94C141.5,43.49,145.46,51.86,144.55,61.12Z"/><path class="cls-1" d="M57.88,62.12c.85-10.48,3.81-19.76,10.23-27.81,1.45-1.82,2.93-3.36,5.2-1.58,2.11,1.65,1.68,3.6.05,5.49A38.14,38.14,0,0,0,66.22,51.7C61.92,65,66.15,76,74,86.41c1.28,1.69,4.18,3.21,1.56,5.68s-4.56.32-6.29-1.55C61.76,82.43,59.06,72.44,57.88,62.12Z"/><path class="cls-1" d="M77.36,62.08c1.79-5.08,1.53-10.82,6-14.75,1.48-1.31,2.74-2.83,4.87-1,1.95,1.66,1.48,3,0,4.87C82.79,58.33,83.14,65.79,88,73c1.58,2.35,2.89,4.69.43,6.52-2.63,1.94-3.88-1.2-5.42-2.71C78.86,72.76,79.15,67,77.36,62.08Z"/><path class="cls-1" d="M125.49,60.89A24.69,24.69,0,0,1,119.17,78c-1.21,1.4-2.58,2.33-4.43.77s-2-3-.38-4.9c6.13-7.22,6.57-14.65.83-22.39-1.36-1.84-1.64-4.13.64-5.59s3.7.48,4.72,2C123.46,52.22,125.7,56.86,125.49,60.89Z"/></g></g><rect class="cls-2" x="2" y="2" width="200" height="200" rx="16.39" ry="16.39"/></g></g></svg>