<svg xmlns="http://www.w3.org/2000/svg" viewBox="0 0 204 204"><defs><style>.cls-1{fill:#fff;}.cls-2{fill:none;stroke:#fff;stroke-miterlimit:10;stroke-width:4px;}</style></defs><title>ChatBot</title><g id="Layer_2" data-name="Layer 2"><g id="Layer_1-2" data-name="Layer 1"><g id="Solutions"><g id="ChatBot"><path class="cls-1" d="M72,176.44c-12.22,0-24.45,0-36.67,0-10.53,0-15.51-5.05-15.57-15.63,0-5.67.16-11.34,0-17-.2-6.18,1-12.27-3.59-18.15-2.19-2.79-.59-8.54-.76-12.94s-.43-8.58,5-10.36c1.2-.4,1-2.13,1.06-3.36,0-2.48,0-5,0-7.44C21.64,81.32,27.7,75.18,37.95,75c9-.12,18.07-.16,27.1,0,3.75.08,5-1.27,4.86-4.95-.24-4.59-.22-9.22,0-13.81a8.38,8.38,0,0,0-3.35-7.74C62.12,45,62,38,65.83,34s11.49-3.91,14.79-.26c3.92,4.34,3.77,11.72-1,15.05-3.26,2.29-4.11,4.78-3.85,8.42a77.51,77.51,0,0,1,0,11.68c-.36,4.54,1.06,6.46,5.91,6.15,5.82-.38,11.69-.16,17.53,0,2.2,0,5.31-.24,5.25,2.94-.06,3-3,3-5.31,3q-29.76,0-59.52,0c-9.43,0-12.5,3-12.53,12.26,0,3-.12,6,0,9,.14,2.74-.14,4.93-3.52,5.31-1.08.12-2.32,1-2.22,2,.58,5.63-3.18,12,2.89,16.74,1.75,1.36,1.54,3.44,1.53,5.4,0,9.74,0,19.49,0,29.23,0,7.34,2.21,9.57,9.41,9.58q36.67.06,73.34,0c7.17,0,9.38-2.35,9.38-9.57,0-10.1.09-20.2,0-30.29-.05-3.85.38-6.64,5.33-6.31,3.47.23,2.15-2.81,2.61-4.66.56-2.26-1.78-6.3,2.12-6.44,3.73-.13,3.29,3.77,3.34,6.59.09,4.8-.09,9.28-6.18,10.62-2,.45-1.26,2.68-1.27,4.15-.07,9.21,0,18.43,0,27.64,0,8.76-5.23,14.07-14.12,14.14C97.17,176.51,84.6,176.44,72,176.44Zm5.3-135.59c-.24-3.08-2.2-3.75-4.77-3.72-2.84,0-3.58,1.88-3.45,4.21s1.15,3.93,4,3.72S77.23,43.53,77.32,40.85Z"/><path class="cls-1" d="M149.09,27.62c11.16,0,22.32.16,33.48-.08,4.54-.09,6.45,1.49,6.42,6.08q-.16,25.25,0,50.49c0,4-1.4,5.66-5.65,5.57-11.51-.24-23,0-34.54-.14a9.47,9.47,0,0,0-7.49,2.85c-4.78,4.72-9.89,9.1-14.91,13.57-1.28,1.14-2.53,2.56-4.63,1.46s-1.88-2.79-1.85-4.57c0-1.59,0-3.19,0-4.78,0-7.35,0-7.43-7.29-8.45-2.94-.41-3.89-2.3-3.9-4.77q-.08-26,0-52.09c0-3.58,2-5.26,5.79-5.2C126.06,27.73,137.58,27.62,149.09,27.62Zm.06,5.73c-9.91,0-19.82.13-29.72-.07-3.74-.07-4.9,1.27-4.85,4.93.17,13.44.23,26.89,0,40.34-.08,4.2,1.16,6,5.36,5.42,4.71-.6,6.49,1.66,6,6.19-.15,1.4,0,2.83,0,4.24,0,2.6.8,3.41,3,1.46,2.65-2.34,5.63-4.4,7.9-7.06,3.44-4,7.52-5.11,12.64-4.93,9.72.33,19.46,0,29.18.14,3.61.06,5-1.07,4.9-4.86q-.29-20.7,0-41.4c0-3.61-1.31-4.52-4.65-4.46C169,33.45,159.06,33.34,149.15,33.35Z"/><path class="cls-1" d="M104.61,111.56c1.05,6.59-6.71,13.63-13.32,13-7.37-.66-12.39-5.43-12.46-13.26-.06-7.22,5.77-13.73,12.68-13.3C98.76,98.49,105.52,104,104.61,111.56Zm-12.92,7c4.32,0,7-3,6.94-7.5a6.87,6.87,0,0,0-7-7,7.54,7.54,0,0,0-7.12,7.21C84.37,115.67,87.23,118.56,91.69,118.54Z"/><path class="cls-1" d="M54.3,124.44c-6.93,0-13.22-6.17-13.39-13s6.88-14,13.72-13.44c8.22.73,13.29,7.06,13.09,13.29C67.47,118.91,62,124.49,54.3,124.44Zm7.65-13.19a7.53,7.53,0,0,0-7.69-7.05c-3.57.16-7.32,3.85-7.29,7.18a7.41,7.41,0,0,0,7.56,7.16C58.49,118.51,62,115,61.95,111.25Z"/><path class="cls-1" d="M73.13,154c-7.3.1-13.65-5.87-13.14-12.29.14-1.71.43-3.3,2.46-3.5s2.93,1,3.17,2.82c.56,4.27,2.79,6.6,7.24,6.92,4.82.35,6.34-3,7.87-6.47.72-1.63.67-4.49,3.61-3.06,2.33,1.13,2.83,2.95,1.63,5.72C83,150.94,79.5,153.93,73.13,154Z"/></g></g><rect class="cls-2" x="2" y="2" width="200" height="200" rx="16.39" ry="16.39"/></g></g></svg>