<svg xmlns="http://www.w3.org/2000/svg" viewBox="0 0 204 204"><defs><style>.cls-1{fill:#fff;}.cls-2{fill:none;stroke:#fff;stroke-miterlimit:10;stroke-width:4px;}</style></defs><title>ConnectedShopping</title><g id="Layer_2" data-name="Layer 2"><g id="Layer_1-2" data-name="Layer 1"><g id="Products"><g id="ConnetedShopping"><path class="cls-1" d="M88.56,49.44H156c1,0,2,0,3,0,1.24,0,2.47.18,2.62,1.76a2.7,2.7,0,0,1-2.13,3,12.71,12.71,0,0,1-3.27.16H25.45l-2.28,0c-1.77,0-2.24.59-1.76,2.54,1.33,5.36,3,10.61,4.41,16,1.28,4.92,2.62,9.86,4.13,14.73.94,3,2.35,6,2.5,9.36.09,2.13,1.14,4.19,1.74,6.25,1.43,4.89,2.4,9.94,4.42,14.66a6.77,6.77,0,0,1,.44,1.71c.73,5.11,1.16,5.51,6.17,5.51h84.4c5.17,0,6.44-1.1,7.08-6.36A165.81,165.81,0,0,1,141.49,96c.65-2.42,0-3.44-2.44-3.44-10.64,0-21.29,0-31.93,0-1.69,0-2.16.91-2.26,2.38-.3,4.63-2.82,7.74-6.8,9.86-4.35,2.31-9,3.23-13.89,3.86a55.71,55.71,0,0,1-15.79-.09c-7.33-1.11-16-8.9-15.93-17.23,0-7.53,2.44-13.1,8.68-17,2.4-1.51,4.89-2.95,7.9-3,2.29,0,4.33-1.36,6.7-1.15,6.36.57,12.78,1.08,18.81,3.18,4.2,1.46,8,3.89,9.81,8.48a6.79,6.79,0,0,1,.49,2.71c-.07,2.29,1,3,3.27,3,11.32-.09,22.64-.06,34-.05a16.09,16.09,0,0,1,3,.23,2.19,2.19,0,0,1,2,2.49c-.43,2.56-.05,5.25-1.26,7.7-1.29,2.61-1,5.59-1.65,8.37-.87,3.62-2,7.27-2.34,11-.29,3.56-1.85,6.79-2.38,10.3-.33,2.17-2.41,2.66-4.58,2.65-11.66-.07-23.32,0-35-.05H41.62c-4.57,0-4.94-.36-6.24-4.74-1.19-4-2-8.14-3.28-12.07-1.57-4.84-2.77-9.79-4.32-14.63-.92-2.88-1.6-6-2.38-8.94S24.32,84,23,81.25c-1.13-2.42-1.51-5.14-2.32-7.7C18.89,67.77,17.77,61.78,15.84,56c-1.82-5.45-.9-6.59,4.79-6.59H88.56Zm5.07,38.12c1.48,0,2.58,0,3.67,0,1.66,0,2.56-.94,2.4-2.57a6.46,6.46,0,0,0-3.13-5.19,22,22,0,0,0-9-3c-5.79-.44-11.43-2-17.53-.58-6.27,1.47-13.55,6.22-12.75,15.09a12,12,0,0,0,6.3,10A26.63,26.63,0,0,0,81.66,104a90.22,90.22,0,0,0,11.27-2.38c2.6-.82,5.21-1.88,6.42-4.78,1.13-2.71.17-4.44-2.68-4.31a73.65,73.65,0,0,0-9.6.53,22.43,22.43,0,0,1-6.3,0,3.53,3.53,0,0,1-3.44-2.88c-.28-1.78,1.37-2.41,2.43-3.24.57-.44,1.61-.28,2.44-.4C86.22,86,90,87.88,93.63,87.56Z"/><path class="cls-1" d="M90.33,137.25h48.15c3.55,0,4.71-1.28,5.2-4.77a73.18,73.18,0,0,1,2-8.78c1-3.62,2.18-7.17,3.06-10.83.62-2.56,1.48-5.09,2.15-7.67.91-3.47,1.59-7,2.76-10.4,1.08-3.07,1.24-6.38,2.88-9.32,1.12-2,1-4.52,1.68-6.78.79-2.79,1.4-5.73,2.23-8.5,1-3.17,1.12-6.57,2.79-9.57,1.13-2,1.21-4.52,1.81-6.75a63,63,0,0,0,2.11-8.25c.32-2.55,1.51-4.93,1.93-7.52.29-1.8,2-2.44,3.72-2.47,4.48-.08,9-.07,13.43,0,1.49,0,2.73.55,2.71,2.32a2.45,2.45,0,0,1-2.66,2.72c-2.7,0-5.41,0-8.11,0-4.07,0-5.12,1-6,5.08a73.39,73.39,0,0,1-3.22,11.27,44.74,44.74,0,0,0-1.65,6.78,149.34,149.34,0,0,1-4,15c-1.56,4.93-2.66,10-4.12,14.92a87.36,87.36,0,0,0-2.4,9c-.53,2.92-1.66,5.77-2.44,8.68-.87,3.23-1.54,6.53-2.61,9.67s-1.44,6.64-2.73,9.87a38.92,38.92,0,0,0-2.3,8.2c-.36,2.25-1.49,3-3.5,3.15-.76,0-1.52,0-2.28,0q-49.8,0-99.59,0c-1.67,0-3.82.18-3.76-2.24s2-2.88,4-2.88H90.33Z"/><path class="cls-1" d="M69.38,158.22c.75,6-5.2,10.12-10.46,10.18-4.75.05-9.93-4.76-9.87-9,.09-7,4.3-12.16,10.1-11.9C63.83,147.7,70.37,151.71,69.38,158.22ZM54.23,158c0,2.67,2.7,5.62,5.11,5.55s4.9-2.79,4.92-5.49-2.44-5.67-5-5.68C57.08,152.37,54.25,155.5,54.23,158Z"/><path class="cls-1" d="M111.9,157.88c.2,7.68-4.68,10.18-10,10.45-5.67.29-10.56-4.91-10.47-10.43.09-5.81,5.72-10.32,10.44-10.46C107.07,147.29,111.9,152.43,111.9,157.88Zm-4.92,0c0-2.72-2.68-5.49-5.24-5.44-2,0-5.46,3.51-5.5,5.53,0,2.36,3.22,5.62,5.6,5.61A5.53,5.53,0,0,0,107,157.84Z"/></g></g><rect class="cls-2" x="2" y="2" width="200" height="200" rx="16.39" ry="16.39"/></g></g></svg>