<svg xmlns="http://www.w3.org/2000/svg" viewBox="0 0 204 204"><defs><style>.cls-1{fill:#fff;}.cls-2{fill:none;stroke:#fff;stroke-miterlimit:10;stroke-width:4px;}</style></defs><title>DigitalSignage</title><g id="Layer_2" data-name="Layer 2"><g id="Layer_1-2" data-name="Layer 1"><g id="Solutions"><g id="DigitalSignage"><path class="cls-1" d="M75.93,30c13.83,0,27.67.16,41.5-.09,4.75-.08,7.2,1,9.06,6C132,50.73,138.3,65.21,144.55,79.7c1.63,3.79.93,7.5,1,11.27,0,1.76-1.12,2.66-2.88,2.8-1.5.12-2.34-.71-2.22-2,1-11.4-6-20.29-9.43-30.29-2.59-7.6-6.12-14.87-9.11-22.34-1.07-2.66-2.63-3.72-5.63-3.7-26,.12-52,.16-78,0-4.84,0-4.26,2.09-3,5.09,4.61,10.87,9.34,21.7,13.8,32.63a22.74,22.74,0,0,1,1.59,8.76c-.11,25.32,0,50.65-.16,76,0,4.47,1.39,5.63,5.72,5.57,17.33-.23,34.67-.12,52-.11a17.84,17.84,0,0,1,4.43.36,2.79,2.79,0,0,1,2.29,2.9c-.09,1.67-1.3,2.22-2.72,2.36-1.16.11-2.33.08-3.49.08-19.83.09-39.66.37-59.49.15-6.3-.07-12-3.46-17.88-5.47-2.65-.9-2.15-3.4-2.15-5.54,0-22.32-.39-44.66.19-67a60.86,60.86,0,0,0-6.21-28.61c-1.64-3.41-2.89-7-4.68-10.34-2.45-4.54-1.63-8.31,1.68-12a97.06,97.06,0,0,0,6.1-7.85c1.43-2,3.26-2.39,5.59-2.38C46.59,30.08,61.26,30,75.93,30ZM28.79,39.11c-6.37,6.19-6.49,6.72-3.41,14.24,1.12,2.73,2.16,5.51,3.43,8.16a61.27,61.27,0,0,1,6.1,29c-.61,20.95-.18,41.93-.18,62.89a23.08,23.08,0,0,0,0,3c.66,5,5.23,4.72,8.36,5.13,3.48.45,1.85-3.13,1.86-4.8.14-21-.15-41.93.2-62.89.17-9.91-.81-19.28-5.2-28.37C35.85,57,32.53,48,28.79,39.11Z"/><path class="cls-1" d="M149.23,174c-22.31.62-37.73-17.79-37.55-36.87.19-20.78,14.09-37,36.74-37.75,22.41-.69,38.11,16,38.45,37.45C187.19,157,170.21,175,149.23,174Zm-.25-5.56c18.68,1.08,32.67-14.6,32.41-31.62-.3-19.31-15.37-32.24-31.94-32-19.79.32-32,14.5-32.15,32.22C117.18,153.73,130.45,169.05,149,168.45Z"/><path class="cls-1" d="M83.58,44.63c8.67,0,17.33.06,26,0,2.85,0,4.69.22,5.87,3.67,3.68,10.8,8,21.38,12,32.07,1.39,3.72-.32,6-4.55,6-17.5.06-35-.1-52.5.12-3.69,0-5.15-2-6.14-4.61-4-10.38-7.78-20.83-11.56-31.29-1.86-5.14-1.23-6,4.37-6C65.91,44.6,74.75,44.63,83.58,44.63ZM84.37,50c-7,0-14,.12-20.95,0-3.67-.09-5.61,0-3.52,4.67,3.41,7.58,6.3,15.41,9,23.28.92,2.68,2.27,3.11,4.69,3.1,14.3-.07,28.6-.16,42.89,0,4.27.06,4.92-1.58,3.49-5a188.75,188.75,0,0,1-7-19.27c-1.4-4.77-3.62-7.7-9.63-6.93C97.08,50.6,90.69,50,84.37,50Z"/><path class="cls-1" d="M155.1,148.82c-1.48,3.78-4.38,5.32-7.07,6.57-2.4,1.12-4.41.39-4.35-3.18a44.26,44.26,0,0,1,2.7-13c1.49-4.5.35-4.42-3-3.55-.08-.68-.25-1.18-.14-1.26,3.12-2.07,6.34-6.78,9.8-4.56s-.36,6.78-.75,10.3c-.21,1.85-.85,3.83-1.16,5.78-.2,1.23-1.9,2.33-.73,3.61C151.75,151,152.94,148.78,155.1,148.82Z"/><path class="cls-1" d="M152.24,124.73c-2.23.26-2.69-1.09-2.69-3,0-2.3.88-4,3.27-4.16A2.85,2.85,0,0,1,156,121C155.76,122.79,155.06,125,152.24,124.73Z"/></g></g><rect class="cls-2" x="2" y="2" width="200" height="200" rx="16.39" ry="16.39"/></g></g></svg>