<svg xmlns="http://www.w3.org/2000/svg" viewBox="0 0 204 204"><defs><style>.cls-1{fill:#fff;}.cls-2{fill:none;stroke:#fff;stroke-miterlimit:10;stroke-width:4px;}</style></defs><title>Immersive</title><g id="Layer_2" data-name="Layer 2"><g id="Layer_1-2" data-name="Layer 1"><g id="Solutions"><g id="ImmersiveAR_VR" data-name="ImmersiveAR/VR"><path class="cls-1" d="M110.63,118.37c-7.23-.65-16,.85-24.91-1.09-7.43-1.63-14-4.69-18.4-10.44-3.78-4.93-7.94-6.1-13.44-5.53a27.68,27.68,0,0,1-5.43,0c-3.79-.36-5.52.67-5,5,1.11,9.12,1.91,18.24,4.16,27.22,1.45,5.78,1.41,11.93,2,17.82,1,10.17,3.23,20.29,2.92,30.59-.07,2.25,0,5-3,4.88-2.19-.12-3.74-2.05-3.76-4.68-.12-15.11-3.05-30-4.51-44.95-1-10.65-3.77-21.17-4.44-31.94-.14-2.3-1.1-3.71-3.62-4-4.11-.44-5.08-3.17-4.91-6.86s.19-7.66,0-11.48c-.18-3.57.28-6.26,4.58-7,3.12-.56,2.64-3.54,3-5.87,1.16-7.11-.67-14.72,2.45-21.39C49.2,25.5,65.87,13.88,93.83,15.12c10.63.47,21,.91,30.46,6.94,11,7,17.28,17.33,20.26,29.41,1.59,6.47,4.06,8.42,10.5,8.11,11.16-.54,16.43,2.88,19.82,10.92,1.17,2.77.75,5.55.79,8.33.1,6.85,0,13.7,0,20.55,0,11.55-7,18.71-18.59,19a49.16,49.16,0,0,1-7.85,0c-6.4-.89-8,3.07-8.58,8.11-1.12,9.56-2.07,19.14-3.26,28.69-.9,7.23-6.06,11.8-15.62,11.86-7.09,0-8.59,2.82-7.78,8.93a48.76,48.76,0,0,1,0,8.45c-.1,2.45-1.54,4.64-3.84,4.6s-2.86-2.43-2.84-4.64c0-4.23-.17-8.47.06-12.69.22-4-1.54-5.44-5.42-6.33a52,52,0,0,1-34-24.45c-1-1.71-4-4-.53-6.05,3-1.75,5,.41,6.36,2.73,5.7,9.82,14.15,16.26,24.72,19.81,9.12,3.07,18.38,5.57,28.08,1.76,3.13-1.23,4.47-3.07,4.46-6.25,0-10.66,2.23-21.05,4-31.49.6-3.62-1.62-3-3.52-3C125.09,118.34,118.65,118.37,110.63,118.37ZM129.8,66.13c-9.66,0-19.32-.07-29,0-5.23.05-8.39,3.17-8.6,8.1A277.49,277.49,0,0,0,92.32,102c.26,4.44,1.27,9.42,7.81,9.41,19.09-.05,38.19.16,57.28,0,7.66-.07,11.63-4.52,11.71-12.24.07-7.24.05-14.49,0-21.74-.06-7.6-3.8-11.26-11.55-11.31C148.31,66.08,139.06,66.12,129.8,66.13Zm-18.25-6.7c7.44,0,14.89-.27,22.31.09,5,.25,6.1-1.22,4.68-6-3.83-12.86-11-23-23.26-28.81-7.56-3.57-16-2.83-24.19-2.92-7.82-.09-15.64.28-22.81,3.72-17.54,8.4-27.7,26.67-26.21,46.57.11,1.45.15,2.72,1.69,3.52,4.31,2.23,18.77-.44,22.19-4.07,7.29-7.74,16-12.3,26.91-12.12C99.09,59.52,105.32,59.44,111.55,59.44ZM53.23,94.76c4.83,0,9.67-.24,14.47.07s4.63-2.46,4.52-5.73.68-6.56-4.57-6.38C58,83,48.36,83,38.71,83c-1.61,0-3.09-.3-3.81,1.87-2.08,6.23.36,9.86,6.87,9.88ZM72.05,102c2.94,4.32,6.9,5.59,10.22,7.71a4.76,4.76,0,0,0,4,.13c2-1-.13-2.33-.22-3.55a233.07,233.07,0,0,1,.22-39.34c-3.76.66-7.4,2.56-10.9,4.77-2.25,1.42-4.62,2.88,0,4.43,2.93,1,3.77,3.2,3.61,6.16a69.43,69.43,0,0,0,0,10.24C79.49,97.65,78,101.16,72.05,102Z"/></g></g><rect class="cls-2" x="2" y="2" width="200" height="200" rx="16.39" ry="16.39"/></g></g></svg>