<svg xmlns="http://www.w3.org/2000/svg" viewBox="0 0 204 204"><defs><style>.cls-1{fill:#fff;}.cls-2{fill:none;stroke:#fff;stroke-miterlimit:10;stroke-width:4px;}</style></defs><title>MRI</title><g id="Layer_2" data-name="Layer 2"><g id="Layer_1-2" data-name="Layer 1"><g id="Solutions"><g id="MRI"><path class="cls-1" d="M26.82,103c-3.12.88-4.07,3.22-5.8,4.65-1.56,1.29-3.13,2.83-5.06.93s-.51-3.57.93-5c7.31-7.31,14.55-14.7,22-21.84a11,11,0,0,0,3.64-8.93c-.21-12.7.06-25.41-.16-38.1-.08-4.56,1.31-6.64,6.12-6.32a104.39,104.39,0,0,0,13.39,0c4.34-.27,6.18,1.18,5.92,5.75-.32,5.65-.08,11.33-.08,18.58C73.5,47.1,78.25,42.48,83,37.82c3.67-3.64,7.35-7.28,10.93-11,2.63-2.73,5-2.85,7.73-.06,10.71,11,21.52,21.93,32.25,32.94,1.42,1.46,3.72,3.29,1.62,5.4s-4.1.63-5.94-1.24c-9.36-9.56-18.95-18.91-28.16-28.61-2.76-2.91-4.28-3.07-7.17-.18Q64.52,64.79,34.49,94.17a6.5,6.5,0,0,0-2,5.21c0,23.08.08,46.16,0,69.24,0,3.42.84,4.59,4.46,4.64,15.95.22,15.95.35,15.95-15.31,0-8.77-.05-17.53,0-26.3,0-6.42.83-7.21,7-7.23,7.5,0,15,.21,22.5-.09,5-.2,7.06,1.46,6.94,6.74-.29,12.52,0,25-.16,37.57,0,3.47.91,4.64,4.5,4.6q24.92-.26,49.84,0c3.29,0,4.46-1,4.24-4.3-.25-3.74-.14-7.51-.08-11.27,0-1.69-.41-3.92,2.33-3.95,2.52,0,3.37,1.72,3.38,3.92,0,5.55.08,11.09,0,16.64,0,3.16-1.59,4.93-5,4.93q-30-.07-60,0c-4.15,0-5.11-2.18-5.08-5.79.09-12.52-.14-25.05.14-37.57.1-4.55-1.41-6-5.82-5.62a127.87,127.87,0,0,1-14.46,0c-3.5-.13-4.7,1.27-4.67,4.73.13,12.7-.09,25.41.11,38.11.07,4.56-1.32,6.47-6.11,6.2a175.71,175.71,0,0,0-18.75,0c-5.3.27-6.81-2.1-6.78-7,.13-21.83,0-43.65,0-65.48C27,105.68,26.89,104.65,26.82,103Zm21.5-31.51c9.61-7,16.09-14.21,13.56-25.94a10.53,10.53,0,0,1,0-2.14c0-9.39-1.8-10.76-11.1-9.07-1.79.32-2.43,1.08-2.42,2.77C48.32,48.29,48.31,59.43,48.31,71.52Z"/><path class="cls-1" d="M98.85,111.15c0-17.29,10.37-30.35,26.87-36,21.24-7.28,43.83,8.61,47.92,27.39,2.9,13.32-.49,24.21-8.34,34.31-2,2.6-2.06,3.85.24,6.08,6.77,6.58,13.37,13.34,19.89,20.17,1.59,1.67,5.48,3.25,2.44,6.3-3.34,3.35-4.92-.94-6.63-2.6-6.9-6.69-13.6-13.59-20.3-20.49-2-2-3.29-2.44-6.28-.93-20.16,10.18-42,2.83-52.45-17.26C99.49,122.89,98.83,119.59,98.85,111.15Zm5.94,0c-1.9,18,15.33,32.32,30,32.86a32.4,32.4,0,1,0,1.62-64.74C120.45,79,103.08,94.56,104.8,111.13Z"/></g></g><rect class="cls-2" x="2" y="2" width="200" height="200" rx="16.39" ry="16.39"/></g></g></svg>