<svg xmlns="http://www.w3.org/2000/svg" viewBox="0 0 204 204"><defs><style>.cls-1{fill:#fff;}.cls-2{fill:none;stroke:#fff;stroke-miterlimit:10;stroke-width:4px;}</style></defs><title>ParkingSolutions</title><g id="Layer_2" data-name="Layer 2"><g id="Layer_1-2" data-name="Layer 1"><g id="Solutions"><g id="ParkingSolution"><path class="cls-1" d="M141.28,99.77c8.33,0,16.66.06,25,0,2.72,0,4.42.89,5.19,3.59.39,1.37,1.33,2.6,1.67,4,1.31,5.41,4.48,7.72,10.08,6.7,2.24-.41,4.72-.09,5.51,2.39.85,2.67,1,5.71-1.76,7.55-2.41,1.61-3,2.81-.38,4.76,1.3,1,.86,2.71.87,4.14,0,9.52-.1,19,.07,28.55.06,3.07-.89,4.11-4,4-4.52-.23-9.06-.18-13.59,0-2.53.09-3.6-.86-3.17-3.29.78-4.34-1.39-5-5.15-4.94q-21,.28-42.09,0c-3.28,0-4.68.88-4.13,4.18s-1.06,4.26-4.22,4.07a112.66,112.66,0,0,0-12.71,0c-3.15.17-4.43-.7-4.36-4.12.21-9.36.23-18.74,0-28.1-.08-3,2.91-4.89,2.72-6.88s-3.78-3.13-4.44-5.93c-.72-3.06,1.56-6.72,4.74-6.21,7.45,1.19,10.88-2.12,12.47-9,.95-4.11,3.86-5.71,8.44-5.43C125.77,100.11,133.54,99.77,141.28,99.77ZM99.32,133c2.41-.39,3.47-3.67,5.93-2.93,4.12,1.24,8.64,1.42,12.34,3.76,2.58,1.62,3.34,4.52,2.6,7.39-.69,2.66-3.19,1.2-4.88,1.47a17.21,17.21,0,0,1-3.94,0c-2.89-.21-5.84.6-8.68-.51-1.3-.51-1.51-3.21-3.2-2.24-1.48.85-.51,3-.69,4.53-.15,1.3.06,2.64,0,4-.17,2.69,1.12,3.62,3.7,3.57,4.24-.09,8.48,0,12.73,0,21.36,0,42.72,0,64.07.13,2.74,0,3.56-1,3.47-3.6-.15-4.39,0-8.79,0-13.19a9.1,9.1,0,0,0-8.79-8.74c-21.8,0-43.6.09-65.4-.08C103.64,126.55,101.72,129.94,99.32,133Zm8.94-11c21.1,0,41.85,0,62.61,0,1,0,2.18.24,2.61-1,.73-2.21-4.28-8.74-6.76-8.75-17.25,0-34.51,0-51.76,0-2.17,0-3.59.67-4.25,2.91S108.57,119.05,108.27,122ZM166,106.87v-.63H115.69v.63ZM104.82,157c-1.86,1-5.63-1.52-5.61,1.94,0,2.62,3.64,1.4,5.59,1.36s5.43,1.37,5.43-1.53S106.7,157.85,104.82,157Zm72.37,0c-1.84.88-5.33-1.25-5.38,1.73s3.45,1.57,5.28,1.55,5.3,1.57,5.32-1.48S178.92,158,177.19,157ZM113.7,137l-7.32-1.48c-.8-.16-1.47,0-1.67.87-.27,1.2.55,1.59,1.48,1.59C108.31,138,110.48,138.6,113.7,137ZM184,119.1c-1.81-.26-3.63-.9-5.5.18C180.57,124.05,182.31,121.7,184,119.1Zm-83.89-.5c-.49.46-2.25-.5-2,1.1.22,1.46,1.73,2.23,3.21,2.51,1.21.23,1.4-.74,1.54-1.6C103.17,118.52,101.64,118.72,100.08,118.6Z"/><path class="cls-1" d="M14.84,97.93q0-22.86,0-45.71c0-8.23,5.42-13.57,13.72-13.58q45.41,0,90.82,0c8.08,0,13.54,5.36,13.56,13.31,0,13.77,0,27.54,0,41.32,0,1.75,1.15,4.57-2.39,4.45s-2.12-3-2.14-4.65c-.11-13.19-.06-26.37-.07-39.56,0-6.49-3.45-10.09-9.79-10.09q-44.53,0-89.07,0c-6.49,0-9.93,3.49-9.93,10q0,44.83,0,89.67c0,6.54,2.71,9.27,9.21,9.28,19.6,0,39.2,0,58.79,0,1.33,0,3.26-.8,3.79,1.14s.5,3.78-2.55,3.71c-6.29-.14-12.58,0-18.86,0-14,0-28.09-.33-42.12.13-7.33.24-13.17-7-13.06-13.23C15,128.71,14.83,113.32,14.84,97.93Z"/><path class="cls-1" d="M68.3,67.45a39.36,39.36,0,0,1,17.56,3.29c7.73,3.54,10.49,10.53,8.88,21.53-.87,5.91-8,12.46-14.35,13.68-4,.77-7.9,1.84-12,1.5-2.36-.19-2.46,1.37-2.44,3.14,0,4.83-.1,9.66.06,14.49.08,2.52-.82,3.31-3.28,3.24C50.51,128,52.94,130,52.82,119c-.16-14.93.05-29.86-.11-44.79,0-3.44.39-5.21,4.48-5.51C61.09,68.39,64.95,67.32,68.3,67.45ZM66,87.44c0,9.43,0,9.43,7.15,8.89a9.39,9.39,0,0,0,8.8-10c-.26-5.44-4.21-7.91-11.75-7.91-7,0-3.26,5.18-4.18,8.11A3,3,0,0,0,66,87.44Z"/><path class="cls-1" d="M169.27,142.74a35,35,0,0,1-4.36,0c-1.56-.2-4,1.11-4.45-1.35-.55-2.69-.65-5.79,2.15-7.49,3.85-2.34,8.43-3,12.7-3.67,3.36-.53,5.25,2.82,5.2,6.21,0,3-1,5.89-4.7,6.28a63.56,63.56,0,0,1-6.54,0Zm-1.41-6c2.13,1.73,4.27,1.33,6.38,1.17.74-.05,1.43-.38,1.26-1.32a1.26,1.26,0,0,0-1.61-1C171.87,135.91,169.87,136.34,167.86,136.73Z"/><path class="cls-1" d="M140.73,149.37c-3.49,0-7,0-10.47,0-1.71,0-3.66.21-3.64-2.51,0-2.24,1.13-3.92,3.19-4q11.12-.28,22.24,0c2.19.06,3.65,1.6,3.47,4.15s-2.23,2.25-3.88,2.29C148,149.42,144.37,149.37,140.73,149.37Z"/></g></g><rect class="cls-2" x="2" y="2" width="200" height="200" rx="16.39" ry="16.39"/></g></g></svg>