<svg xmlns="http://www.w3.org/2000/svg" viewBox="0 0 204 204"><defs><style>.cls-1{fill:#fff;}.cls-2{fill:none;stroke:#fff;stroke-miterlimit:10;stroke-width:4px;}</style></defs><title>PatientTracking</title><g id="Layer_2" data-name="Layer 2"><g id="Layer_1-2" data-name="Layer 1"><g id="Products"><g id="PatientTracking"><path class="cls-1" d="M75.85,95.35q0-17.69,0-35.37c0-6.74,3.4-10.25,10-10.25l56.6,0A8.09,8.09,0,0,1,150.11,56c.7,2.85.4,5.72.41,8.57,0,21.12,0,42.25,0,63.37,0,1.27-.54,2.91.92,3.63s2.37-.78,3.43-1.5c7.06-4.74,11.56-11.5,14.5-19.26.92-2.42,1.45-5.06,2.2-7.59,1-3.29-.16-5.06-3.43-6.39-5.33-2.16-8.54-8-7.88-14.28.59-5.64,5.21-11.52,9.8-12.47,7.71-1.61,14.39,1.05,17.45,7.48,3.54,7.41.48,16.68-7.45,19.61a4.19,4.19,0,0,0-3,4.13c-.34,5.88-2.35,11.28-4.84,16.54a44.2,44.2,0,0,1-18.09,19.38c-2.73,1.61-3.68,3.54-3.67,6.71,0,8,.62,16-.36,24-.47,3.86-2.93,6-6.85,6-19.58.06-39.17,0-58.75.1-6.13,0-8.28-3-8.64-9.48s-.14-13.33,0-20c.06-2.65-.89-3.8-3.54-3.7-5.28.22-10-1.71-14.6-4-3.39-1.73-4.62-5.4-6-8.62a49.1,49.1,0,0,1-4.18-17.35,7.65,7.65,0,0,0-4.32-7.11A11.31,11.31,0,0,1,37.06,92.8a5.89,5.89,0,0,0-2.4-5C26.3,80.47,19.93,71.81,16.48,61c-1.36-4.26-2.44-8.17-.16-12.35a2.79,2.79,0,0,0,.05-1.79c-1.49-6.38,1.7-11.43,8.13-12.83,3.22-.7,9.32,2.62,10,6.1,1.09,5.31,1,9.55-4.66,12.65-1.94,1.06-4,.65-6,.66-3.12,0-3.93,1.19-3.05,4.11C24.2,68.85,31.14,77.58,40,85.06c1.4,1.18,2.55,1.52,4.07.43a3.21,3.21,0,0,1,1.94-.8c4.58.69,6.6-2.3,8.42-5.66,4.77-8.79,8.7-17.81,8-28.16-.21-3.3-.72-3.64-3.64-2.11a9.92,9.92,0,0,1-11-1.73C44.36,43.79,44,40.55,45.63,36.2s5.09-6.08,9-6.15c4.06-.07,7.14,2.66,9.17,6.24a3.89,3.89,0,0,1,.34,2.09,6.88,6.88,0,0,0,1.82,5.33c1.49,1.68,1.83,3.75,1.92,6,.57,13.31-4,25-11.26,35.8-.77,1.15-.6,1.8-.33,3.11,1,4.66,1.94,9.67-1.67,13.7-2.17,2.42-2.5,4.46-1.77,7.68.85,3.72,1.24,7.6,2.26,11.33C56.34,126,57.64,130.8,62.5,133c3.09,1.37,6.32,2.73,10,2.48,2.44-.17,3.42-.89,3.4-3.48-.11-12.2,0-24.4,0-36.61Zm5.27,24.32q0,1.54,0,3.08c0,13.43,0,26.86,0,40.29,0,4.54.66,5.1,5.18,5.1q27.07,0,54.14,0c4.21,0,4.84-.71,4.82-5.06,0-3.69-.16-7.39,0-11.07.13-2.82-.93-3.82-3.73-3.78-7.38.12-14.76,0-22.15,0H94.5c-1.26,0-2.52-.08-3.1-1.48a3.1,3.1,0,0,1,.18-3c.89-1.38,2.36-1,3.65-1q22.76,0,45.53,0c4.27,0,4.5-.26,4.49-4.55q0-36.29,0-72.59,0-2.92-.18-5.84c-.26-4.2-.82-4.68-5-4.68q-26.3,0-52.6,0c-5.5,0-6.35.83-6.34,6.46,0,.72,0,1.44,0,2.15.06,2.18,1.21,3.11,3.35,3.05s4.3,0,6.45,0l41.22,0c2.77,0,3.68,1,3.17,3.48s-2.43,1.82-4,1.83c-15.07,0-30.15,0-45.22,0-4.52,0-5,.49-5,4.86Q81.1,98.3,81.11,119.68Zm93.58-44.45c-4.83-1.07-9.12,4-8.92,8.9s4.58,9.52,9,9.47c3.91,0,9-5.39,8.81-9.56C183.42,79,179,74.24,174.69,75.23ZM51.89,94.12A4.67,4.67,0,0,0,47.67,90c-2.13,0-5.44,2.19-5.43,3.69,0,1.76,4.75,6.57,6.39,6.48S51.92,97,51.89,94.12ZM58.77,40c0-1.9-2.42-4.57-4.2-4.57s-5.08,3.29-4.74,5a4.53,4.53,0,0,0,4.36,4A4.65,4.65,0,0,0,58.77,40Zm-29,3.53a4,4,0,0,0-4.31-4c-1.85.09-4.42,2.8-4.32,4.56.11,2.09,2.39,4,4.72,3.87C28.42,47.85,29.78,46.32,29.73,43.55Z"/><path class="cls-1" d="M113.17,131.8c-2.56,0-5.13-.07-7.68,0-2.1.08-3-.81-3-2.89.06-2.46-.06-4.92,0-7.38.07-2-.84-2.79-2.75-2.73s-3.9,0-5.84.05c-2.4.11-3.65-.78-3.6-3.35.08-4.81.06-9.63,0-14.45,0-2.17,1.09-3.22,3.18-3.27s4.1,0,6.14,0c1.89,0,2.83-.89,2.81-2.82,0-2.46,0-4.92,0-7.38,0-1.91.85-2.77,2.8-2.75,5.12,0,10.25,0,15.37,0,2.48,0,3.55,1.15,3.47,3.58-.07,2,0,4.1-.06,6.15,0,2.25,1,3.3,3.37,3.33,8.29.08,8.3.13,8.32,8.39,0,3.28,0,6.56,0,9.83,0,1.91-.89,2.81-2.82,2.77s-3.9.07-5.84,0-3.06.77-3,2.88-.08,4.1,0,6.14c.14,2.82-.89,4.22-3.92,4-2.34-.17-4.71,0-7.07,0Zm5.57-11.71c0-6.79,0-6.79,5.37-6.73,6.82.08,6.82.08,6.48-6.76,0-.2,0-.41,0-.61a2.57,2.57,0,0,0-2.89-2.82c-2,0-4.09-.13-6.14-.07s-2.86-.76-2.76-2.73c0-.92,0-1.84,0-2.76,0-7.49-.14-7.55-7.52-7.29-2.38.08-3.31,1.18-3.29,3.42,0,2-.1,4.1,0,6.14.14,2.58-1,3.51-3.51,3.32-1.73-.13-3.48-.05-5.22-.07-2.29,0-3.38,1.16-3.42,3.4,0,1,.05,2.05,0,3.07-.22,2.72.87,3.81,3.71,3.84,8.39.07,8.39.16,8.46,8.47,0,4.38.12,4.46,4.47,4.48C119.92,126.41,118.78,126.25,118.74,120.08Z"/><path class="cls-1" d="M120.72,158.61c-.05,4.9-3,7.94-7.77,7.88-4.19,0-7.23-3.39-7.2-7.92s3.35-8.26,7.59-8.23C117.92,150.37,120.77,153.57,120.72,158.61Zm-9.54-.38c.07,1.22.2,2.47,1.88,2.53,1.39,0,2.42-.49,2.42-2.05s-.44-3-2.24-3C111.66,155.61,111.35,156.91,111.18,158.23Z"/></g></g><g id="Solutions"><g id="ProjMapping"><path class="cls-1" d="M101.37,182.5v0c6.25,0,12.5,0,18.75,0,3.68,0,5-1.31,4.23-5.19a47.3,47.3,0,0,1-.93-11.39c.32-7.23,1.11-14.43,1.76-21.65.31-3.44-.8-4.63-4.49-4-11.6,2-23.31,1.33-35,.56-2.94-.19-4.51-.13-4.83,3.28-1,11.21-2.2,22.41-2.17,33.7,0,3.89,1.66,4.84,5.11,4.75C89.67,182.39,95.52,182.5,101.37,182.5Z"/></g></g><rect class="cls-2" x="2" y="2" width="200" height="200" rx="16.39" ry="16.39"/></g></g></svg>