<svg xmlns="http://www.w3.org/2000/svg" viewBox="0 0 204 204"><defs><style>.cls-1{fill:#fff;}.cls-2{fill:none;stroke:#fff;stroke-miterlimit:10;stroke-width:4px;}</style></defs><title>POS</title><g id="Layer_2" data-name="Layer 2"><g id="Layer_1-2" data-name="Layer 1"><g id="Products"><g id="POS"><path class="cls-1" d="M79.06,16c1.58-.47,2.46-2.16,4.37-1.1s1.71,2.69,1.7,4.39c0,2.95,0,5.89,0,8.84,0,2.22.86,3.49,3.22,3.29,3.06-.26,3.93,1.3,3.84,4.1-.13,4.3,0,8.61,0,12.92,0,2.29.93,3.4,3.28,3.13a10.07,10.07,0,0,1,1,0c7.86-.11,7.86-.11,7.86,7.88q0,59.11-.07,118.21c0,1.36,0,2.72-.11,4.08s-.7,2.65-2.13,2.65c-4.79,0-9,2.44-13.83,2.75-9.79.62-19.46,3.25-29.36,2.2-9.49-1-19.08-1.47-28.29-4.35-.22-.07-.44-.12-.66-.17-5.93-1.3-5.92-1.3-5.93-7.34q-.08-52.7-.17-105.4c0-5.44.19-10.88.1-16.32-.05-3,.92-4.36,4.11-4.23,8.53.35,7.77.71,7.8-7.83,0-2.95.07-5.89,0-8.84-.05-2.23.82-3.47,3.15-3.38,2.88.11,3.71-1.54,3.68-4.09q-.06-4.93.06-9.86c0-.89.19-2.11,1.32-2.05,1.33.06.86,1.33.86,2.16-.07,10-.1,19.94-.28,29.91-.06,3.07,1.06,4.16,4.18,4.11,10.2-.16,20.4-.14,30.59,0,3.08,0,4.17-1.08,4.12-4.17-.15-8.84-.1-17.68,0-26.52C83.39,18,83.42,15.3,79.06,16ZM97.22,126.19h.06c0-15.75,0-31.5,0-47.25,0-4.32-.59-4.83-4.6-4.84q-28.39,0-56.78,0c-5.21,0-5.56.43-5.56,5.65q0,46.75,0,93.49c0,3.9,2,6.83,5.86,6.86,7.19,0,14.15,1.69,21.25,2.32,11.53,1,22.77-1.87,34.18-2.32,3.92-.15,5.6-2.56,5.6-6.67Q97.23,149.82,97.22,126.19ZM63.84,67.29c9.84,0,19.69,0,29.53,0,1.4,0,2.73.06,3.51-1.42,2.1-4-.14-7.84-4.59-7.85Q63.62,58,34.94,58c-3.8,0-4.59.87-4.58,4.94,0,3.81.59,4.37,4.64,4.38Z"/><path class="cls-1" d="M180.28,122.79q0,20.73,0,41.47c0,7.14-2.45,10-10,10q-16.31,0-32.63,0c-5.44,0-10.88,0-16.31-.08s-8.36-2.8-8.37-8.33q-.1-43,0-86c0-5.37,2.72-8.14,8-8.17q25.83-.14,51.66,0c4.86,0,7.23,2.23,7.48,7.25.28,5.54.15,11.1.16,16.65q0,13.6,0,27.19Zm-38.41-.14h0q0,19.9,0,39.79c0,4.72.39,5.12,4.93,5.13,7.37,0,14.74,0,22.11,0,3.92,0,4.58-.68,4.58-4.54q0-40.13,0-80.26c0-4-.56-4.53-4.52-4.55-7.37,0-14.74,0-22.11,0-4.67,0-5,.29-5,5Q141.84,102.93,141.86,122.65Zm-13.86.18c0-13.48-.05-27,0-40.44,0-3-.93-4.34-4.11-4.25s-4.19,1.69-4.18,4.74q.11,39.93,0,79.86c0,2.86.57,4.93,4.07,4.83s4.15-.85,4.15-5Q128,142.72,128,122.84Z"/><path class="cls-1" d="M59.21,16c-2.13-.88-4.27.54-7.33,0C54.94,15,57.06,14.23,59.21,16Z"/><path class="cls-1" d="M63.83,79.25c7.47,0,15,0,22.42,0,4.81,0,5.59.71,5.6,5.42,0,8.27,0,16.54,0,24.81,0,4-.79,4.8-4.77,4.81q-23.11,0-46.22,0c-4.53,0-5.12-.66-5.12-5.09q0-12.57,0-25.15c0-3.86.64-4.54,4.56-4.57,7.82-.05,15.63,0,23.45,0Zm.26,28.34h0c5.67,0,11.34,0,17,0,2.65,0,4-1.07,4-3.84-.06-4.53,0-9.07,0-13.61,0-2.93-1.36-4.35-4.37-4.33q-16.84.08-33.67,0c-3.06,0-4.29,1.49-4.26,4.4,0,4.53.1,9.07,0,13.6,0,2.81,1.3,3.79,4,3.75C52.52,107.52,58.3,107.58,64.09,107.58Z"/><path class="cls-1" d="M64.17,160.51c-1.8-.11-3.61-.16-5.4-.35a2.53,2.53,0,0,1-2.53-2.66c0-1.68.48-3.38,2.43-3.52a92.29,92.29,0,0,1,10.48-.17c2.18.1,2.47,2,2.5,3.77s-1,2.68-2.73,2.75-3.16,0-4.74,0Z"/><path class="cls-1" d="M64.27,123.07c1.46,0,2.93,0,4.39,0,2.05,0,3.07,1,3,3.15s-1,3.33-3.29,3.28c-2.92-.07-5.85-.09-8.77-.14-2.13,0-3.42-1-3.43-3.27s1.46-2.87,3.34-2.94c1.57-.06,3.15,0,4.72,0Z"/><path class="cls-1" d="M64.39,138.46c1.46,0,2.93-.06,4.39,0,1.91.09,2.82,1.26,2.92,3.07s-.8,3.17-2.66,3.25c-3.26.14-6.53.11-9.79,0a2.79,2.79,0,0,1-2.85-3.12,2.74,2.74,0,0,1,2.91-3c1.69-.07,3.38,0,5.07,0Z"/><path class="cls-1" d="M46.79,160.4c-1.24,0-2.49.06-3.73,0-2.36-.14-3-1.71-2.88-3.75s1-3.12,3.23-3a65.08,65.08,0,0,0,6.78,0c2.45-.12,3.55,1,3.6,3.35s-1.07,3.33-3.28,3.35H46.79Z"/><path class="cls-1" d="M80.74,153.69a26.57,26.57,0,0,0,3,0c2.46-.28,3.52.8,3.58,3.22.06,2.61-1.11,3.67-3.69,3.51a54.86,54.86,0,0,0-6.07,0c-2.46.11-3.43-1-3.4-3.4s1.08-3.5,3.51-3.27c1,.09,2,0,3,0Z"/><path class="cls-1" d="M46.79,129.54c-1.24,0-2.48,0-3.71,0-2.24,0-2.81-1.49-2.89-3.37s.78-3.07,2.73-3.1c2.81,0,5.63,0,8.44.09,1.67,0,2.42,1,2.42,2.63s-.15,3.32-2.26,3.54a46.78,46.78,0,0,1-4.72,0Z"/><path class="cls-1" d="M46.95,138.61c1.36,0,2.71,0,4.07,0,2,0,2.78,1.26,2.81,3.09s-.77,3.1-2.73,3.17c-2.6.09-5.2.09-7.8,0a2.89,2.89,0,0,1-3.15-3.2c0-2.14,1.15-3.36,3.42-3.27Z"/><path class="cls-1" d="M81,138.56a21.8,21.8,0,0,0,3,0c2.42-.34,3.32.88,3.35,3.06s-.73,3.46-3.17,3.36-4.74-.08-7.11,0C75,145,74.23,143.87,74.2,142s.34-3.44,2.7-3.44H81Z"/><path class="cls-1" d="M80.44,129.44c-1.13,0-2.26,0-3.39,0-2.08.11-2.78-1-2.84-2.9s.27-3.45,2.62-3.46c2.71,0,5.42,0,8.13,0,1.77,0,2.36,1.05,2.35,2.62s.07,3.37-2.13,3.59c-1.57.16-3.16,0-4.74,0Z"/></g></g><rect class="cls-2" x="2" y="2" width="200" height="200" rx="16.39" ry="16.39"/></g></g></svg>