<svg xmlns="http://www.w3.org/2000/svg" viewBox="0 0 204 204"><defs><style>.cls-1{fill:#fff;}.cls-2{fill:none;stroke:#fff;stroke-miterlimit:10;stroke-width:4px;}</style></defs><title>ProjMapping</title><g id="Layer_2" data-name="Layer 2"><g id="Layer_1-2" data-name="Layer 1"><g id="Solutions"><g id="ProjMapping"><path class="cls-1" d="M15.11,101.57c0-26.57.15-53.14-.11-79.71-.06-5.68,2-7.3,7.36-7.29q79.21.19,158.43.11c7.19,0,8.1.92,8.1,8,0,52.93,0,105.86.11,158.79,0,5.73-2.11,8-7.75,8q-79.81-.11-159.63,0c-5,0-6.61-2.09-6.58-6.94C15.19,155.51,15.11,128.54,15.11,101.57Zm83.66,33.36c8.3-.14,14.53-.48,20.76-.87,5.59-.35,7.63-3.7,7.86-8.06.89-16.84,4.92-33.35,5.06-50.27,0-3.54-.93-4.7-4.29-4.71-4.42,0-9,.24-13.24-.65-11.75-2.45-23.16,1.81-34.79,1.2-1.28-.07-2.64.91-3.94,1.46s-1.92,2-1.22,3c2.54,3.3,2.06,7.34,2.77,11,2.42,12.4,7.59,24.6,3.63,37.65-.4,1.31-.13,2.8-.27,4.2-.4,3.89,1.49,5.5,5.23,5.59C91.17,134.52,96,134.8,98.78,134.92Zm-29.49-2.15c1.61-.88,5.08,1.2,5.18-2.2.16-5.66,2.29-11.29,1.69-16.7-1.32-12-4.08-23.87-7.07-35.63-1-3.8-2.42-4.78-6.72-3.92-11.52,2.31-23.19,4-34.87,5.31-4.64.53-6.2,2.14-6.09,6.73.26,10.46.22,20.93,0,31.39-.08,4.09.78,6.17,5.48,6.49,4.1.28,8,2.29,12.15,3.09C49,129.27,59,130.94,69.28,132.77ZM100.69,21.29v0c-6.85,0-13.72.21-20.56-.08-4.31-.18-5.65,1.48-5.54,5.62a159.84,159.84,0,0,1-1.14,23.5,63.31,63.31,0,0,0,.21,12c.15,2,.71,3.84,3.76,3.36,16.93-2.64,33.94-3.56,51-1.1,5.14.74,5.91-1.48,5.07-5.7-2.14-10.77-2.47-21.83-5.62-32.49-1.08-3.66-2.46-5.13-6-5.12C114.8,21.31,107.75,21.29,100.69,21.29ZM21.5,156.1h0c0,7.24.08,14.48,0,21.72-.05,3.26,1.08,4.74,4.54,4.71,13.9-.11,27.79-.05,41.69,0,2.56,0,4.44-.93,4.42-3.76a231.45,231.45,0,0,1,2.4-35.4c.33-2.26-.45-4.22-3.16-4-4.74.41-9-1.68-13.56-2.1a150.29,150.29,0,0,1-30.9-6.46c-3.75-1.17-5.63-.19-5.48,4.2C21.68,142,21.5,149.06,21.5,156.1Zm160.71-.3c0-6.83-.19-13.67.07-20.49.18-4.66-1.58-5.64-5.79-4.33-9.5,3-19.13,5.4-29.11,6.12-4.59.33-8.78,2.83-13.55,2.34-1.37-.14-2,1.19-2,2.52-.39,11.82-2.62,23.58-.94,35.47.52,3.64,2,5.19,5.86,5.14q19.92-.25,39.84,0c4.1,0,5.82-1.37,5.68-5.62C182,169.87,182.22,162.83,182.21,155.8Zm0-54.51c0-5.63-.12-11.27,0-16.9.09-2.89-.86-4-3.81-4.87-11-3.24-22.49-3.42-33.55-6.14-4.55-1.12-6.16,1.36-6.12,5.63.16,16.47-3.81,32.52-5.16,48.85-.4,4.8,1.1,5.39,4.59,4.58,13.38-3.1,27.12-4.37,40.32-8.42,3.1-1,3.69-2.65,3.7-5.22C182.23,113,182.21,107.12,182.2,101.29ZM21.5,47c0,7.45.07,14.9,0,22.34,0,3,.8,4,4.14,4.12,4.82.2,8.92-2.48,13.54-2.44,7.46.05,14.46-3,22-3,2,0,6.06-.41,5.58-4.08C65.06,51.42,68.79,39.11,68,26.62c-.2-3.09-.2-5.46-4.42-5.4-12.49.17-25,.09-37.49,0-3.39,0-4.66,1.38-4.6,4.69C21.59,32.94,21.51,40,21.5,47ZM182.21,48c0-6.83-.25-13.66.08-20.47.23-4.74-1.47-6.44-6.2-6.33-10.25.23-20.5.07-30.75.06-10.93,0-10.93,0-9,10.52,0,.2,0,.4,0,.6,1.25,10.11,2.52,20.21,3.71,30.32.22,1.87.22,3.82,2.75,3.81,5.66,0,11.11,1.69,16.57,2.59,6,1,12.29,1,18.05,3.27,3.57,1.38,4.83.33,4.79-3.3C182.17,62,182.22,55,182.21,48ZM101.37,182.5v0c6.25,0,12.5,0,18.75,0,3.68,0,5-1.31,4.23-5.19a47.3,47.3,0,0,1-.93-11.39c.32-7.23,1.11-14.43,1.76-21.65.31-3.44-.8-4.63-4.49-4-11.6,2-23.31,1.33-35,.56-2.94-.19-4.51-.13-4.83,3.28-1,11.21-2.2,22.41-2.17,33.7,0,3.89,1.66,4.84,5.11,4.75C89.67,182.39,95.52,182.5,101.37,182.5Z"/></g></g><rect class="cls-2" x="2" y="2" width="200" height="200" rx="16.39" ry="16.39"/></g></g></svg>