<svg xmlns="http://www.w3.org/2000/svg" viewBox="0 0 204 204"><defs><style>.cls-1{fill:#fff;}.cls-2{fill:none;stroke:#fff;stroke-miterlimit:10;stroke-width:4px;}</style></defs><title>SchoolBus</title><g id="Layer_2" data-name="Layer 2"><g id="Layer_1-2" data-name="Layer 1"><g id="Solutions"><g id="SchoolBus"><path class="cls-1" d="M101.94,19.57c10.86,0,21.72.06,32.58,0,15.91-.11,25.78,9.64,25.34,25.37-.25,9.14-.13,18.29,0,27.43,0,1.72-.93,4.83,1.42,4.83,3.13,0,1.3-3.24,1.61-5,.49-2.76-.52-5.71,1.08-8.35,2.94-4.83,7.57-5.36,12.5-4.69a8.62,8.62,0,0,1,7.66,7.34c2,10.93.75,22,.63,33,0,2.18-1.72,3.78-4.37,3.39a5.63,5.63,0,0,0-.57,0c-5.12-.23-11.22,1.9-15.12-.82-4.17-2.91-1-9.25-1.73-14-.18-1.23.46-3.18-1.33-3.26-2.25-.1-1.77,2.07-1.76,3.45.06,5.66-.86,11.42,2.38,16.7,1.45,2.36.74,5.22.76,7.86.05,8.76,0,17.53,0,26.29a13.5,13.5,0,0,0,1.51,7.05c2.44,4.39.59,8.83-2.54,11.88-2.86,2.78-3.49,5.63-3.26,9.16.08,1.33,0,2.67,0,4,0,7.93-4.07,12.82-10.86,13.09-8.17.32-13.33-4.18-14-12.2-.72-8.69-.72-8.7-9.43-8.7-16.58,0-33.16.13-49.73-.09-4.22-.06-5.78,1.06-5.5,5.43.2,3.11.86,6.4-1,9.45-3.11,5.17-8.11,7.29-14.66,6-4.64-.94-9-6-9-11.82-.07-6.57-.06-12.87-5.53-17.72-1.53-1.36-1.57-3.71-1-5.42,3.69-11.55,1.34-23.39,1.79-35.08.16-4.07.3-8.13,2.38-11.5,3.1-5,1.56-10.32,2-15.51.09-1.14-.05-2.42-1.54-2.6-1.78-.21-2.26,1-2.29,2.5-.08,4-.13,8-.18,12,0,2.8-1.26,4-4.22,4-20.77-.5-16.64,3.3-17-15.82-.12-6.28-.11-12.58.13-18.86S22.93,59,29.46,59c6.75,0,10.12,2.85,10.62,9.09.17,2.08.12,4.19.17,6.28,0,1.53-.09,3.32,2.15,3.23,2.41-.1,1.72-2.13,1.73-3.48.05-10.86.91-21.81-.22-32.55-1.19-11.27,10.9-21.93,22-22,12-.08,24,0,36,0Zm0,71.06c9.15,0,18.3-.18,27.44.06,6.59.18,13.28-1.18,19.77,1.54,2.71,1.14,4.67.06,4.65-3.54-.1-15,.16-30.09-.1-45.13-.21-11.62-7.46-17.35-16.31-17.57-23.81-.58-47.64-.44-71.46-.08-8.59.13-16.37,7.17-15.87,16.44.76,14.06.2,28.19.2,42.29,0,8.15,0,8.1,7.7,6.32a23.15,23.15,0,0,1,5.11-.32Q82.52,90.6,102,90.63Zm54.68,40.24c0-6.27-.5-12.58.13-18.79.74-7.41-5-14.71-14.41-14.76-27.06-.13-54.11-.17-81.17,0-9.49.07-14.86,6.06-14.9,15.62,0,9.11.1,18.23-.1,27.34-.07,3.31,1.19,4.38,4.31,4.29,4.76-.14,9.53-.2,14.28,0,3.51.14,4.59-1.27,4.53-4.68-.18-10.28.11-20.58-.18-30.86-.13-4.62,1.19-6.36,6.07-6.29q26.57.38,53.16,0c4.34-.06,5.63,1.4,5.54,5.56-.22,10.47-.11,21-.06,31.43,0,1.76-.72,4.41,2,4.54,6.27.29,12.56.18,18.84.11,1.73,0,2.23-1.44,1.81-2.88-.73-2.49-1.77-.72-2.83-.13-3.19,1.77-6.71,1-10.09,1-4.58.09-6.67-3.14-6.82-6.91a6.83,6.83,0,0,1,6.35-7.48C147.62,127.56,152.26,127.12,156.64,130.86Zm-55-21.82c-7,0-14.09.18-21.12-.07-3.82-.13-5.47.8-5.32,5,.31,8.55.27,17.12,0,25.68-.11,3.78,1.12,4.94,4.86,4.9,14.27-.17,28.54-.14,42.81,0,3.29,0,4.81-.75,4.71-4.44-.23-8.94-.2-17.88,0-26.82.07-3.25-1-4.37-4.25-4.3C116.14,109.16,108.9,109,101.67,109Zm56.73,42.47H45c1.92,4.29,4.69,5.56,8.8,5.54q47.38-.2,94.76,0C152.86,157.09,155.87,155.82,158.4,151.51ZM179,81.75c-.37-4,.77-8.75-.72-13.41-.63-2-1.72-3.33-4.06-3.22-2,.1-4.58.31-4.58,2.41,0,3.59-3.51,8.18,2.46,10.66,2.19.91,1.9,4.27.58,4.77C167.13,85,169.54,89.47,169,93c-.39,2.75.92,3.46,3.57,3.68,4.84.42,7.19-.94,6.42-6.23C178.65,87.87,179,85.16,179,81.75ZM25.13,81.41h0c0,4,0,8,0,11.95,0,2,.7,3.41,2.9,3.23,1.94-.16,5.27,1,5.47-1.34.33-3.92,2.69-8.64-2.11-11.84-1.86-1.24-2.76-3.72-.66-4.59,4.94-2,2.74-5.94,3.14-9.15.37-3-.89-4.54-4.17-4.56s-4.56,1.26-4.53,4.35C25.15,73.44,25.13,77.43,25.13,81.41Zm121.73,82.06c-4.44-.79-7.38-.12-6.8,5.6.45,4.43.51,8.65,6.35,8.86,6.15.21,6.1-4.06,6.28-8.54S152.17,162.11,146.86,163.47Zm-84,5.75c.9-4.24-.55-6.55-5.93-6-3.5.37-6.8-.45-6.44,5.11.43,6.65,2.29,9.75,7.12,9.59C63.22,177.74,62.95,173.7,62.82,169.22Z"/><path class="cls-1" d="M101.46,82.07c-11.8,0-23.61-.12-35.41.07-3.76.06-5.66-.8-5.58-5,.18-9.9-.06-19.8.15-29.69.15-7,4.51-11.1,11.61-11.12q29.13-.09,58.26,0c7.35,0,11.89,3.3,12.39,10.53.72,10.23.45,20.53.39,30.8,0,3.61-2.39,4.51-5.82,4.46C125.45,82,113.45,82.08,101.46,82.07Zm18.24-6.36c5.35,0,9.73,0,14.11,0,2.59,0,3.77-1,3.73-3.73-.12-7.23.11-14.47-.1-21.7-.15-5.26-3.07-7.87-8.26-7.9-6.85,0-13.71.09-20.56-.06-2.94-.06-4.13.94-4,3.93.16,4.37,0,8.76.05,13.13.07,5.12-1.67,11.72.86,15C108.5,78.23,115.47,75,119.69,75.72ZM98.29,59.35c0-4.37-.12-8.74,0-13.1.11-3-1.07-4-4-3.91-7.21.15-14.43,0-21.65.06-3.63,0-5.62,1.86-5.64,5.55,0,8,.09,15.95-.07,23.92-.06,3.05,1.16,3.94,4,3.9,7.78-.12,15.57-.13,23.36,0,2.89,0,4.15-.83,4-3.89C98.14,67.71,98.29,63.52,98.29,59.35Z"/><path class="cls-1" d="M57.32,142.46c-6.89,0-10.06-2.35-9.87-7.26s3.57-7.31,10.16-7.28c6.11,0,9.51,2.91,9.42,8S64.84,142.48,57.32,142.46Z"/><path class="cls-1" d="M113.58,133.81c2.18.61,6.83-1.46,6.8,2.92,0,4.13-4.41,3.71-7.63,3.63a12.75,12.75,0,0,0-1.71,0c-3.07.34-5.76-.87-5.68-3.92.07-2.88,3.22-2.54,5.47-2.64C111.58,133.78,112.34,133.81,113.58,133.81Z"/><path class="cls-1" d="M112.86,114.45c2.95.82,7.6-.86,7.53,3.27-.07,3.87-4.54,3-7.46,3s-7.5.81-7.55-2.91C105.33,113.2,110.37,115.53,112.86,114.45Z"/><path class="cls-1" d="M112.36,130c-.94,0-1.89,0-2.82,0-2.13.12-4.18-.75-4.25-2.77-.08-2.21,1.79-3.53,4.21-3.52q3.39,0,6.78,0c2.39,0,4.3,1.06,4.22,3.47-.07,2.22-2.11,2.84-4.19,2.81C115,130,113.68,130,112.36,130Z"/><path class="cls-1" d="M90.73,130H87.34c-1.85,0-3.41-.32-3.5-2.65s.78-3.6,3.22-3.59c2.26,0,4.52-.06,6.77,0s4.27.12,4.38,3.09c.13,3.56-2.45,3.11-4.67,3.19C92.61,130,91.67,130,90.73,130Z"/><path class="cls-1" d="M89.9,140.37a12.67,12.67,0,0,1-3.39-.36,3.58,3.58,0,0,1-2.6-3.89c.14-2.07,1.76-2.2,3.28-2.26a61.37,61.37,0,0,1,6.19,0c1.91.11,4.67-.69,4.75,2.43s-2.11,4.12-4.91,4.12Z"/><path class="cls-1" d="M91.28,114.72a25.15,25.15,0,0,1,3.37,0c1.64.22,3.54.29,3.57,2.69,0,2.18-1.47,3-3.26,3.14a54.74,54.74,0,0,1-6.74.15c-2.14-.07-4.41-.44-4.36-3.24,0-3,2.68-2.55,4.61-2.81a20.71,20.71,0,0,1,2.81,0Z"/></g></g><rect class="cls-2" x="2" y="2" width="200" height="200" rx="16.39" ry="16.39"/></g></g></svg>