<svg xmlns="http://www.w3.org/2000/svg" viewBox="0 0 204 204"><defs><style>.cls-1{fill:#fff;}.cls-2{fill:none;stroke:#fff;stroke-miterlimit:10;stroke-width:4px;}</style></defs><title>Seamless</title><g id="Layer_2" data-name="Layer 2"><g id="Layer_1-2" data-name="Layer 1"><g id="Products"><g id="Seamless"><path class="cls-1" d="M141.68,108.18q0,31,0,62.09c0,7.38-5.12,14.17-11.85,17.35-3.75,1.78-7.41,1.67-11.18,1.7-11.95.09-23.91.38-35.84-.09-8.12-.32-14.44-4.32-18.31-11.86a21.91,21.91,0,0,1-2.14-10.46c.06-27,.13-54,0-81,0-6.18,6-16.17,12.23-18.32a31.51,31.51,0,0,1,10.8-1.86q13.76.05,27.53,0c3.94,0,4.38-.48,4.44-4.4a64.85,64.85,0,0,1,.11-8c.87-6.19-2.66-10.14-7.15-12.89-7-4.29-15.35-3.58-20.25,3.75-1.75,2.61-3.78,5.37-3.48,9,.21,2.49-1.3,3.68-3.77,3.68-5.87,0-11.73,0-17.6,0-1.71,0-2.67-.77-2.7-2.43,0-2.12-.42-4.3.2-6.37C65.13,40,68.51,32.27,74.4,25.82c7.69-8.43,17.15-11.8,28.49-11.25,13.59.65,24.25,6.15,32.44,17A84.66,84.66,0,0,1,141.13,41a7.25,7.25,0,0,1,.52,3.75q0,31.69,0,63.37Zm-6.68.34h0q0-31.53,0-63.06a9.54,9.54,0,0,0-1.09-3.91c-2.6-6-7.41-10.1-12.11-14.25a24.79,24.79,0,0,0-6.3-3.54c-4.33-2-9-2.29-13.66-2.45-7.91-.26-15.13,1.42-21,7.29A37.3,37.3,0,0,0,71.1,45.09c-.45,1.59-3,3-1.09,4.76,1.36,1.29,3.49.5,5.27.64.42,0,.86,0,1.28,0,2.53.29,3.87-1,4.86-3.2.78-1.76.66-3.76,1.91-5.38,3.55-4.61,7.24-8.52,13.51-9.8,7.15-1.46,13.29-.14,18.83,4.19,3.79,3,7.57,6.47,8.23,11.37a68.22,68.22,0,0,1-.05,16.93,8.76,8.76,0,0,1-8.9,7.78c-10.88,0-21.77.12-32.65,0C75.63,72.24,69,79.73,69,85.77c0,27.53.13,55.06-.1,82.59-.05,6.4,7.49,14.23,13.86,14.2,13.66-.07,27.32,0,41-.1,5.24-.06,11.34-6.3,11.31-11.51C134.92,150.13,135,129.32,135,108.52Z"/><path class="cls-1" d="M101.11,108.87c0-1.81,0-3.63,0-5.44a1.92,1.92,0,0,1,1.19-2.06c.84-.3,1.39.24,1.93.79,3.23,3.25,6.44,6.51,9.71,9.72,1.52,1.5,1.51,3,.16,4.5a61.37,61.37,0,0,1-5.25,5.13c-2.15,1.84-2.14,3.4,0,5.19,1.8,1.49,3.44,3.17,5.17,4.75,1.37,1.25,1.45,2.52.12,3.84-3,2.92-5.89,5.86-8.88,8.76-.75.73-1.6,1.57-2.8,1.12-1.36-.51-1.37-1.77-1.37-3,0-2.88.07-5.75.07-8.63,0-.79.49-1.85-.54-2.27-.87-.36-1.71.27-2.29.83-1.7,1.61-3.35,3.28-4.89,5-1.2,1.37-2.54,2.31-4,.88s-.52-2.92.7-4.13c2.49-2.48,4.92-5,7.49-7.42,1.9-1.77,2-3.14-.06-5-2.71-2.39-5.18-5.06-7.68-7.68-1-1.06-2.32-2.39-.83-3.84s2.9-.68,4.17.62c1.56,1.6,3.2,3.13,4.83,4.66.62.58,1.37,1.21,2.27.88s.83-1.39.85-2.22c0-1.71,0-3.41,0-5.12Zm7.63,24.75a1.87,1.87,0,0,0-1.57-1.9c-1.13-.22-1.53.5-1.59,1.46s0,2,1.33,2.12C107.91,135.39,108.43,134.71,108.74,133.62Zm-.13-19.47c0-1-.49-1.68-1.5-1.71s-1.53.64-1.55,1.62.22,1.76,1.3,1.86C108.08,116,108.47,115.15,108.61,114.14Z"/></g></g><rect class="cls-2" x="2" y="2" width="200" height="200" rx="16.39" ry="16.39"/></g></g></svg>