<svg xmlns="http://www.w3.org/2000/svg" viewBox="0 0 204 204"><defs><style>.cls-1{fill:#fff;}.cls-2{fill:none;stroke:#fff;stroke-miterlimit:10;stroke-width:4px;}</style></defs><title>TempLogger</title><g id="Layer_2" data-name="Layer 2"><g id="Layer_1-2" data-name="Layer 1"><g id="Products"><g id="TempLogger"><path class="cls-1" d="M160.13,81.9c0,15.74,0,31.47,0,47.21a6.46,6.46,0,0,0,2.17,5.22c8.9,8.42,11.9,19.09,9.87,30.79-1.13,6.52-5.14,12-10.11,16.74-8.25,7.81-18.26,7.94-28.57,7.06-1.62-.14-2.82-1.21-4-2.21a2.68,2.68,0,0,1-.45-3.86,2.85,2.85,0,0,1,3.67-1.3,31.86,31.86,0,0,0,15.15.53c7.08-1.31,11.82-6.35,15.51-12.46,2.94-4.86,3.23-10.11,2.64-15.37-.68-6-4-11-8.58-14.83-2.74-2.32-4-4.84-3.69-8.35a53.26,53.26,0,0,0-.08-6.65c-.12-2.33-1.21-3.8-3.78-3.55-2.35.23-3.53-.66-3.54-3.14s.87-3.74,3.52-3.63c3,.12,4.24-1.42,4-4.36a16.72,16.72,0,0,1,0-3c.26-2.9-1.17-4.2-3.92-4-2.55.23-3.68-.65-3.63-3.31s1.1-3.57,3.68-3.34,3.95-1,3.82-3.76c-.07-1.55,0-3.1,0-4.65.09-3.27-1.14-5.09-4.74-4.62-2,.27-2.82-.82-2.71-2.77.1-1.71.07-3.51,2.52-3.45,1.83,0,3.95.09,4.53-1.92a13.31,13.31,0,0,0-.12-8.47c-.51-1.32-2.2-1.37-3.55-1.29-2.35.15-3.53-.76-3.48-3.23,0-2.26.78-3.58,3.35-3.35,3.12.27,4.51-1.23,4.2-4.39a30.58,30.58,0,0,1,0-3.66c.05-2.6-1.2-4-3.81-3.89s-3.61-1-3.6-3.54,1.31-3.48,3.79-3.28a3,3,0,0,0,3.52-2.79c.53-3.92-1.62-11.82-6.79-13.95-9.15-3.77-18.26,2-18.3,12.14-.06,14,0,27.94-.08,41.9,0,2.59.88,4.16,3.33,5,3.73,1.32,5.28,4.26,5.28,8q0,39.24,0,78.48c0,4.88-3.57,8.34-9.1,8.67-4.31.26-8.64.12-13,.12-12.64,0-25.27,0-37.91,0a18.58,18.58,0,0,1-7.38-1.58,5,5,0,0,1-3.37-4.82c-.12-3.43-.11-6.87-.11-10.3,0-23.06.11-46.12-.09-69.17-.06-7.34,2.09-10.38,10.54-10.37,13.75,0,27.49-.08,41.24.08,3.29,0,4.2-1.15,4.17-4.26-.11-14.19,0-28.38,0-42.57,0-8.1,5.39-15.2,12.88-18.2,3.59-1.44,6.88-2.24,10.55-1.1,5.93,1.84,10.79,5.21,13.32,11,1.22,2.76,1.36,6,1.36,9.15q0,23.27,0,46.54Zm-29.49,47.43q0-18,0-35.9c0-5.27-.23-5.53-5.35-5.53q-23.77,0-47.54.06C73.51,88,73,88.51,73,92.8q0,36.74.05,73.47c0,3.91.56,4.44,4.42,4.45q24.27,0,48.54,0c4.31,0,4.63-.33,4.64-4.79C130.64,153.71,130.63,141.52,130.63,129.33Z"/><path class="cls-1" d="M31.25,75.39C32.51,64.17,38.82,56,48.43,50.11c4.89-3,10.14-5,16-4.71,2.07.11,4.24.09,4.27,2.94,0,2.5-1.61,3.43-3.9,3.56a28.21,28.21,0,0,0-21.08,10.8c-3.11,3.82-5.47,8-5.75,13.07A9.18,9.18,0,0,1,36.18,81c-.69.89-1.41,1.74-2.74,1.46a2.45,2.45,0,0,1-1.92-2.42C31.34,78.63,31.35,77.19,31.25,75.39Z"/><path class="cls-1" d="M63.61,56.27c1.72.12,3.88-.91,5,1.42s-.58,5.09-3.81,5.15C58,63,54,67.07,50.44,72.13A9.82,9.82,0,0,0,49,76.49a16.84,16.84,0,0,1-.88,3.18c-.69,1.9-1.81,3.48-4.11,3.06s-1.71-2.52-1.87-4.06c-.88-8.92,7.44-17.15,12.76-19.8C57.62,57.54,60.15,55.28,63.61,56.27Z"/><path class="cls-1" d="M52.84,79.16c.37-8.38,6-11.38,12.16-12.69a3.14,3.14,0,0,1,3.76,2,2.57,2.57,0,0,1-1.61,3.77c-4.51,1.37-7.47,4.06-8.78,8.67-.48,1.7-2,2.31-3.77,1.75S52.76,80.66,52.84,79.16Z"/><path class="cls-1" d="M100.94,124.62c-5.65,0-11.29,0-16.94,0-4.31,0-6.07-1.68-6.1-6q-.08-10.46,0-20.93c0-3.4,1.81-5.44,5.33-5.48q17.94-.21,35.87,0a5.06,5.06,0,0,1,5.35,5.25c.19,7.3.25,14.61,0,21.91-.11,3.66-2.12,5.21-5.94,5.26C112.67,124.67,106.81,124.62,100.94,124.62Zm0-6.18v0h12.61c4.09,0,4.65-.54,4.64-4.53s-.13-8,.05-11.94c.12-2.68-1.15-3.65-3.52-3.66q-13.61-.05-27.21,0c-2.43,0-3.57,1.16-3.49,3.73.14,4.31.12,8.63,0,12.94-.06,2.61,1.16,3.56,3.62,3.53C92.12,118.4,96.55,118.44,101,118.44Z"/></g></g><g id="Solutions"><g id="ProjMapping"><path class="cls-1" d="M21.5,47c0,7.45.07,14.9,0,22.34,0,3,.8,4,4.14,4.12,4.82.2,8.92-2.48,13.54-2.44,7.46.05,14.46-3,22-3,2,0,6.06-.41,5.58-4.08C65.06,51.42,68.79,39.11,68,26.62c-.2-3.09-.2-5.46-4.42-5.4-12.49.17-25,.09-37.49,0-3.39,0-4.66,1.38-4.6,4.69C21.59,32.94,21.51,40,21.5,47Z"/></g></g><rect class="cls-2" x="2" y="2" width="200" height="200" rx="16.39" ry="16.39"/></g></g></svg>