<svg xmlns="http://www.w3.org/2000/svg" viewBox="0 0 204 204"><defs><style>.cls-1{fill:#fff;}.cls-2{fill:none;stroke:#fff;stroke-miterlimit:10;stroke-width:4px;}</style></defs><title>Wearables</title><g id="Layer_2" data-name="Layer 2"><g id="Layer_1-2" data-name="Layer 1"><g id="Products"><g id="Wearables"><path class="cls-1" d="M98.26,36.57c7.53,0,15.06,0,22.59,0,2,0,2.86.48,2.83,2.85-.08,5.22.84,10.3,3.73,14.84a3.26,3.26,0,0,0,1.89,1.46c7.47,2.33,8.87,5.89,8.86,11.59,0,.83,0,1.66,0,2.48,0,1.74.77,2.5,2.54,2.6,4.2.23,6.4,2.64,6.39,6.78,0,3.72,0,7.45,0,11.17a6.16,6.16,0,0,1-6,6.27c-1,.08-2.46-.27-2.44,1.34,0,1.41,1.36,1.41,2.43,1.55,4.59.63,5.93,2.13,6,6.81q.06,11.91,0,23.83a6.23,6.23,0,0,1-6.28,6.46c-1.93,0-2.57.93-2.8,2.68-.63,4.94-3.66,7.67-8.38,8.77-2.64.62-2.92,3.2-3.87,5.06-2,3.9-2.26,8.18-2,12.5.07,1.11-.41,1.76-1.54,1.8-1.49,0-3,.06-4.46.06H76.34c-3,0-3.53-.26-3.29-3.17.42-5.1-1.52-9.49-3.65-13.84A4.6,4.6,0,0,0,66,147.92a10.36,10.36,0,0,1-7.85-9.8q.19-36,0-72c0-4.87,2.42-8.5,7.24-9.93,4.15-1.23,4.79-4.53,6.18-7.63s1.55-6.51,1.49-9.89c0-1.72,1-2.19,2.6-2.18,7.53,0,15.05,0,22.58,0ZM63,101.89h.08c0,11.83,0,23.65,0,35.48,0,3.57,2.22,5.91,5.58,5.95,3.8,0,7.6,0,11.4,0,15.79,0,31.59,0,47.38.07a5.06,5.06,0,0,0,4.58-2.32,8.79,8.79,0,0,0,1.43-5.4q0-34.23,0-68.47c0-4.06-2.39-6.63-6.38-6.64q-29-.06-58.05,0a5.9,5.9,0,0,0-6,6.16Q63,84.28,63,101.89Zm79.22,16.67c0-3.8,0-7.59,0-11.39,0-1.28-.2-2.66-1.89-2.65s-1.93,1.36-1.93,2.65c0,7.35,0,14.69,0,22,0,1.44.44,2.44,2.09,2.41s1.77-1.19,1.77-2.41Q142.28,123.88,142.26,118.56Zm0-34.24h0c0-1.81.05-3.63,0-5.43a1.65,1.65,0,0,0-1.69-1.77,1.8,1.8,0,0,0-2,1.73c-.06,3.62,0,7.24.08,10.86a1.8,1.8,0,0,0,2.09,1.93c1.23-.13,1.59-1.06,1.6-2.13C142.26,87.77,142.24,86,142.24,84.31Z"/><path class="cls-1" d="M15.34,103.58c-.95-4.89.24-9.65,1.66-14.13a53.15,53.15,0,0,1,9.5-17.58c1.22-1.49,2.94-1.95,4.38-.79s.45,2.65-.48,3.89c-3.2,4.3-6.38,8.68-7.9,13.87-.91,3.11-2.29,6.15-2.22,9.53.09,4.46-.59,9.05.26,13.35,1.18,6,3.08,11.92,6.91,17a71.24,71.24,0,0,0,4.77,6,3.26,3.26,0,0,1,1.07,2.9c-.14.83-.28,1.68-1.22,2A2.13,2.13,0,0,1,29.8,139a48.83,48.83,0,0,1-9.47-12.87,66.94,66.94,0,0,1-4.55-12.7C14.87,110.16,15.48,106.85,15.34,103.58Z"/><path class="cls-1" d="M189,104c-.17,3.38-.13,6.79-.58,10.13a28,28,0,0,1-2,6.55c-2.35,5.81-5.24,11.33-9.59,16a9.41,9.41,0,0,1-1.62,1.5,2.25,2.25,0,0,1-2.78-.08,2.14,2.14,0,0,1-.61-2.69,6.22,6.22,0,0,1,1.26-2.11,35.31,35.31,0,0,0,8.51-13.73A42,42,0,0,0,184,100.4c-.49-3.91-.8-7.86-2.1-11.58a48.94,48.94,0,0,0-5.8-10.77c-.86-1.3-1.74-2.6-2.71-3.81-.8-1-1-1.94,0-2.83a2.26,2.26,0,0,1,3.33-.14,27.5,27.5,0,0,1,6.65,9.11,94.36,94.36,0,0,1,4.77,11.8c1,3.3.56,6.87.88,10.31,0,.49,0,1,0,1.49Z"/><path class="cls-1" d="M30.56,104.74C31,96.31,33.21,89,38.3,82.82c.73-.89,1.56-1.82,2.85-1.75,1.88.11,2.8,2.54,1.47,4.21-2.16,2.71-4.23,5.46-5.18,8.84-1.28,4.58-2.36,9.11-1.5,14.05A31.42,31.42,0,0,0,44,124.76a2.2,2.2,0,0,1,.61,2.49c-.51,1.11-1.64,1-2.61.94a4.2,4.2,0,0,1-2.76-1.49,27.78,27.78,0,0,1-5.07-7.57C31.72,114.5,30.94,109.39,30.56,104.74Z"/><path class="cls-1" d="M173.64,103.84c.27,6.41-1.86,11.52-4.29,16.6a29.91,29.91,0,0,1-4.57,6.35c-1,1.22-2.47,2.19-3.82.88a2.79,2.79,0,0,1,.16-4,27,27,0,0,0,7.22-14.3c.73-3.95,1-8.19-.73-12.38-1.14-2.77-1.73-5.79-3.48-8.32a35,35,0,0,0-2.63-3.27c-1-1.14-1.43-2.22-.09-3.4s2.62-1.25,3.87.14a29.71,29.71,0,0,1,6.4,11C172.81,96.8,174.47,100.45,173.64,103.84Z"/><path class="cls-1" d="M67.91,101.92q0-13.78,0-27.55c0-4.5,2.44-7.24,6.91-7.26Q98,67,121.24,67.1c5,0,7.76,3,7.77,8.2q0,23.08,0,46.17,0,3.72,0,7.45a8,8,0,0,1-1.1,4c-1.6,2.93-3.89,4.12-7.25,4.1-15.14-.1-30.28,0-45.42-.07-4.66,0-7.32-2.87-7.32-7.45q0-13.78,0-27.55Zm5-.31q0,13.4,0,26.81c0,3.17.34,3.65,3.54,3.66q21.84.11,43.68,0c3.05,0,4-1,4-4.11q0-25.69,0-51.38c0-4.25-.26-4.48-4.5-4.48-14.64,0-29.29.05-43.93,0-2.25,0-2.83.85-2.81,2.92C73,83.9,73,92.76,73,101.61Z"/></g></g><rect class="cls-2" x="2" y="2" width="200" height="200" rx="16.39" ry="16.39"/></g></g></svg>