<?xml version="1.0" encoding="utf-8"?>
<!-- Generator: Adobe Illustrator 21.0.0, SVG Export Plug-In . SVG Version: 6.00 Build 0)  -->
<svg version="1.1" id="Layer_1" xmlns="http://www.w3.org/2000/svg" xmlns:xlink="http://www.w3.org/1999/xlink" x="0px" y="0px"
	 viewBox="0 0 204 204" style="enable-background:new 0 0 204 204;" xml:space="preserve">
<style type="text/css">
	.st0{fill:#E67E22;}
	.st1{fill:none;stroke:#E67E22;stroke-width:4;stroke-miterlimit:10;}
</style>
<title>2D_3D</title>
<g id="Solutions">
	<g id="_2D_3D">
		<path class="st0" d="M101.7,24.5c25.4,0,50.8,0,76.2,0c6.7,0,7.4,0.6,7.4,7.1c0,38.4,0,76.8,0,115.3c0,7.1-0.5,7.6-7.4,7.6
			c-50.8,0-101.6-0.1-152.4,0.1c-5.5,0-6.8-1.9-6.8-6.9c0.1-38.8,0.1-77.6,0-116.4c0-5.1,1.4-7,6.9-6.9
			C50.9,24.6,76.3,24.5,101.7,24.5z M101.8,148.5c23.7,0,47.5-0.1,71.2,0.1c4.8,0,6.2-1.3,6.1-6.1c-0.2-35.5-0.2-70.9,0-106.4
			c0-4.6-1.4-5.9-5.9-5.8c-47.7,0.1-95.3,0.1-143,0c-4.4,0-6,1.1-5.9,5.8c0.2,35.5,0.2,70.9,0,106.4c0,5,1.5,6.2,6.2,6.1
			C54.3,148.4,78.1,148.5,101.8,148.5L101.8,148.5z"/>
		<path class="st0" d="M118.5,173.6c-19.2,0-38.4,0-57.5-0.1c-3.4,0-6.2,0.4-8.7,3.3c-3.1,3.5-8,3.8-10.7,0.7
			c-3.7-4.3-7.9-3.8-12.3-4c-2-0.1-4,0.1-6-0.1s-3.9-0.5-3.8-3s2.2-2.7,4-2.9c2-0.2,4-0.2,6-0.1c4.3,0,8.2,0.2,11.8-3.8
			c2.9-3.2,8-3.2,11.2,0.5c2.5,3,5.3,3.3,8.7,3.3c38.6-0.1,77.1-0.1,115.7,0c3,0,7.8-0.6,7.8,2.9c0.1,4.4-4.9,3.2-7.9,3.2
			C157.2,173.6,137.8,173.6,118.5,173.6z"/>
		<path class="st0" d="M85.3,66.4c0.6,0.3,1.2,0.7,1.8,1c10.3,6.1,20.6,12.2,30.8,18.4c4.9,3,4.9,4.4-0.2,7.4
			c-10.1,6-20.3,11.8-30.3,17.9c-4.1,2.4-5.8-0.2-5.8-3.2c-0.3-12.4-0.2-24.8-0.1-37.2C81.5,68.4,83.2,67.2,85.3,66.4z M112.2,89.5
			C104.6,85,97.9,80.9,91,76.9c-2.4-1.4-3.3-0.1-3.3,2.3c0,6.9,0,13.9,0,20.8c0,2.1,0.9,3.4,3,2.3C97.7,98.2,104.6,94,112.2,89.5z"
			/>
	</g>
</g>
<path class="st1" d="M18.4,2h167.2c9.1,0,16.4,7.3,16.4,16.4v167.2c0,9.1-7.3,16.4-16.4,16.4H18.4C9.3,202,2,194.7,2,185.6V18.4
	C2,9.3,9.3,2,18.4,2z"/>
</svg>
