<?xml version="1.0" encoding="utf-8"?>
<!-- Generator: Adobe Illustrator 21.0.0, SVG Export Plug-In . SVG Version: 6.00 Build 0)  -->
<svg version="1.1" id="Layer_1" xmlns="http://www.w3.org/2000/svg" xmlns:xlink="http://www.w3.org/1999/xlink" x="0px" y="0px"
	 viewBox="0 0 204 204" style="enable-background:new 0 0 204 204;" xml:space="preserve">
<style type="text/css">
	.st0{fill:#E67E22;}
	.st1{fill:none;stroke:#E67E22;stroke-width:4;stroke-miterlimit:10;}
</style>
<title>AI</title>
<g id="Solutions">
	<g id="AI">
		<path class="st0" d="M37.8,158.2c-4.4-14.3,3.5-26.4,16.4-37.1c5.5-4.6,9.8-9.2,17.9-8.3c4.6,0.5,7.6-2.8,7.6-8
			c-0.1-6.6,0.3-13.2-0.1-19.8c-0.3-4.8,1.3-8,5.4-10.4c3.7-2.2,6.5-4.4,3.7-9.9c-2.3-4.6,4.1-13,10.3-14.9c5.3-1.6,13,2.3,15.3,7.7
			c4.3,9.9-2.4,19.3-13.2,18.6S86.3,79.2,86.3,90c0,4.8,0,9.6,0,14.4c0,9.8-5.1,15.1-14.9,14.8c-4.3-0.1-7.6,0.7-10.3,4.3
			c-2.4,3.2-5.2,6.1-8.4,8.5c-7.2,5.1-8.7,12-8.2,20.3c0.6,10,0.2,20,0.1,30c0,1.9,0.3,4.6-2.4,4.7s-4.2-1.9-4.2-4.7
			C37.8,175.3,37.8,168.3,37.8,158.2z M102,69.2c4.5,0.6,6.6-2.3,6.7-5.8c0.3-3.7-2.4-7-6.2-7.3c0,0-0.1,0-0.1,0
			c-3.1-0.4-7.5,4.3-7,7.4C95.9,67,97.8,69.7,102,69.2L102,69.2z"/>
		<path class="st0" d="M149.8,37.7c3.6,14-2.7,24.2-12.6,33.1c-0.3,0.3-0.5,0.7-0.8,0.9c-11.6,8.7-15.5,20.4-13.3,34.4
			c0.2,2,0.2,4,0,6c-0.1,4.9-0.7,9.2,5.4,12.1c5.7,2.7,7.6,12.9,5.2,18.5c-2,4.7-9.4,9.4-14.6,9.1c-6.5-0.4-12.1-4.9-13.9-11.2
			c-2-7.4,0.1-14.1,7.1-17.8c3.9-2,4.4-4.4,4.1-7.9c0-0.2,0-0.4,0-0.6c0.1-10.4-2.6-21.9,1.2-30.8c4.1-9.7,13.9-17.2,21.7-25.2
			c2.8-2.6,4.2-6.2,4-10c-0.2-8-0.2-16,0-24c0-3.2-1.1-8.1,3.5-8.2s2.7,4.9,2.9,7.7C150,28.5,149.8,33.1,149.8,37.7z M119.6,127.8
			c-5.1,0-8.8,3.5-8.7,8.3c0,3.8,5.3,9.1,8.9,9.1c4,0,8.3-4.8,8.3-9.3C128.1,130.5,125.4,127.8,119.6,127.8z"/>
		<path class="st0" d="M105.6,102.7c0,3.6-0.3,7.2,0.1,10.8c0.7,4.6-1.2,9.3-5,12c-3.7,2.8-4.2,6.1-3.6,10.5
			c1.2,7.9-2.3,12.8-10,15.2c-5.3,1.6-11.7-1.4-15-7.1c-2.8-4.5-2.4-10.3,0.8-14.5c3.2-4.5,8-6.3,13.6-5.8c2.1,0.2,4,3.4,6.4,0.4
			c2.6-3.3,6.6-5.6,6.3-10.9c-0.4-8.2-0.1-16.4-0.1-24.5c0-2.4-0.2-5.4,3-5.6c3.6-0.1,3.5,3,3.5,5.7
			C105.6,93.5,105.6,98.1,105.6,102.7z M90.6,137.5c0.2-4.4-2.2-7.1-6.2-7.1s-6.9,2.5-7.1,7.1c-0.4,3.7,2.3,7,6,7.4
			c0.3,0,0.5,0,0.8,0C87.8,145,91.2,142.4,90.6,137.5L90.6,137.5z"/>
		<path class="st0" d="M164.8,161.2c0,7.2,0,14.4,0,21.6c0,2.6-0.3,5.2-3.4,5.3s-3.3-2.7-3.3-5.2c0.1-13.6-0.1-27.1,0.1-40.7
			c0-3.1-0.8-5.3-3.1-7.3c-4.3-3.6-8.4-7.3-12.6-11.1c-3-2.8-6.2-4.8-10.6-4.2c-1.8,0.2-4.4,0.4-4.3-2.7c0-2.7,1.9-3.6,4.4-3.9
			c5.2-0.6,9.8,0.5,13.7,4.3c5.5,5.2,11,10.3,16.7,15.4c1.8,1.6,2.7,4,2.5,6.4C164.7,146.4,164.8,153.8,164.8,161.2z"/>
		<path class="st0" d="M49,40.4c0-8.1,0-13.6,0-19.2c0-2.6,0.9-5.1,3.8-5.1c3.1,0,2.9,2.9,2.9,5c0.1,9.6,0.2,19.2,0,28.8
			c-0.3,3.4,1.1,6.7,3.6,9c4.8,4.5,9.2,9.4,13.9,13.9c2,1.9,3.2,4.2,1.4,6.2c-2.3,2.7-4.2-0.1-5.9-1.6c-2.2-2-4-4.5-6.4-6.3
			C51.5,62.5,45.4,52.2,49,40.4z"/>
		<path class="st0" d="M101.9,178.3c-8.8,1-13.3-6.7-13.3-12.8s4.4-13.3,13.8-13.5c6.9-0.1,12.9,5.7,13.5,13.3
			C116.4,172.8,110,178.3,101.9,178.3z M102.1,171.9c4.8,0.4,6.6-3,6.6-6.6c0-3.4-2-6.5-6.3-6.5c-3.5-0.3-6.7,2.3-7,5.9
			c0,0.2,0,0.5,0,0.7C95.4,168.9,97.3,172.3,102.1,171.9z"/>
		<path class="st0" d="M141,99.2c7-1.2,12.8,0.6,18.2,6c5.7,5.8,12.5,10.5,18.6,15.9c1.9,1.6,5.6,3.2,2.9,6.4
			c-2.4,2.8-5.1,0.7-7.3-1.1c-6.1-5.2-12.3-10.1-18.1-15.6c-3.7-3.6-7.6-5.4-12.7-4.9c-3.8,0.2-7.6,0.2-11.4,0
			c-2.3-0.1-3.8-1.3-3.8-3.7s1.9-2.8,3.7-2.9C134.5,99.1,137.7,99.2,141,99.2z"/>
		<path class="st0" d="M60.7,105.8c-5.3-1.3-10.3,1.5-14.9,6.3c-5.1,5.3-11.1,9.8-16.6,14.7c-2,1.7-4.2,3.2-6.2,0.7
			c-1.9-2.3,0.3-4.1,1.9-5.5c7.7-7,15.5-13.8,23.2-20.8c1.1-1.2,2.6-1.9,4.2-1.9c6.2-0.1,12.4-0.2,18.6-0.1c1.7,0,3.9,0.2,4,2.7
			s-1.8,3.7-3.8,3.9C68.2,106.1,65.2,105.8,60.7,105.8z"/>
		<path class="st0" d="M141,91.4c-3.8,0-6.4,0.1-9,0c-2.3-0.1-4.7-0.2-4.5-3.4c0.2-2.8,2.3-3.4,4.7-3.4c3,0,6-0.4,9,0.1
			c6,0.9,10.3-1.8,14.4-5.5c5.6-5,11.4-9.8,17.1-14.8c2.1-1.9,4.7-3.5,6.7-1s-0.4,4.1-2.4,5.7c-7.2,6.2-14.5,12.4-21.4,18.9
			C150.9,92.4,145.2,91.1,141,91.4z"/>
		<path class="st0" d="M60.9,91.4c-6.7,1.7-12.7-1.8-18.3-7.4S30.9,73.8,25,68.7c-1.7-1.5-3.9-3.3-2.1-5.4s4.3-1.2,6.3,0.6
			C35.9,69.6,42.8,75,49.2,81c4.6,4.3,9.9,3.2,15.1,3.6c3.8,0.3,10.3-2.1,10.2,3.7c0,5.4-6.4,2.2-9.8,3
			C63.4,91.5,62.2,91.5,60.9,91.4z"/>
	</g>
</g>
<path class="st1" d="M18.4,2h167.2c9.1,0,16.4,7.3,16.4,16.4v167.2c0,9.1-7.3,16.4-16.4,16.4H18.4C9.3,202,2,194.7,2,185.6V18.4
	C2,9.3,9.3,2,18.4,2z"/>
</svg>
