<?xml version="1.0" encoding="utf-8"?>
<!-- Generator: Adobe Illustrator 21.0.0, SVG Export Plug-In . SVG Version: 6.00 Build 0)  -->
<svg version="1.1" id="Layer_1" xmlns="http://www.w3.org/2000/svg" xmlns:xlink="http://www.w3.org/1999/xlink" x="0px" y="0px"
	 viewBox="0 0 204 204" style="enable-background:new 0 0 204 204;" xml:space="preserve">
<style type="text/css">
	.st0{fill:#E67E22;}
	.st1{fill:none;stroke:#E67E22;stroke-width:4;stroke-miterlimit:10;}
</style>
<title>AssetTracking</title>
<g id="Layer_1-2">
	<g id="Products">
		<g id="AssetTracking">
			<path class="st0" d="M17.7,112.8c0-18.7,0-37.5,0-56.2c0-1.6,0.6-3.1,1.8-4.1c6.9-6.7,13.9-13.3,20.8-20.1
				c1.5-1.5,3.5-2.4,5.6-2.3c21.7,0,43.3,0,65,0c1.7,0,3.4,0.7,4.5,2c6.9,7,13.9,13.8,20.9,20.7c1.2,1,1.8,2.5,1.8,4
				c-0.1,4.9,0,9.8,0,14.7c0,0.7-0.1,1.4-0.3,2.2c-0.2,1.3-1.5,2.2-2.8,2c0,0,0,0,0,0c-1.5-0.2-1.9-1.3-1.9-2.6
				c0-3.6-0.1-7.3,0-10.9c0.1-2.5-1.1-3.4-3.5-3.4c-9,0-18,0-27,0c-3.5,0-3.9,0.4-3.9,4c-0.1,5-0.1,10,0,15c0,2.6-1,3.6-3.6,3.5
				c-10.9-0.1-21.8,0-32.8,0c-3.1,0-3.7-0.5-3.7-3.6c0-5.3-0.1-10.6,0-15.8c0-2.3-0.9-3.1-3.1-3c-9.6,0.1-19.1,0.1-28.7,0
				c-2.4,0-3.5,0.9-3.4,3.4c0,10.1,0,20.2,0,30.3c0,24,0,48,0,72.1c0,3,0.6,3.8,3.6,3.8c9.6,0,19.3,0,28.9,0c2.1,0,2.6-1.2,2.6-3
				c0-5.5,0-10.9,0.1-16.4c0-3.6,0.5-4,4.2-4c10.6,0,21.1,0,31.7,0c3.8,0,4.2,0.4,4.2,4.3c0,5,0,10,0,15c0,3.6,0.3,4,3.8,4
				c9.2,0.1,18.4,0,27.6,0.1c2,0,3.1-0.8,3-2.9c0-3.4,0-6.7,0.1-10.1c0-1.4,0.2-2.8,2.1-2.9c1.4-0.1,2.7,0.9,2.8,2.3
				c0,0.1,0,0.3,0,0.4c0.1,5.2,0.2,10.4,0,15.6c-0.1,1.8-1.7,3.2-3.5,3.2c-0.8,0.1-1.6,0-2.5,0H23.6c-4.9,0-5.7-0.9-5.7-5.7
				c0-18.5,0-36.9,0-55.4L17.7,112.8z M78.3,150.2L78.3,150.2c-3.9,0-7.8,0.1-11.7,0c-2-0.1-2.8,0.7-2.8,2.7c0.1,4.3,0.1,8.5,0,12.8
				c0,1.9,0.7,2.7,2.5,2.7c8,0,16,0,24,0c2.1,0,2.9-0.9,2.9-3c-0.1-4-0.1-8,0-12c0.1-2.4-1-3.2-3.3-3.2
				C86.1,150.3,82.2,150.2,78.3,150.2z M78.3,76L78.3,76c4,0,8,0,12,0c2,0,3-0.7,3-2.9c-0.1-3.7-0.1-7.4,0-11.2
				c0.1-2.3-1.1-3.1-3.2-3.1c-7.8,0-15.6,0-23.4,0c-1.9,0-2.8,0.7-2.8,2.7c0.1,3.9,0.1,7.8,0,11.7c0,2,0.8,2.7,2.7,2.7
				C70.5,75.9,74.4,76,78.3,76L78.3,76z M78.6,52.3L78.6,52.3c3.9,0,7.8,0,11.7,0c2.5,0,3.3-0.9,2.3-3.2c-1.1-3-1.7-6.1-1.6-9.3
				c0-3-1.5-4.3-4.4-4.3c-5.4,0-10.7,0.1-16.1,0c-2,0-3,0.7-3.8,2.6c-1.7,3.9-0.7,8.3-2.4,12.3c-0.7,1.6,1,1.8,2.2,1.8
				C70.6,52.3,74.6,52.3,78.6,52.3L78.6,52.3z M43.7,52.3h9.5c5.4,0,6.3-0.8,7.1-6.2c0.1-1.3,0.2-2.5,0.2-3.8
				c-0.1-1.5,0.2-2.9,0.8-4.2c1-1.9-0.1-2.5-1.8-2.5c-4.2,0-8.3,0-12.5,0.1c-1.3,0-2.5,0.5-3.4,1.4c-4.4,4.2-8.4,8.8-13.1,12.6
				c-0.6,0.5-1.3,1.2-0.9,2.1s1.2,0.6,1.9,0.7C35.5,52.3,39.6,52.3,43.7,52.3L43.7,52.3z M112.9,52.3L112.9,52.3c3.8,0,7.6,0,11.4,0
				c0.9,0,2,0.3,2.4-0.8c0.3-0.8-0.6-1.5-1.1-2c-4.3-4.2-8.6-8.3-12.9-12.5c-0.9-0.9-2.1-1.5-3.4-1.5c-3.4,0-6.9,0-10.4-0.1
				c-1.9,0-2.7,0.8-2.6,2.8c0.1,3.9,0.7,7.7,1.8,11.4c0.6,1.8,1.2,2.6,3.1,2.5C105.1,52.3,109,52.3,112.9,52.3L112.9,52.3z"/>
			<path class="st0" d="M164.7,113.2c-0.4,7.2-2.1,13.6-6.1,19.3c-1.4,2-0.9,3,1.5,3.2c1.6,0.1,3.2,0.9,4.3,2.1
				c6.8,6.8,13.6,13.6,20.5,20.4c1.8,1.8,2,3.2,0.1,5c-6.3,5.9-4.7,6.5-10.9,0.1c-5.7-5.9-11.5-11.6-17.3-17.4
				c-1.4-1.2-2.2-2.9-2.4-4.7c-0.1-2.2-1.3-2.7-3.1-1.4c-8.7,6.4-18.5,7.1-28.4,4.9c-5.7-1.4-10.8-4.5-14.7-8.8
				c-3.3-3.6-6.2-7.5-7.2-12.2s-2.3-9.6-1.2-14.7s2.2-10.1,5.3-14.3c3.5-5.1,8.4-9.1,14.2-11.4c7-2.7,14.6-3.1,21.9-1.3
				c8.2,1.9,14.6,7.1,19,14.7C163.2,101.9,164.1,107.7,164.7,113.2z M132,135.7c12.1,0.3,22.2-9.2,22.5-21.4c0-0.3,0-0.6,0-0.9
				c-0.1-13.7-9.3-22.8-22.2-22.7c-14.8,0.2-22.3,9.2-22.6,22.3C109.5,125.5,117.4,135,132,135.7z"/>
		</g>
	</g>
	<path class="st1" d="M18.4,2h167.2c9.1,0,16.4,7.3,16.4,16.4v167.2c0,9.1-7.3,16.4-16.4,16.4H18.4C9.3,202,2,194.7,2,185.6V18.4
		C2,9.3,9.3,2,18.4,2z"/>
</g>
</svg>
