<?xml version="1.0" encoding="utf-8"?>
<!-- Generator: Adobe Illustrator 21.0.0, SVG Export Plug-In . SVG Version: 6.00 Build 0)  -->
<svg version="1.1" id="Layer_1" xmlns="http://www.w3.org/2000/svg" xmlns:xlink="http://www.w3.org/1999/xlink" x="0px" y="0px"
	 viewBox="0 0 204 204" style="enable-background:new 0 0 204 204;" xml:space="preserve">
<style type="text/css">
	.st0{fill:#E67E22;}
	.st1{fill:none;stroke:#E67E22;stroke-width:4;stroke-miterlimit:10;}
</style>
<title>Beacon</title>
<g id="Layer_1-2">
	<g id="Solutions">
		<g id="Beacon">
			<path class="st0" d="M102.2,185.1c-15.9-0.3-31.9-0.9-47.6-3.8c-9.9-1.8-20-4.2-29-9.6c-4.8-2.9-8.8-6.1-8.8-11.8
				c0-6,4.6-9.5,9.4-12.1c8.5-4.5,17.6-6.7,27-8.6c7.9-1.6,16-1.6,23.9-3.6c1.9-0.3,3.8-0.4,5.8-0.4c2.2-0.1,3.9,1,4.2,3.1
				c0.4,2.6-1.8,3.2-3.8,3.3c-10.7,0.6-21.4,2-31.9,4.3c-8.2,1.6-16.3,4-23.6,8.3c-6.1,3.7-6.1,7.1-0.2,11.1
				c6.9,4.7,14.8,6.4,22.8,8.3c18.1,4.2,36.5,5.6,54.8,5.4c17.6-0.2,35.3-1.8,52.4-5.9c6.9-1.7,14-3.6,19.8-8.4
				c4.3-3.7,4.4-7.2-0.5-10c-7.8-4.4-16.4-7.3-25.2-8.8c-10.8-2-21.5-3.8-32.5-4.2c-2-0.1-3.5-1.1-3.4-3.1c0.1-2.2,1.7-3.3,4-3.2
				c2.5,0.1,5,0.1,7.5,0.5c15.6,2.4,31.5,3.5,46.3,9.9c3.7,1.5,7.1,3.7,10,6.5c5,5.1,4.6,12.5-1,17c-6.9,5.6-15.2,8.1-23.4,10.1
				C140.5,183.7,121.4,184.6,102.2,185.1z"/>
			<path class="st0" d="M101.6,158.5c-13,0-13.1,0-11-12.9c1.9-11.2,2-22.6,2.6-33.9c0.9-15.3,3.8-30.5,3.1-45.9
				c0-1.5,0.3-3.1,0.8-4.5c0.6-2.6,1.6-4.9,4.9-4.5s4.7,2.3,4.6,5.5c-0.3,5.6,1,11.1,1.5,16.6c1.1,12.4,1.2,25,2.9,37.3
				c1.4,11.1,1.1,22.3,3,33.2c1.3,7.9,0.7,8.9-7.1,8.9L101.6,158.5z"/>
			<path class="st0" d="M56.2,19c1.6,0.1,2.8,0.2,3.4,1.4s0,2.2-0.8,3.1C53,30.3,48.8,38.4,46.5,47.1c-2.2,9.2-2.3,18.8-0.2,28
				c2.3,9.9,7.3,19,14.6,26.1c1.7,1.7,1.9,3.2,0.3,4.9c-2,2.1-3.4,0.7-4.8-0.7c-12.6-12.7-17.9-28-17.6-45.7
				c0-12.3,3.8-24.3,10.8-34.5C51.3,22.6,53.1,19.7,56.2,19z"/>
			<path class="st0" d="M165.1,60.9c-1,15.8-5.3,29.8-15.5,41.6c-1.8,2.1-4,4.7-6.6,2.3c-2.2-2-0.3-4.6,1.5-6.5
				c9.4-10.2,13.8-22.6,14.1-36.1c0.4-12.9-3.9-25.6-12-35.7c-1.7-2.1-4.2-4.7-1.4-6.9s4.6,0.8,6.4,2.9
				C161,33.9,164,47.3,165.1,60.9z"/>
			<path class="st0" d="M144.6,61.1c0.6,11.7-3.4,21.2-10.7,29.3c-1.4,1.5-3,3.8-5.2,1.7c-2-1.9-1-3.9,0.7-6
				c11.5-14.2,12.2-31.2,2-46c-0.3-0.3-0.5-0.6-0.7-0.9c-1-2.1-3.6-4.3-0.6-6.5c3.4-2.5,4.8,1,6.2,2.9
				C141.5,43.5,145.5,51.9,144.6,61.1z"/>
			<path class="st0" d="M57.9,62.1c0.8-10.5,3.8-19.8,10.2-27.8c1.4-1.8,2.9-3.4,5.2-1.6c2.1,1.7,1.7,3.6,0.1,5.5
				c-3.3,4-5.7,8.6-7.1,13.5C61.9,65,66.2,76,74,86.4c1.3,1.7,4.2,3.2,1.6,5.7s-4.6,0.3-6.3-1.6C61.8,82.4,59.1,72.4,57.9,62.1z"/>
			<path class="st0" d="M77.4,62.1c1.8-5.1,1.5-10.8,6-14.8c1.5-1.3,2.7-2.8,4.9-1c1.9,1.7,1.5,3,0,4.9C82.8,58.3,83.1,65.8,88,73
				c1.6,2.3,2.9,4.7,0.4,6.5c-2.6,1.9-3.9-1.2-5.4-2.7C78.9,72.8,79.2,67,77.4,62.1z"/>
			<path class="st0" d="M125.5,60.9c0.2,6.3-2.1,12.4-6.3,17.1c-1.2,1.4-2.6,2.3-4.4,0.8s-2-3-0.4-4.9c6.1-7.2,6.6-14.7,0.8-22.4
				c-1.4-1.8-1.6-4.1,0.6-5.6s3.7,0.5,4.7,2C123.5,52.2,125.7,56.9,125.5,60.9z"/>
		</g>
	</g>
	<path class="st1" d="M18.4,2h167.2c9.1,0,16.4,7.3,16.4,16.4v167.2c0,9.1-7.3,16.4-16.4,16.4H18.4C9.3,202,2,194.7,2,185.6V18.4
		C2,9.3,9.3,2,18.4,2z"/>
</g>
</svg>
