<?xml version="1.0" encoding="utf-8"?>
<!-- Generator: Adobe Illustrator 21.0.0, SVG Export Plug-In . SVG Version: 6.00 Build 0)  -->
<svg version="1.1" id="Layer_1" xmlns="http://www.w3.org/2000/svg" xmlns:xlink="http://www.w3.org/1999/xlink" x="0px" y="0px"
	 viewBox="0 0 204 204" style="enable-background:new 0 0 204 204;" xml:space="preserve">
<style type="text/css">
	.st0{fill:#E67E22;}
	.st1{fill:none;stroke:#E67E22;stroke-width:4;stroke-miterlimit:10;}
</style>
<title>ChatBot</title>
<g id="Layer_2">
	<g id="Layer_1-2">
		<g id="Solutions">
			<g id="ChatBot">
				<path class="st0" d="M72,176.4c-12.2,0-24.5,0-36.7,0c-10.5,0-15.5-5.1-15.6-15.6c0-5.7,0.2-11.3,0-17c-0.2-6.2,1-12.3-3.6-18.2
					c-2.2-2.8-0.6-8.5-0.8-12.9s-0.4-8.6,5-10.4c1.2-0.4,1-2.1,1.1-3.4c0-2.5,0-5,0-7.4C21.6,81.3,27.7,75.2,38,75
					c9-0.1,18.1-0.2,27.1,0c3.8,0.1,5-1.3,4.9-4.9c-0.2-4.6-0.2-9.2,0-13.8c0.4-3-0.9-6-3.3-7.7C62.1,45,62,38,65.8,34
					s11.5-3.9,14.8-0.3c3.9,4.3,3.8,11.7-1,15c-3.3,2.3-4.1,4.8-3.8,8.4c0.3,3.9,0.3,7.8,0,11.7c-0.4,4.5,1.1,6.5,5.9,6.2
					c5.8-0.4,11.7-0.2,17.5,0c2.2,0,5.3-0.2,5.3,2.9c-0.1,3-3,3-5.3,3c-19.8,0-39.7,0-59.5,0c-9.4,0-12.5,3-12.5,12.3c0,3-0.1,6,0,9
					c0.1,2.7-0.1,4.9-3.5,5.3c-1.1,0.1-2.3,1-2.2,2c0.6,5.6-3.2,12,2.9,16.7c1.8,1.4,1.5,3.4,1.5,5.4c0,9.7,0,19.5,0,29.2
					c0,7.3,2.2,9.6,9.4,9.6c24.4,0,48.9,0,73.3,0c7.2,0,9.4-2.4,9.4-9.6c0-10.1,0.1-20.2,0-30.3c-0.1-3.8,0.4-6.6,5.3-6.3
					c3.5,0.2,2.2-2.8,2.6-4.7c0.6-2.3-1.8-6.3,2.1-6.4c3.7-0.1,3.3,3.8,3.3,6.6c0.1,4.8-0.1,9.3-6.2,10.6c-2,0.4-1.3,2.7-1.3,4.1
					c-0.1,9.2,0,18.4,0,27.6c0,8.8-5.2,14.1-14.1,14.1C97.2,176.5,84.6,176.4,72,176.4z M77.3,40.8c-0.2-3.1-2.2-3.8-4.8-3.7
					c-2.8,0-3.6,1.9-3.4,4.2s1.2,3.9,4,3.7S77.2,43.5,77.3,40.8L77.3,40.8z"/>
				<path class="st0" d="M149.1,27.6c11.2,0,22.3,0.2,33.5-0.1c4.5-0.1,6.4,1.5,6.4,6.1c-0.1,16.8-0.1,33.7,0,50.5
					c0,4-1.4,5.7-5.6,5.6c-11.5-0.2-23,0-34.5-0.1c-2.8-0.2-5.5,0.8-7.5,2.8c-4.8,4.7-9.9,9.1-14.9,13.6c-1.3,1.1-2.5,2.6-4.6,1.5
					s-1.9-2.8-1.8-4.6c0-1.6,0-3.2,0-4.8c0-7.3,0-7.4-7.3-8.4c-2.9-0.4-3.9-2.3-3.9-4.8c-0.1-17.3-0.1-34.7,0-52.1
					c0-3.6,2-5.3,5.8-5.2C126.1,27.7,137.6,27.6,149.1,27.6z M149.1,33.3c-9.9,0-19.8,0.1-29.7-0.1c-3.7-0.1-4.9,1.3-4.8,4.9
					c0.2,13.4,0.2,26.9,0,40.3c-0.1,4.2,1.2,6,5.4,5.4c4.7-0.6,6.5,1.7,6,6.2c-0.2,1.4,0,2.8,0,4.2c0,2.6,0.8,3.4,3,1.5
					c2.6-2.3,5.6-4.4,7.9-7.1c3.4-4,7.5-5.1,12.6-4.9c9.7,0.3,19.5,0,29.2,0.1c3.6,0.1,5-1.1,4.9-4.9c-0.2-13.8-0.2-27.6,0-41.4
					c0-3.6-1.3-4.5-4.6-4.5C169,33.4,159.1,33.3,149.1,33.3z"/>
				<path class="st0" d="M104.6,111.6c1.1,6.6-6.7,13.6-13.3,13c-7.4-0.7-12.4-5.4-12.5-13.3c-0.1-7.2,5.8-13.7,12.7-13.3
					C98.8,98.5,105.5,104,104.6,111.6z M91.7,118.6c4.3,0,7-3,6.9-7.5c0.1-3.8-2.9-6.9-6.7-7c-0.1,0-0.2,0-0.3,0
					c-3.9,0.2-7,3.3-7.1,7.2C84.4,115.7,87.2,118.6,91.7,118.6L91.7,118.6z"/>
				<path class="st0" d="M54.3,124.4c-6.9,0-13.2-6.2-13.4-13s6.9-14,13.7-13.4c8.2,0.7,13.3,7.1,13.1,13.3
					C67.5,118.9,62,124.5,54.3,124.4z M62,111.2c-0.3-4-3.7-7.1-7.7-7.1c-3.6,0.2-7.3,3.8-7.3,7.2c0.1,4.1,3.5,7.2,7.6,7.2
					C58.5,118.5,62,115,62,111.2z"/>
				<path class="st0" d="M73.1,154c-7.3,0.1-13.7-5.9-13.1-12.3c0.1-1.7,0.4-3.3,2.5-3.5s2.9,1,3.2,2.8c0.6,4.3,2.8,6.6,7.2,6.9
					c4.8,0.4,6.3-3,7.9-6.5c0.7-1.6,0.7-4.5,3.6-3.1c2.3,1.1,2.8,2.9,1.6,5.7C83,150.9,79.5,153.9,73.1,154z"/>
			</g>
		</g>
		<path class="st1" d="M18.4,2h167.2c9.1,0,16.4,7.3,16.4,16.4v167.2c0,9.1-7.3,16.4-16.4,16.4H18.4C9.3,202,2,194.7,2,185.6V18.4
			C2,9.3,9.3,2,18.4,2z"/>
	</g>
</g>
</svg>
