<?xml version="1.0" encoding="utf-8"?>
<!-- Generator: Adobe Illustrator 21.0.0, SVG Export Plug-In . SVG Version: 6.00 Build 0)  -->
<svg version="1.1" id="Layer_1" xmlns="http://www.w3.org/2000/svg" xmlns:xlink="http://www.w3.org/1999/xlink" x="0px" y="0px"
	 viewBox="0 0 204 204" style="enable-background:new 0 0 204 204;" xml:space="preserve">
<style type="text/css">
	.st0{fill:#E67E22;}
	.st1{fill:none;stroke:#E67E22;stroke-width:4;stroke-miterlimit:10;}
</style>
<title>ConnectedShopping</title>
<g id="Products">
	<g id="ConnetedShopping">
		<path class="st0" d="M88.6,49.4H156c1,0,2,0,3,0c1.2,0,2.5,0.2,2.6,1.8c0.2,1.4-0.7,2.7-2.1,3c-1.1,0.2-2.2,0.2-3.3,0.2H25.5h-2.3
			c-1.8,0-2.2,0.6-1.8,2.5c1.3,5.4,3,10.6,4.4,16c1.3,4.9,2.6,9.9,4.1,14.7c0.9,3,2.3,6,2.5,9.4c0.1,2.1,1.1,4.2,1.7,6.3
			c1.4,4.9,2.4,9.9,4.4,14.7c0.2,0.5,0.4,1.1,0.4,1.7c0.7,5.1,1.2,5.5,6.2,5.5h84.4c5.2,0,6.4-1.1,7.1-6.4
			c1.1-7.7,2.7-15.3,4.8-22.8c0.6-2.4,0-3.4-2.4-3.4c-10.6,0-21.3,0-31.9,0c-1.7,0-2.2,0.9-2.3,2.4c-0.3,4.6-2.8,7.7-6.8,9.9
			c-4.3,2.3-9,3.2-13.9,3.9c-5.2,0.7-10.6,0.7-15.8-0.1c-7.3-1.1-16-8.9-15.9-17.2c0-7.5,2.4-13.1,8.7-17c2.4-1.5,4.9-2.9,7.9-3
			c2.3,0,4.3-1.4,6.7-1.2c6.4,0.6,12.8,1.1,18.8,3.2c4.2,1.5,8,3.9,9.8,8.5c0.3,0.9,0.5,1.8,0.5,2.7c-0.1,2.3,1,3,3.3,3
			c11.3-0.1,22.6-0.1,34-0.1c1,0,2,0.1,3,0.2c1.2,0.1,2.1,1.1,2,2.4c0,0,0,0.1,0,0.1c-0.4,2.6-0.1,5.3-1.3,7.7
			c-1.3,2.6-1,5.6-1.6,8.4c-0.9,3.6-2,7.3-2.3,11c-0.3,3.6-1.9,6.8-2.4,10.3c-0.3,2.2-2.4,2.7-4.6,2.6c-11.7-0.1-23.3,0-35-0.1H41.6
			c-4.6,0-4.9-0.4-6.2-4.7c-1.2-4-2-8.1-3.3-12.1c-1.6-4.8-2.8-9.8-4.3-14.6c-0.9-2.9-1.6-6-2.4-8.9S24.3,84,23,81.2
			c-1.1-2.4-1.5-5.1-2.3-7.7c-1.8-5.8-2.9-11.8-4.8-17.6c-1.8-5.5-0.9-6.6,4.8-6.6L88.6,49.4L88.6,49.4z M93.6,87.6
			c1.5,0,2.6,0,3.7,0c1.7,0,2.6-0.9,2.4-2.6c-0.1-2.1-1.3-4.1-3.1-5.2c-2.7-1.6-5.8-2.7-9-3c-5.8-0.4-11.4-2-17.5-0.6
			c-6.3,1.5-13.5,6.2-12.8,15.1c0.2,4.2,2.6,8,6.3,10c5.5,3,11.9,4,18.1,2.7c3.8-0.6,7.6-1.3,11.3-2.4c2.6-0.8,5.2-1.9,6.4-4.8
			c1.1-2.7,0.2-4.4-2.7-4.3c-3.2,0-6.4,0.1-9.6,0.5c-2.1,0.3-4.2,0.3-6.3,0c-1.7,0-3.1-1.2-3.4-2.9c-0.3-1.8,1.4-2.4,2.4-3.2
			c0.6-0.4,1.6-0.3,2.4-0.4C86.2,86,90,87.9,93.6,87.6z"/>
		<path class="st0" d="M90.3,137.2h48.2c3.6,0,4.7-1.3,5.2-4.8c0.5-3,1.2-5.9,2-8.8c1-3.6,2.2-7.2,3.1-10.8c0.6-2.6,1.5-5.1,2.1-7.7
			c0.9-3.5,1.6-7,2.8-10.4c1.1-3.1,1.2-6.4,2.9-9.3c1.1-2,1-4.5,1.7-6.8c0.8-2.8,1.4-5.7,2.2-8.5c1-3.2,1.1-6.6,2.8-9.6
			c1.1-2,1.2-4.5,1.8-6.8c0.9-2.7,1.6-5.5,2.1-8.3c0.3-2.5,1.5-4.9,1.9-7.5c0.3-1.8,2-2.4,3.7-2.5c4.5-0.1,9-0.1,13.4,0
			c1.5,0,2.7,0.5,2.7,2.3c0.2,1.3-0.8,2.6-2.2,2.7c-0.2,0-0.3,0-0.5,0c-2.7,0-5.4,0-8.1,0c-4.1,0-5.1,1-6,5.1
			c-0.8,3.8-1.8,7.6-3.2,11.3c-0.7,2.2-1.3,4.5-1.6,6.8c-1.1,5.1-2.4,10.1-4,15c-1.6,4.9-2.7,10-4.1,14.9c-1,3-1.8,6-2.4,9
			c-0.5,2.9-1.7,5.8-2.4,8.7c-0.9,3.2-1.5,6.5-2.6,9.7s-1.4,6.6-2.7,9.9c-1.1,2.6-1.8,5.4-2.3,8.2c-0.4,2.3-1.5,3-3.5,3.1
			c-0.8,0-1.5,0-2.3,0c-33.2,0-66.4,0-99.6,0c-1.7,0-3.8,0.2-3.8-2.2s2-2.9,4-2.9L90.3,137.2L90.3,137.2z"/>
		<path class="st0" d="M69.4,158.2c0.8,6-5.2,10.1-10.5,10.2c-4.8,0.1-9.9-4.8-9.9-9c0.1-7,4.3-12.2,10.1-11.9
			C63.8,147.7,70.4,151.7,69.4,158.2z M54.2,158c0,2.7,2.7,5.6,5.1,5.6s4.9-2.8,4.9-5.5s-2.4-5.7-5-5.7
			C57.1,152.4,54.3,155.5,54.2,158z"/>
		<path class="st0" d="M111.9,157.9c0.2,7.7-4.7,10.2-10,10.4c-5.7,0.3-10.6-4.9-10.5-10.4c0.1-5.8,5.7-10.3,10.4-10.5
			C107.1,147.3,111.9,152.4,111.9,157.9z M107,157.9c0-2.7-2.7-5.5-5.2-5.4c-2,0-5.5,3.5-5.5,5.5c0,2.4,3.2,5.6,5.6,5.6
			C104.8,163.4,107.1,160.8,107,157.9L107,157.9z"/>
	</g>
</g>
<path class="st1" d="M18.4,2h167.2c9.1,0,16.4,7.3,16.4,16.4v167.2c0,9.1-7.3,16.4-16.4,16.4H18.4C9.3,202,2,194.7,2,185.6V18.4
	C2,9.3,9.3,2,18.4,2z"/>
</svg>
