<?xml version="1.0" encoding="utf-8"?>
<!-- Generator: Adobe Illustrator 21.0.0, SVG Export Plug-In . SVG Version: 6.00 Build 0)  -->
<svg version="1.1" id="Layer_1" xmlns="http://www.w3.org/2000/svg" xmlns:xlink="http://www.w3.org/1999/xlink" x="0px" y="0px"
	 viewBox="0 0 204 204" style="enable-background:new 0 0 204 204;" xml:space="preserve">
<style type="text/css">
	.st0{fill:#E67E22;}
	.st1{fill:none;stroke:#E67E22;stroke-width:4;stroke-miterlimit:10;}
</style>
<title>DigitalSignage</title>
<g id="Solutions">
	<g id="DigitalSignage">
		<path class="st0" d="M75.9,30c13.8,0,27.7,0.2,41.5-0.1c4.8-0.1,7.2,1,9.1,6c5.5,14.8,11.8,29.3,18.1,43.8c1.6,3.8,0.9,7.5,1,11.3
			c0,1.8-1.1,2.7-2.9,2.8c-1.5,0.1-2.3-0.7-2.2-2c1-11.4-6-20.3-9.4-30.3c-2.6-7.6-6.1-14.9-9.1-22.3c-1.1-2.7-2.6-3.7-5.6-3.7
			c-26,0.1-52,0.2-78,0c-4.8,0-4.3,2.1-3,5.1c4.6,10.9,9.3,21.7,13.8,32.6c1.1,2.8,1.6,5.8,1.6,8.8c-0.1,25.3,0,50.7-0.2,76
			c0,4.5,1.4,5.6,5.7,5.6c17.3-0.2,34.7-0.1,52-0.1c1.5-0.1,3,0.1,4.4,0.4c1.4,0.3,2.4,1.5,2.3,2.9c-0.1,1.7-1.3,2.2-2.7,2.4
			c-1.2,0.1-2.3,0.1-3.5,0.1c-19.8,0.1-39.7,0.4-59.5,0.1c-6.3-0.1-12-3.5-17.9-5.5c-2.6-0.9-2.1-3.4-2.1-5.5
			c0-22.3-0.4-44.7,0.2-67c0.3-9.9-1.8-19.7-6.2-28.6c-1.6-3.4-2.9-7-4.7-10.3c-2.5-4.5-1.6-8.3,1.7-12c2.2-2.5,4.2-5.1,6.1-7.8
			c1.4-2,3.3-2.4,5.6-2.4C46.6,30.1,61.3,30,75.9,30z M28.8,39.1c-6.4,6.2-6.5,6.7-3.4,14.2c1.1,2.7,2.2,5.5,3.4,8.2
			c4.4,9,6.5,19,6.1,29c-0.6,20.9-0.2,41.9-0.2,62.9c-0.1,1-0.1,2,0,3c0.7,5,5.2,4.7,8.4,5.1c3.5,0.4,1.8-3.1,1.9-4.8
			c0.1-21-0.2-41.9,0.2-62.9c0.2-9.9-0.8-19.3-5.2-28.4C35.8,57,32.5,48,28.8,39.1z"/>
		<path class="st0" d="M149.2,174c-22.3,0.6-37.7-17.8-37.6-36.9c0.2-20.8,14.1-37,36.7-37.8c22.4-0.7,38.1,16,38.4,37.4
			C187.2,157,170.2,175,149.2,174z M149,168.4c18.7,1.1,32.7-14.6,32.4-31.6c-0.3-19.3-15.4-32.2-31.9-32
			c-19.8,0.3-32,14.5-32.2,32.2C117.2,153.7,130.4,169,149,168.4L149,168.4z"/>
		<path class="st0" d="M83.6,44.6c8.7,0,17.3,0.1,26,0c2.8,0,4.7,0.2,5.9,3.7c3.7,10.8,8,21.4,12,32.1c1.4,3.7-0.3,6-4.6,6
			c-17.5,0.1-35-0.1-52.5,0.1c-3.7,0-5.2-2-6.1-4.6c-4-10.4-7.8-20.8-11.6-31.3c-1.9-5.1-1.2-6,4.4-6C65.9,44.6,74.8,44.6,83.6,44.6
			z M84.4,50c-7,0-14,0.1-21,0c-3.7-0.1-5.6,0-3.5,4.7c3.4,7.6,6.3,15.4,9,23.3c0.9,2.7,2.3,3.1,4.7,3.1c14.3-0.1,28.6-0.2,42.9,0
			c4.3,0.1,4.9-1.6,3.5-5c-2.7-6.3-5-12.7-7-19.3c-1.4-4.8-3.6-7.7-9.6-6.9C97.1,50.6,90.7,50,84.4,50z"/>
		<path class="st0" d="M155.1,148.8c-1.5,3.8-4.4,5.3-7.1,6.6c-2.4,1.1-4.4,0.4-4.4-3.2c0.2-4.4,1.2-8.8,2.7-13
			c1.5-4.5,0.4-4.4-3-3.6c-0.1-0.7-0.3-1.2-0.1-1.3c3.1-2.1,6.3-6.8,9.8-4.6s-0.4,6.8-0.8,10.3c-0.2,1.9-0.9,3.8-1.2,5.8
			c-0.2,1.2-1.9,2.3-0.7,3.6C151.8,151,152.9,148.8,155.1,148.8z"/>
		<path class="st0" d="M152.2,124.7c-2.2,0.3-2.7-1.1-2.7-3c0-2.3,0.9-4,3.3-4.2c1.6-0.2,3,0.9,3.2,2.4c0,0.3,0,0.7,0,1
			C155.8,122.8,155.1,125,152.2,124.7z"/>
	</g>
</g>
<path class="st1" d="M18.4,2h167.2c9.1,0,16.4,7.3,16.4,16.4v167.2c0,9.1-7.3,16.4-16.4,16.4H18.4C9.3,202,2,194.7,2,185.6V18.4
	C2,9.3,9.3,2,18.4,2z"/>
</svg>
