<?xml version="1.0" encoding="utf-8"?>
<!-- Generator: Adobe Illustrator 21.0.0, SVG Export Plug-In . SVG Version: 6.00 Build 0)  -->
<svg version="1.1" id="Layer_1" xmlns="http://www.w3.org/2000/svg" xmlns:xlink="http://www.w3.org/1999/xlink" x="0px" y="0px"
	 viewBox="0 0 204 204" style="enable-background:new 0 0 204 204;" xml:space="preserve">
<style type="text/css">
	.st0{fill:#E67E22;}
	.st1{fill:none;stroke:#E67E22;stroke-width:4;stroke-miterlimit:10;}
</style>
<title>Immersive</title>
<g id="Solutions">
	<g id="ImmersiveAR_VR">
		<path class="st0" d="M110.6,118.4c-7.2-0.7-16,0.8-24.9-1.1c-7.4-1.6-14-4.7-18.4-10.4c-3.8-4.9-7.9-6.1-13.4-5.5
			c-1.8,0.2-3.6,0.2-5.4,0c-3.8-0.4-5.5,0.7-5,5c1.1,9.1,1.9,18.2,4.2,27.2c1.5,5.8,1.4,11.9,2,17.8c1,10.2,3.2,20.3,2.9,30.6
			c-0.1,2.3,0,5-3,4.9c-2.2-0.1-3.7-2.1-3.8-4.7c-0.1-15.1-3-30-4.5-44.9c-1-10.7-3.8-21.2-4.4-31.9c-0.1-2.3-1.1-3.7-3.6-4
			c-4.1-0.4-5.1-3.2-4.9-6.9s0.2-7.7,0-11.5c-0.2-3.6,0.3-6.3,4.6-7c3.1-0.6,2.6-3.5,3-5.9c1.2-7.1-0.7-14.7,2.5-21.4
			c10.9-23.2,27.5-34.8,55.5-33.5c10.6,0.5,21,0.9,30.5,6.9c11,7,17.3,17.3,20.3,29.4c1.6,6.5,4.1,8.4,10.5,8.1
			c11.2-0.5,16.4,2.9,19.8,10.9c1.2,2.8,0.8,5.6,0.8,8.3c0.1,6.8,0,13.7,0,20.6c0,11.6-7,18.7-18.6,19c-2.6,0.2-5.2,0.2-7.9,0
			c-6.4-0.9-8,3.1-8.6,8.1c-1.1,9.6-2.1,19.1-3.3,28.7c-0.9,7.2-6.1,11.8-15.6,11.9c-7.1,0-8.6,2.8-7.8,8.9c0.2,2.8,0.2,5.6,0,8.4
			c-0.1,2.4-1.5,4.6-3.8,4.6s-2.9-2.4-2.8-4.6c0-4.2-0.2-8.5,0.1-12.7c0.2-4-1.5-5.4-5.4-6.3c-14.3-3-26.6-11.9-34-24.4
			c-1-1.7-4-4-0.5-6.1c3-1.8,5,0.4,6.4,2.7c5.7,9.8,14.2,16.3,24.7,19.8c9.1,3.1,18.4,5.6,28.1,1.8c3.1-1.2,4.5-3.1,4.5-6.3
			c0-10.7,2.2-21.1,4-31.5c0.6-3.6-1.6-3-3.5-3C125.1,118.3,118.7,118.4,110.6,118.4z M129.8,66.1c-9.7,0-19.3-0.1-29,0
			c-5.2,0.1-8.4,3.2-8.6,8.1c-0.4,9.3-0.4,18.5,0.1,27.8c0.3,4.4,1.3,9.4,7.8,9.4c19.1-0.1,38.2,0.2,57.3,0
			c7.7-0.1,11.6-4.5,11.7-12.2c0.1-7.2,0.1-14.5,0-21.7c-0.1-7.6-3.8-11.3-11.6-11.3C148.3,66.1,139.1,66.1,129.8,66.1z M111.6,59.4
			c7.4,0,14.9-0.3,22.3,0.1c5,0.3,6.1-1.2,4.7-6c-3.8-12.9-11-23-23.3-28.8c-7.6-3.6-16-2.8-24.2-2.9c-7.8-0.1-15.6,0.3-22.8,3.7
			c-17.5,8.4-27.7,26.7-26.2,46.6c0.1,1.4,0.2,2.7,1.7,3.5c4.3,2.2,18.8-0.4,22.2-4.1c7.3-7.7,16-12.3,26.9-12.1
			C99.1,59.5,105.3,59.4,111.6,59.4L111.6,59.4z M53.2,94.8c4.8,0,9.7-0.2,14.5,0.1s4.6-2.5,4.5-5.7s0.7-6.6-4.6-6.4
			C58,83,48.4,83,38.7,83c-1.6,0-3.1-0.3-3.8,1.9c-2.1,6.2,0.4,9.9,6.9,9.9L53.2,94.8z M72.1,102c2.9,4.3,6.9,5.6,10.2,7.7
			c1.2,0.6,2.7,0.7,4,0.1c2-1-0.1-2.3-0.2-3.6c-1-13.1-1-26.3,0.2-39.3c-3.8,0.7-7.4,2.6-10.9,4.8c-2.3,1.4-4.6,2.9,0,4.4
			c2.9,1,3.8,3.2,3.6,6.2c-0.3,3.4-0.3,6.8,0,10.2C79.5,97.6,78,101.2,72.1,102z"/>
	</g>
</g>
<path class="st1" d="M18.4,2h167.2c9.1,0,16.4,7.3,16.4,16.4v167.2c0,9.1-7.3,16.4-16.4,16.4H18.4C9.3,202,2,194.7,2,185.6V18.4
	C2,9.3,9.3,2,18.4,2z"/>
</svg>
