<?xml version="1.0" encoding="utf-8"?>
<!-- Generator: Adobe Illustrator 21.0.0, SVG Export Plug-In . SVG Version: 6.00 Build 0)  -->
<svg version="1.1" id="Layer_1" xmlns="http://www.w3.org/2000/svg" xmlns:xlink="http://www.w3.org/1999/xlink" x="0px" y="0px"
	 viewBox="0 0 204 204" style="enable-background:new 0 0 204 204;" xml:space="preserve">
<style type="text/css">
	.st0{fill:#E67E22;}
	.st1{fill:none;stroke:#E67E22;stroke-width:4;stroke-miterlimit:10;}
</style>
<title>MRI</title>
<g id="Solutions">
	<g id="MRI">
		<path class="st0" d="M26.8,103c-3.1,0.9-4.1,3.2-5.8,4.7c-1.6,1.3-3.1,2.8-5.1,0.9s-0.5-3.6,0.9-5c7.3-7.3,14.6-14.7,22-21.8
			c2.5-2.3,3.9-5.6,3.6-8.9c-0.2-12.7,0.1-25.4-0.2-38.1c-0.1-4.6,1.3-6.6,6.1-6.3c4.5,0.3,8.9,0.3,13.4,0c4.3-0.3,6.2,1.2,5.9,5.8
			c-0.3,5.7-0.1,11.3-0.1,18.6c5.8-5.6,10.5-10.2,15.3-14.9c3.7-3.6,7.3-7.3,10.9-11c2.6-2.7,5-2.9,7.7-0.1
			c10.7,11,21.5,21.9,32.3,32.9c1.4,1.5,3.7,3.3,1.6,5.4s-4.1,0.6-5.9-1.2c-9.4-9.6-18.9-18.9-28.2-28.6c-2.8-2.9-4.3-3.1-7.2-0.2
			C74.4,54.9,54.5,74.6,34.5,94.2c-1.4,1.3-2.2,3.3-2,5.2c0,23.1,0.1,46.2,0,69.2c0,3.4,0.8,4.6,4.5,4.6c16,0.2,16,0.4,16-15.3
			c0-8.8,0-17.5,0-26.3c0-6.4,0.8-7.2,7-7.2c7.5,0,15,0.2,22.5-0.1c5-0.2,7.1,1.5,6.9,6.7c-0.3,12.5,0,25-0.2,37.6
			c0,3.5,0.9,4.6,4.5,4.6c16.6-0.2,33.2-0.2,49.8,0c3.3,0,4.5-1,4.2-4.3c-0.3-3.7-0.1-7.5-0.1-11.3c0-1.7-0.4-3.9,2.3-3.9
			c2.5,0,3.4,1.7,3.4,3.9c0,5.6,0.1,11.1,0,16.6c0,3.2-1.6,4.9-5,4.9c-20,0-40,0-60,0c-4.2,0-5.1-2.2-5.1-5.8
			c0.1-12.5-0.1-25.1,0.1-37.6c0.1-4.6-1.4-6-5.8-5.6c-4.8,0.3-9.6,0.3-14.5,0c-3.5-0.1-4.7,1.3-4.7,4.7c0.1,12.7-0.1,25.4,0.1,38.1
			c0.1,4.6-1.3,6.5-6.1,6.2c-6.2-0.3-12.5-0.3-18.8,0c-5.3,0.3-6.8-2.1-6.8-7c0.1-21.8,0-43.7,0-65.5C27,105.7,26.9,104.6,26.8,103z
			 M48.3,71.5c9.6-7,16.1-14.2,13.6-25.9c-0.1-0.7-0.1-1.4,0-2.1c0-9.4-1.8-10.8-11.1-9.1c-1.8,0.3-2.4,1.1-2.4,2.8
			C48.3,48.3,48.3,59.4,48.3,71.5L48.3,71.5z"/>
		<path class="st0" d="M98.8,111.1c0-17.3,10.4-30.3,26.9-36c21.2-7.3,43.8,8.6,47.9,27.4c2.9,13.3-0.5,24.2-8.3,34.3
			c-2,2.6-2.1,3.9,0.2,6.1c6.8,6.6,13.4,13.3,19.9,20.2c1.6,1.7,5.5,3.3,2.4,6.3c-3.3,3.4-4.9-0.9-6.6-2.6
			c-6.9-6.7-13.6-13.6-20.3-20.5c-2-2-3.3-2.4-6.3-0.9c-20.2,10.2-42,2.8-52.4-17.3C99.5,122.9,98.8,119.6,98.8,111.1z M104.8,111.1
			c-1.9,18,15.3,32.3,30,32.9c17.9,1.1,33.2-12.5,34.3-30.4s-12.5-33.2-30.4-34.3c-0.8,0-1.5-0.1-2.3-0.1
			C120.4,79,103.1,94.6,104.8,111.1L104.8,111.1z"/>
	</g>
</g>
<path class="st1" d="M18.4,2h167.2c9.1,0,16.4,7.3,16.4,16.4v167.2c0,9.1-7.3,16.4-16.4,16.4H18.4C9.3,202,2,194.7,2,185.6V18.4
	C2,9.3,9.3,2,18.4,2z"/>
</svg>
