<?xml version="1.0" encoding="utf-8"?>
<!-- Generator: Adobe Illustrator 21.0.0, SVG Export Plug-In . SVG Version: 6.00 Build 0)  -->
<svg version="1.1" id="Layer_1" xmlns="http://www.w3.org/2000/svg" xmlns:xlink="http://www.w3.org/1999/xlink" x="0px" y="0px"
	 viewBox="0 0 204 204" style="enable-background:new 0 0 204 204;" xml:space="preserve">
<style type="text/css">
	.st0{fill:#E67E22;}
	.st1{fill:none;stroke:#E67E22;stroke-width:4;stroke-miterlimit:10;}
</style>
<title>ParkingSolutions</title>
<g id="Solutions">
	<g id="ParkingSolution">
		<path class="st0" d="M141.3,99.8c8.3,0,16.7,0.1,25,0c2.7,0,4.4,0.9,5.2,3.6c0.4,1.4,1.3,2.6,1.7,4c1.3,5.4,4.5,7.7,10.1,6.7
			c2.2-0.4,4.7-0.1,5.5,2.4c0.9,2.7,1,5.7-1.8,7.6c-2.4,1.6-3,2.8-0.4,4.8c1.3,1,0.9,2.7,0.9,4.1c0,9.5-0.1,19,0.1,28.6
			c0.1,3.1-0.9,4.1-4,4c-4.5-0.2-9.1-0.2-13.6,0c-2.5,0.1-3.6-0.9-3.2-3.3c0.8-4.3-1.4-5-5.1-4.9c-14,0.2-28,0.2-42.1,0
			c-3.3,0-4.7,0.9-4.1,4.2s-1.1,4.3-4.2,4.1c-4.2-0.2-8.5-0.2-12.7,0c-3.2,0.2-4.4-0.7-4.4-4.1c0.2-9.4,0.2-18.7,0-28.1
			c-0.1-3,2.9-4.9,2.7-6.9s-3.8-3.1-4.4-5.9c-0.7-3.1,1.6-6.7,4.7-6.2c7.4,1.2,10.9-2.1,12.5-9c0.9-4.1,3.9-5.7,8.4-5.4
			C125.8,100.1,133.5,99.8,141.3,99.8z M99.3,133c2.4-0.4,3.5-3.7,5.9-2.9c4.1,1.2,8.6,1.4,12.3,3.8c2.6,1.6,3.3,4.5,2.6,7.4
			c-0.7,2.7-3.2,1.2-4.9,1.5c-1.3,0.2-2.6,0.2-3.9,0c-2.9-0.2-5.8,0.6-8.7-0.5c-1.3-0.5-1.5-3.2-3.2-2.2c-1.5,0.9-0.5,3-0.7,4.5
			c-0.2,1.3,0.1,2.6,0,4c-0.2,2.7,1.1,3.6,3.7,3.6c4.2-0.1,8.5,0,12.7,0c21.4,0,42.7,0,64.1,0.1c2.7,0,3.6-1,3.5-3.6
			c-0.1-4.4,0-8.8,0-13.2c-0.2-4.8-4-8.6-8.8-8.7c-21.8,0-43.6,0.1-65.4-0.1C103.6,126.5,101.7,129.9,99.3,133z M108.3,122
			c21.1,0,41.8,0,62.6,0c1,0,2.2,0.2,2.6-1c0.7-2.2-4.3-8.7-6.8-8.8c-17.3,0-34.5,0-51.8,0c-2.2,0-3.6,0.7-4.3,2.9
			S108.6,119,108.3,122L108.3,122z M166,106.9v-0.6h-50.3v0.6H166z M104.8,157c-1.9,1-5.6-1.5-5.6,1.9c0,2.6,3.6,1.4,5.6,1.4
			s5.4,1.4,5.4-1.5S106.7,157.8,104.8,157z M177.2,157c-1.8,0.9-5.3-1.3-5.4,1.7s3.4,1.6,5.3,1.6s5.3,1.6,5.3-1.5
			S178.9,158,177.2,157z M113.7,137l-7.3-1.5c-0.8-0.2-1.5,0-1.7,0.9c-0.3,1.2,0.6,1.6,1.5,1.6C108.3,138,110.5,138.6,113.7,137z
			 M184,119.1c-1.8-0.3-3.6-0.9-5.5,0.2C180.6,124,182.3,121.7,184,119.1z M100.1,118.6c-0.5,0.5-2.3-0.5-2,1.1
			c0.2,1.5,1.7,2.2,3.2,2.5c1.2,0.2,1.4-0.7,1.5-1.6C103.2,118.5,101.6,118.7,100.1,118.6L100.1,118.6z"/>
		<path class="st0" d="M14.8,97.9c0-15.2,0-30.5,0-45.7c0-8.2,5.4-13.6,13.7-13.6c30.3,0,60.5,0,90.8,0c8.1,0,13.5,5.4,13.6,13.3
			c0,13.8,0,27.5,0,41.3c0,1.8,1.1,4.6-2.4,4.4s-2.1-3-2.1-4.7c-0.1-13.2-0.1-26.4-0.1-39.6c0-6.5-3.4-10.1-9.8-10.1
			c-29.7,0-59.4,0-89.1,0c-6.5,0-9.9,3.5-9.9,10c0,29.9,0,59.8,0,89.7c0,6.5,2.7,9.3,9.2,9.3c19.6,0,39.2,0,58.8,0
			c1.3,0,3.3-0.8,3.8,1.1s0.5,3.8-2.6,3.7c-6.3-0.1-12.6,0-18.9,0c-14,0-28.1-0.3-42.1,0.1c-7.3,0.2-13.2-7-13.1-13.2
			C15,128.7,14.8,113.3,14.8,97.9z"/>
		<path class="st0" d="M68.3,67.4c6-0.3,12,0.9,17.6,3.3c7.7,3.5,10.5,10.5,8.9,21.5c-0.9,5.9-8,12.5-14.3,13.7
			c-4,0.8-7.9,1.8-12,1.5c-2.4-0.2-2.5,1.4-2.4,3.1c0,4.8-0.1,9.7,0.1,14.5c0.1,2.5-0.8,3.3-3.3,3.2c-12.2-0.3-9.8,1.7-9.9-9.3
			c-0.2-14.9,0-29.9-0.1-44.8c0-3.4,0.4-5.2,4.5-5.5C61.1,68.4,64.9,67.3,68.3,67.4z M66,87.4c0,9.4,0,9.4,7.2,8.9
			c5.2-0.3,9.1-4.8,8.8-9.9c0,0,0,0,0-0.1c-0.3-5.4-4.2-7.9-11.8-7.9c-7,0-3.3,5.2-4.2,8.1C66,86.8,66,87.1,66,87.4z"/>
		<path class="st0" d="M169.3,142.7c-1.5,0.1-2.9,0.1-4.4,0c-1.6-0.2-4,1.1-4.4-1.4c-0.6-2.7-0.6-5.8,2.1-7.5
			c3.9-2.3,8.4-3,12.7-3.7c3.4-0.5,5.3,2.8,5.2,6.2c0,3-1,5.9-4.7,6.3C173.6,142.8,171.4,142.8,169.3,142.7L169.3,142.7z
			 M167.9,136.7c2.1,1.7,4.3,1.3,6.4,1.2c0.7-0.1,1.4-0.4,1.3-1.3c-0.1-0.7-0.8-1.2-1.4-1c-0.1,0-0.1,0-0.2,0
			C171.9,135.9,169.9,136.3,167.9,136.7L167.9,136.7z"/>
		<path class="st0" d="M140.7,149.4c-3.5,0-7,0-10.5,0c-1.7,0-3.7,0.2-3.6-2.5c0-2.2,1.1-3.9,3.2-4c7.4-0.2,14.8-0.2,22.2,0
			c2.2,0.1,3.6,1.6,3.5,4.1s-2.2,2.3-3.9,2.3C148,149.4,144.4,149.4,140.7,149.4z"/>
	</g>
</g>
<path class="st1" d="M18.4,2h167.2c9.1,0,16.4,7.3,16.4,16.4v167.2c0,9.1-7.3,16.4-16.4,16.4H18.4C9.3,202,2,194.7,2,185.6V18.4
	C2,9.3,9.3,2,18.4,2z"/>
</svg>
