<?xml version="1.0" encoding="utf-8"?>
<!-- Generator: Adobe Illustrator 21.0.0, SVG Export Plug-In . SVG Version: 6.00 Build 0)  -->
<svg version="1.1" id="Layer_1" xmlns="http://www.w3.org/2000/svg" xmlns:xlink="http://www.w3.org/1999/xlink" x="0px" y="0px"
	 viewBox="0 0 204 204" style="enable-background:new 0 0 204 204;" xml:space="preserve">
<style type="text/css">
	.st0{fill:#E67E22;}
	.st1{fill:none;stroke:#E67E22;stroke-width:4;stroke-miterlimit:10;}
</style>
<title>PatientTracking</title>
<g id="Products">
	<g id="PatientTracking">
		<path class="st0" d="M75.8,95.3c0-11.8,0-23.6,0-35.4c0-6.7,3.4-10.3,10-10.3h56.6c3.7,0.1,6.8,2.7,7.7,6.3
			c0.7,2.8,0.4,5.7,0.4,8.6c0,21.1,0,42.3,0,63.4c0,1.3-0.5,2.9,0.9,3.6s2.4-0.8,3.4-1.5c7.1-4.7,11.6-11.5,14.5-19.3
			c0.9-2.4,1.4-5.1,2.2-7.6c1-3.3-0.2-5.1-3.4-6.4c-5.3-2.2-8.5-8-7.9-14.3c0.6-5.6,5.2-11.5,9.8-12.5c7.7-1.6,14.4,1.1,17.4,7.5
			c3.5,7.4,0.5,16.7-7.4,19.6c-1.8,0.5-3.1,2.2-3,4.1c-0.3,5.9-2.4,11.3-4.8,16.5c-3.9,8.2-10.2,14.9-18.1,19.4
			c-2.7,1.6-3.7,3.5-3.7,6.7c0,8,0.6,16-0.4,24c-0.5,3.9-2.9,6-6.9,6c-19.6,0.1-39.2,0-58.8,0.1c-6.1,0-8.3-3-8.6-9.5
			s-0.1-13.3,0-20c0.1-2.6-0.9-3.8-3.5-3.7c-5.3,0.2-10-1.7-14.6-4c-3.4-1.7-4.6-5.4-6-8.6c-2.4-5.5-3.9-11.4-4.2-17.3
			c0.1-3-1.6-5.8-4.3-7.1c-4.1-2.1-6.5-6.4-6.2-11c0.1-2-0.8-3.8-2.4-5c-8.4-7.3-14.7-16-18.2-26.8c-1.4-4.3-2.4-8.2-0.2-12.3
			c0.2-0.6,0.2-1.2,0-1.8c-1.5-6.4,1.7-11.4,8.1-12.8c3.2-0.7,9.3,2.6,10,6.1c1.1,5.3,1,9.5-4.7,12.7c-1.9,1.1-4,0.7-6,0.7
			c-3.1,0-3.9,1.2-3,4.1c3.4,11.3,10.3,20,19.2,27.5c1.4,1.2,2.5,1.5,4.1,0.4c0.5-0.5,1.2-0.8,1.9-0.8c4.6,0.7,6.6-2.3,8.4-5.7
			c4.8-8.8,8.7-17.8,8-28.2c-0.2-3.3-0.7-3.6-3.6-2.1c-3.7,1.7-8,1-11-1.7c-3.4-3.2-3.8-6.5-2.2-10.8s5.1-6.1,9-6.1
			c4.1-0.1,7.1,2.7,9.2,6.2c0.3,0.7,0.4,1.4,0.3,2.1c-0.2,2,0.5,3.9,1.8,5.3c1.5,1.7,1.8,3.8,1.9,6c0.6,13.3-4,25-11.3,35.8
			c-0.8,1.2-0.6,1.8-0.3,3.1c1,4.7,1.9,9.7-1.7,13.7c-2.2,2.4-2.5,4.5-1.8,7.7c0.8,3.7,1.2,7.6,2.3,11.3c1.2,4.7,2.5,9.5,7.4,11.7
			c3.1,1.4,6.3,2.7,10,2.5c2.4-0.2,3.4-0.9,3.4-3.5C75.8,119.8,75.9,107.6,75.8,95.3L75.8,95.3z M81.1,119.7c0,1,0,2.1,0,3.1
			c0,13.4,0,26.9,0,40.3c0,4.5,0.7,5.1,5.2,5.1c18,0,36.1,0,54.1,0c4.2,0,4.8-0.7,4.8-5.1c0-3.7-0.2-7.4,0-11.1
			c0.1-2.8-0.9-3.8-3.7-3.8c-7.4,0.1-14.8,0-22.2,0H94.5c-1.3,0-2.5-0.1-3.1-1.5c-0.5-1-0.4-2.1,0.2-3c0.9-1.4,2.4-1,3.7-1
			c15.2,0,30.4,0,45.5,0c4.3,0,4.5-0.3,4.5-4.6c0-24.2,0-48.4,0-72.6c0-1.9-0.1-3.9-0.2-5.8c-0.3-4.2-0.8-4.7-5-4.7
			c-17.5,0-35.1,0-52.6,0c-5.5,0-6.3,0.8-6.3,6.5c0,0.7,0,1.4,0,2.2c0.1,2.2,1.2,3.1,3.3,3s4.3,0,6.4,0h41.2c2.8,0,3.7,1,3.2,3.5
			s-2.4,1.8-4,1.8c-15.1,0-30.2,0-45.2,0c-4.5,0-5,0.5-5,4.9C81.1,91.2,81.1,105.4,81.1,119.7L81.1,119.7z M174.7,75.2
			c-4.8-1.1-9.1,4-8.9,8.9s4.6,9.5,9,9.5c3.9,0,9-5.4,8.8-9.6C183.4,79,179,74.2,174.7,75.2L174.7,75.2z M51.9,94.1
			c-0.3-2.2-2-3.9-4.2-4.1c-2.1,0-5.4,2.2-5.4,3.7c0,1.8,4.8,6.6,6.4,6.5S51.9,97,51.9,94.1z M58.8,40c0-1.9-2.4-4.6-4.2-4.6
			s-5.1,3.3-4.7,5c0.3,2.2,2.1,3.9,4.4,4C56.6,44.4,58.7,42.5,58.8,40z M29.8,43.5c0-2.2-1.8-4-4-4c-0.1,0-0.2,0-0.3,0
			c-1.9,0.1-4.4,2.8-4.3,4.6c0.1,2.1,2.4,4,4.7,3.9C28.4,47.8,29.8,46.3,29.8,43.5L29.8,43.5z"/>
		<path class="st0" d="M113.2,131.8c-2.6,0-5.1-0.1-7.7,0c-2.1,0.1-3-0.8-3-2.9c0.1-2.5-0.1-4.9,0-7.4c0.1-2-0.8-2.8-2.8-2.7
			s-3.9,0-5.8,0.1c-2.4,0.1-3.7-0.8-3.6-3.3c0.1-4.8,0.1-9.6,0-14.4c0-2.2,1.1-3.2,3.2-3.3s4.1,0,6.1,0c1.9,0,2.8-0.9,2.8-2.8
			c0-2.5,0-4.9,0-7.4c0-1.9,0.8-2.8,2.8-2.8c5.1,0,10.3,0,15.4,0c2.5,0,3.6,1.2,3.5,3.6c-0.1,2,0,4.1-0.1,6.2c0,2.3,1,3.3,3.4,3.3
			c8.3,0.1,8.3,0.1,8.3,8.4c0,3.3,0,6.6,0,9.8c0,1.9-0.9,2.8-2.8,2.8s-3.9,0.1-5.8,0s-3.1,0.8-3,2.9s-0.1,4.1,0,6.1
			c0.1,2.8-0.9,4.2-3.9,4c-2.3-0.2-4.7,0-7.1,0L113.2,131.8z M118.7,120.1c0-6.8,0-6.8,5.4-6.7c6.8,0.1,6.8,0.1,6.5-6.8
			c0-0.2,0-0.4,0-0.6c0.2-1.4-0.9-2.7-2.3-2.8c-0.2,0-0.4,0-0.6,0c-2,0-4.1-0.1-6.1-0.1s-2.9-0.8-2.8-2.7c0-0.9,0-1.8,0-2.8
			c0-7.5-0.1-7.6-7.5-7.3c-2.4,0.1-3.3,1.2-3.3,3.4c0,2-0.1,4.1,0,6.1c0.1,2.6-1,3.5-3.5,3.3c-1.7-0.1-3.5-0.1-5.2-0.1
			c-2.3,0-3.4,1.2-3.4,3.4c0,1,0.1,2.1,0,3.1c-0.2,2.7,0.9,3.8,3.7,3.8c8.4,0.1,8.4,0.2,8.5,8.5c0,4.4,0.1,4.5,4.5,4.5
			C119.9,126.4,118.8,126.2,118.7,120.1L118.7,120.1z"/>
		<path class="st0" d="M120.7,158.6c-0.1,4.9-3,7.9-7.8,7.9c-4.2,0-7.2-3.4-7.2-7.9s3.3-8.3,7.6-8.2
			C117.9,150.4,120.8,153.6,120.7,158.6z M111.2,158.2c0.1,1.2,0.2,2.5,1.9,2.5c1.4,0,2.4-0.5,2.4-2.1s-0.4-3-2.2-3
			C111.7,155.6,111.3,156.9,111.2,158.2z"/>
	</g>
</g>
<path class="st1" d="M18.4,2h167.2c9.1,0,16.4,7.3,16.4,16.4v167.2c0,9.1-7.3,16.4-16.4,16.4H18.4C9.3,202,2,194.7,2,185.6V18.4
	C2,9.3,9.3,2,18.4,2z"/>
</svg>
