<?xml version="1.0" encoding="utf-8"?>
<!-- Generator: Adobe Illustrator 21.0.0, SVG Export Plug-In . SVG Version: 6.00 Build 0)  -->
<svg version="1.1" id="Layer_1" xmlns="http://www.w3.org/2000/svg" xmlns:xlink="http://www.w3.org/1999/xlink" x="0px" y="0px"
	 viewBox="0 0 204 204" style="enable-background:new 0 0 204 204;" xml:space="preserve">
<style type="text/css">
	.st0{fill:#E67E22;}
	.st1{fill:none;stroke:#E67E22;stroke-width:4;stroke-miterlimit:10;}
</style>
<title>POS</title>
<g id="Products">
	<g id="POS">
		<path class="st0" d="M79.1,16c1.6-0.5,2.5-2.2,4.4-1.1s1.7,2.7,1.7,4.4c0,3,0,5.9,0,8.8c0,2.2,0.9,3.5,3.2,3.3
			c3.1-0.3,3.9,1.3,3.8,4.1c-0.1,4.3,0,8.6,0,12.9c0,2.3,0.9,3.4,3.3,3.1c0.3,0,0.7,0,1,0c7.9-0.1,7.9-0.1,7.9,7.9
			c0,39.4,0,78.8-0.1,118.2c0,1.4,0,2.7-0.1,4.1s-0.7,2.6-2.1,2.6c-4.8,0-9,2.4-13.8,2.8c-9.8,0.6-19.5,3.3-29.4,2.2
			c-9.5-1-19.1-1.5-28.3-4.4c-0.2-0.1-0.4-0.1-0.7-0.2c-5.9-1.3-5.9-1.3-5.9-7.3c-0.1-35.1-0.1-70.3-0.2-105.4
			c0-5.4,0.2-10.9,0.1-16.3c0-3,0.9-4.4,4.1-4.2c8.5,0.3,7.8,0.7,7.8-7.8c0-3,0.1-5.9,0-8.8c0-2.2,0.8-3.5,3.2-3.4
			c2.9,0.1,3.7-1.5,3.7-4.1c0-3.3,0-6.6,0.1-9.9c0-0.9,0.2-2.1,1.3-2c1.3,0.1,0.9,1.3,0.9,2.2c-0.1,10-0.1,19.9-0.3,29.9
			c-0.1,3.1,1.1,4.2,4.2,4.1c10.2-0.2,20.4-0.1,30.6,0c3.1,0,4.2-1.1,4.1-4.2c-0.2-8.8-0.1-17.7,0-26.5C83.4,18,83.4,15.3,79.1,16z
			 M97.2,126.2L97.2,126.2c0.1-15.8,0.1-31.5,0.1-47.3c0-4.3-0.6-4.8-4.6-4.8c-18.9,0-37.9,0-56.8,0c-5.2,0-5.6,0.4-5.6,5.7
			c0,31.2,0,62.3,0,93.5c0,3.9,2,6.8,5.9,6.9c7.2,0,14.1,1.7,21.3,2.3c11.5,1,22.8-1.9,34.2-2.3c3.9-0.1,5.6-2.6,5.6-6.7
			C97.2,157.7,97.2,141.9,97.2,126.2z M63.8,67.3c9.8,0,19.7,0,29.5,0c1.4,0,2.7,0.1,3.5-1.4c2.1-4-0.1-7.8-4.6-7.8
			c-19.1,0-38.2,0-57.4,0c-3.8,0-4.6,0.9-4.6,4.9c0,3.8,0.6,4.4,4.6,4.4L63.8,67.3z"/>
		<path class="st0" d="M180.3,122.8c0,13.8,0,27.6,0,41.5c0,7.1-2.4,10-10,10c-10.9,0-21.8,0-32.6,0c-5.4,0-10.9,0-16.3-0.1
			s-8.4-2.8-8.4-8.3c-0.1-28.7-0.1-57.3,0-86c0-5.4,2.7-8.1,8-8.2c17.2-0.1,34.4-0.1,51.7,0c4.9,0,7.2,2.2,7.5,7.3
			c0.3,5.5,0.1,11.1,0.2,16.7C180.3,104.6,180.3,113.7,180.3,122.8L180.3,122.8z M141.9,122.6L141.9,122.6c0,13.3,0,26.5,0,39.8
			c0,4.7,0.4,5.1,4.9,5.1c7.4,0,14.7,0,22.1,0c3.9,0,4.6-0.7,4.6-4.5c0-26.8,0-53.5,0-80.3c0-4-0.6-4.5-4.5-4.6
			c-7.4,0-14.7,0-22.1,0c-4.7,0-5,0.3-5,5C141.8,96.4,141.8,109.5,141.9,122.6L141.9,122.6z M128,122.8c0-13.5-0.1-27,0-40.4
			c0-3-0.9-4.3-4.1-4.3s-4.2,1.7-4.2,4.7c0.1,26.6,0.1,53.2,0,79.9c0,2.9,0.6,4.9,4.1,4.8s4.2-0.9,4.2-5
			C128,149.3,128,136.1,128,122.8L128,122.8z"/>
		<path class="st0" d="M59.2,16c-2.1-0.9-4.3,0.5-7.3,0C54.9,15,57.1,14.2,59.2,16z"/>
		<path class="st0" d="M63.8,79.2c7.5,0,15,0,22.4,0c4.8,0,5.6,0.7,5.6,5.4c0,8.3,0,16.5,0,24.8c0,4-0.8,4.8-4.8,4.8
			c-15.4,0-30.8,0-46.2,0c-4.5,0-5.1-0.7-5.1-5.1c0-8.4,0-16.8,0-25.2c0-3.9,0.6-4.5,4.6-4.6c7.8-0.1,15.6,0,23.5,0L63.8,79.2z
			 M64.1,107.6L64.1,107.6c5.7,0,11.3,0,17,0c2.7,0,4-1.1,4-3.8c-0.1-4.5,0-9.1,0-13.6c0-2.9-1.4-4.3-4.4-4.3
			c-11.2,0.1-22.5,0.1-33.7,0c-3.1,0-4.3,1.5-4.3,4.4c0,4.5,0.1,9.1,0,13.6c0,2.8,1.3,3.8,4,3.8C52.5,107.5,58.3,107.6,64.1,107.6
			L64.1,107.6z"/>
		<path class="st0" d="M64.2,160.5c-1.8-0.1-3.6-0.2-5.4-0.4c-1.4,0-2.5-1.1-2.5-2.5c0,0,0-0.1,0-0.1c0-1.7,0.5-3.4,2.4-3.5
			c3.5-0.3,7-0.3,10.5-0.2c2.2,0.1,2.5,2,2.5,3.8s-1,2.7-2.7,2.8s-3.2,0-4.7,0L64.2,160.5z"/>
		<path class="st0" d="M64.3,123.1c1.5,0,2.9,0,4.4,0c2.1,0,3.1,1,3,3.2c-0.1,2.1-1,3.3-3.3,3.3c-2.9-0.1-5.8-0.1-8.8-0.1
			c-2.1,0-3.4-1-3.4-3.3s1.5-2.9,3.3-2.9C61.1,123.1,62.7,123.1,64.3,123.1L64.3,123.1z"/>
		<path class="st0" d="M64.4,138.5c1.5,0,2.9-0.1,4.4,0c1.9,0.1,2.8,1.3,2.9,3.1s-0.8,3.2-2.7,3.3c-3.3,0.1-6.5,0.1-9.8,0
			c-1.5,0-2.8-1.2-2.9-2.7c0-0.1,0-0.3,0-0.4c-0.1-1.5,1-2.8,2.5-3c0.1,0,0.3,0,0.4,0c1.7-0.1,3.4,0,5.1,0L64.4,138.5z"/>
		<path class="st0" d="M46.8,160.4c-1.2,0-2.5,0.1-3.7,0c-2.4-0.1-3-1.7-2.9-3.8s1-3.1,3.2-3c2.3,0.1,4.5,0.1,6.8,0
			c2.5-0.1,3.5,1,3.6,3.4s-1.1,3.3-3.3,3.4L46.8,160.4L46.8,160.4z"/>
		<path class="st0" d="M80.7,153.7c1,0.1,2,0.1,3,0c2.5-0.3,3.5,0.8,3.6,3.2c0.1,2.6-1.1,3.7-3.7,3.5c-2-0.1-4-0.1-6.1,0
			c-2.5,0.1-3.4-1-3.4-3.4s1.1-3.5,3.5-3.3C78.7,153.8,79.7,153.7,80.7,153.7L80.7,153.7z"/>
		<path class="st0" d="M46.8,129.5c-1.2,0-2.5,0-3.7,0c-2.2,0-2.8-1.5-2.9-3.4s0.8-3.1,2.7-3.1c2.8,0,5.6,0,8.4,0.1
			c1.7,0,2.4,1,2.4,2.6s-0.2,3.3-2.3,3.5c-1.6,0.1-3.1,0.1-4.7,0L46.8,129.5z"/>
		<path class="st0" d="M47,138.6c1.4,0,2.7,0,4.1,0c2,0,2.8,1.3,2.8,3.1s-0.8,3.1-2.7,3.2c-2.6,0.1-5.2,0.1-7.8,0
			c-1.6,0.2-3-1-3.2-2.6c0-0.2,0-0.4,0-0.6c0-2.1,1.2-3.4,3.4-3.3L47,138.6z"/>
		<path class="st0" d="M81,138.6c1,0.1,2,0.1,3,0c2.4-0.3,3.3,0.9,3.3,3.1s-0.7,3.5-3.2,3.4s-4.7-0.1-7.1,0c-2.1,0-2.8-1.1-2.9-3
			s0.3-3.4,2.7-3.4H81z"/>
		<path class="st0" d="M80.4,129.4c-1.1,0-2.3,0-3.4,0c-2.1,0.1-2.8-1-2.8-2.9s0.3-3.4,2.6-3.5c2.7,0,5.4,0,8.1,0
			c1.8,0,2.4,1.1,2.3,2.6s0.1,3.4-2.1,3.6c-1.6,0.2-3.2,0-4.7,0L80.4,129.4z"/>
	</g>
</g>
<path class="st1" d="M18.4,2h167.2c9.1,0,16.4,7.3,16.4,16.4v167.2c0,9.1-7.3,16.4-16.4,16.4H18.4C9.3,202,2,194.7,2,185.6V18.4
	C2,9.3,9.3,2,18.4,2z"/>
</svg>
