<?xml version="1.0" encoding="utf-8"?>
<!-- Generator: Adobe Illustrator 21.0.0, SVG Export Plug-In . SVG Version: 6.00 Build 0)  -->
<svg version="1.1" id="Layer_1" xmlns="http://www.w3.org/2000/svg" xmlns:xlink="http://www.w3.org/1999/xlink" x="0px" y="0px"
	 viewBox="0 0 204 204" style="enable-background:new 0 0 204 204;" xml:space="preserve">
<style type="text/css">
	.st0{fill:#E67E22;}
	.st1{fill:none;stroke:#E67E22;stroke-width:4;stroke-miterlimit:10;}
</style>
<title>ProjMapping</title>
<g id="Solutions">
	<g id="ProjMapping">
		<path class="st0" d="M15.1,101.6c0-26.6,0.1-53.1-0.1-79.7c-0.1-5.7,2-7.3,7.4-7.3c52.8,0.1,105.6,0.2,158.4,0.1
			c7.2,0,8.1,0.9,8.1,8c0,52.9,0,105.9,0.1,158.8c0,5.7-2.1,8-7.8,8c-53.2-0.1-106.4-0.1-159.6,0c-5,0-6.6-2.1-6.6-6.9
			C15.2,155.5,15.1,128.5,15.1,101.6z M98.8,134.9c8.3-0.1,14.5-0.5,20.8-0.9c5.6-0.4,7.6-3.7,7.9-8.1c0.9-16.8,4.9-33.3,5.1-50.3
			c0-3.5-0.9-4.7-4.3-4.7c-4.4,0-9,0.2-13.2-0.7c-11.8-2.4-23.2,1.8-34.8,1.2c-1.3-0.1-2.6,0.9-3.9,1.5s-1.9,2-1.2,3
			c2.5,3.3,2.1,7.3,2.8,11c2.4,12.4,7.6,24.6,3.6,37.7c-0.4,1.3-0.1,2.8-0.3,4.2c-0.4,3.9,1.5,5.5,5.2,5.6
			C91.2,134.5,96,134.8,98.8,134.9L98.8,134.9z M69.3,132.8c1.6-0.9,5.1,1.2,5.2-2.2c0.2-5.7,2.3-11.3,1.7-16.7
			c-1.3-12-4.1-23.9-7.1-35.6c-1-3.8-2.4-4.8-6.7-3.9c-11.5,2.3-23.2,4-34.9,5.3c-4.6,0.5-6.2,2.1-6.1,6.7c0.3,10.5,0.2,20.9,0,31.4
			c-0.1,4.1,0.8,6.2,5.5,6.5c4.1,0.3,8,2.3,12.1,3.1C49,129.3,59,130.9,69.3,132.8L69.3,132.8z M100.7,21.3L100.7,21.3
			c-6.8,0-13.7,0.2-20.6-0.1c-4.3-0.2-5.7,1.5-5.5,5.6c0.2,7.9-0.2,15.7-1.1,23.5c-0.3,4-0.2,8,0.2,12c0.2,2,0.7,3.8,3.8,3.4
			c16.9-2.6,33.9-3.6,51-1.1c5.1,0.7,5.9-1.5,5.1-5.7c-2.1-10.8-2.5-21.8-5.6-32.5c-1.1-3.7-2.5-5.1-6-5.1
			C114.8,21.3,107.8,21.3,100.7,21.3z M21.5,156.1L21.5,156.1c0,7.2,0.1,14.5,0,21.7c0,3.3,1.1,4.7,4.5,4.7
			c13.9-0.1,27.8-0.1,41.7,0c2.6,0,4.4-0.9,4.4-3.8c-0.1-11.8,0.7-23.7,2.4-35.4c0.3-2.3-0.4-4.2-3.2-4c-4.7,0.4-9-1.7-13.6-2.1
			c-10.5-1.1-20.9-3.2-30.9-6.5c-3.8-1.2-5.6-0.2-5.5,4.2C21.7,142,21.5,149.1,21.5,156.1z M182.2,155.8c0-6.8-0.2-13.7,0.1-20.5
			c0.2-4.7-1.6-5.6-5.8-4.3c-9.5,3-19.1,5.4-29.1,6.1c-4.6,0.3-8.8,2.8-13.6,2.3c-1.4-0.1-2,1.2-2,2.5c-0.4,11.8-2.6,23.6-0.9,35.5
			c0.5,3.6,2,5.2,5.9,5.1c13.3-0.2,26.6-0.2,39.8,0c4.1,0,5.8-1.4,5.7-5.6C182,169.9,182.2,162.8,182.2,155.8z M182.2,101.3
			c0-5.6-0.1-11.3,0-16.9c0.1-2.9-0.9-4-3.8-4.9c-11-3.2-22.5-3.4-33.6-6.1c-4.6-1.1-6.2,1.4-6.1,5.6c0.2,16.5-3.8,32.5-5.2,48.8
			c-0.4,4.8,1.1,5.4,4.6,4.6c13.4-3.1,27.1-4.4,40.3-8.4c3.1-1,3.7-2.7,3.7-5.2C182.2,113,182.2,107.1,182.2,101.3L182.2,101.3z
			 M21.5,47c0,7.5,0.1,14.9,0,22.3c0,3,0.8,4,4.1,4.1c4.8,0.2,8.9-2.5,13.5-2.4c7.5,0.1,14.5-3,22-3c2,0,6.1-0.4,5.6-4.1
			c-1.7-12.5,2-24.8,1.2-37.3c-0.2-3.1-0.2-5.5-4.4-5.4c-12.5,0.2-25,0.1-37.5,0c-3.4,0-4.7,1.4-4.6,4.7C21.6,32.9,21.5,40,21.5,47z
			 M182.2,48c0-6.8-0.3-13.7,0.1-20.5c0.2-4.7-1.5-6.4-6.2-6.3c-10.3,0.2-20.5,0.1-30.8,0.1c-10.9,0-10.9,0-9,10.5
			c0,0.2,0,0.4,0,0.6c1.3,10.1,2.5,20.2,3.7,30.3c0.2,1.9,0.2,3.8,2.8,3.8c5.7,0,11.1,1.7,16.6,2.6c6,1,12.3,1,18.1,3.3
			c3.6,1.4,4.8,0.3,4.8-3.3C182.2,62,182.2,55,182.2,48z M101.4,182.5L101.4,182.5c6.3,0,12.5,0,18.8,0c3.7,0,5-1.3,4.2-5.2
			c-0.8-3.7-1.1-7.6-0.9-11.4c0.3-7.2,1.1-14.4,1.8-21.6c0.3-3.4-0.8-4.6-4.5-4c-11.6,2-23.3,1.3-35,0.6c-2.9-0.2-4.5-0.1-4.8,3.3
			c-1,11.2-2.2,22.4-2.2,33.7c0,3.9,1.7,4.8,5.1,4.8C89.7,182.4,95.5,182.5,101.4,182.5z"/>
	</g>
</g>
<path class="st1" d="M18.4,2h167.2c9.1,0,16.4,7.3,16.4,16.4v167.2c0,9.1-7.3,16.4-16.4,16.4H18.4C9.3,202,2,194.7,2,185.6V18.4
	C2,9.3,9.3,2,18.4,2z"/>
</svg>
