<?xml version="1.0" encoding="utf-8"?>
<!-- Generator: Adobe Illustrator 21.0.0, SVG Export Plug-In . SVG Version: 6.00 Build 0)  -->
<svg version="1.1" id="Layer_1" xmlns="http://www.w3.org/2000/svg" xmlns:xlink="http://www.w3.org/1999/xlink" x="0px" y="0px"
	 viewBox="0 0 204 204" style="enable-background:new 0 0 204 204;" xml:space="preserve">
<style type="text/css">
	.st0{fill:#E67E22;}
	.st1{fill:none;stroke:#E67E22;stroke-width:4;stroke-miterlimit:10;}
</style>
<title>SchoolBus</title>
<g id="Solutions">
	<g id="SchoolBus">
		<path class="st0" d="M101.9,19.6c10.9,0,21.7,0.1,32.6,0c15.9-0.1,25.8,9.6,25.3,25.4c-0.3,9.1-0.1,18.3,0,27.4
			c0,1.7-0.9,4.8,1.4,4.8c3.1,0,1.3-3.2,1.6-5c0.5-2.8-0.5-5.7,1.1-8.3c2.9-4.8,7.6-5.4,12.5-4.7c3.9,0.4,7.1,3.4,7.7,7.3
			c2,10.9,0.8,22,0.6,33c0,2.2-1.7,3.8-4.4,3.4c-0.2,0-0.4,0-0.6,0c-5.1-0.2-11.2,1.9-15.1-0.8c-4.2-2.9-1-9.3-1.7-14
			c-0.2-1.2,0.5-3.2-1.3-3.3c-2.3-0.1-1.8,2.1-1.8,3.4c0.1,5.7-0.9,11.4,2.4,16.7c1.4,2.4,0.7,5.2,0.8,7.9c0.1,8.8,0,17.5,0,26.3
			c-0.1,2.4,0.4,4.9,1.5,7.1c2.4,4.4,0.6,8.8-2.5,11.9c-2.9,2.8-3.5,5.6-3.3,9.2c0.1,1.3,0,2.7,0,4c0,7.9-4.1,12.8-10.9,13.1
			c-8.2,0.3-13.3-4.2-14-12.2c-0.7-8.7-0.7-8.7-9.4-8.7c-16.6,0-33.2,0.1-49.7-0.1c-4.2-0.1-5.8,1.1-5.5,5.4c0.2,3.1,0.9,6.4-1,9.4
			c-3.1,5.2-8.1,7.3-14.7,6c-4.6-0.9-9-6-9-11.8c-0.1-6.6-0.1-12.9-5.5-17.7c-1.5-1.4-1.6-3.7-1-5.4c3.7-11.6,1.3-23.4,1.8-35.1
			c0.2-4.1,0.3-8.1,2.4-11.5c3.1-5,1.6-10.3,2-15.5c0.1-1.1,0-2.4-1.5-2.6c-1.8-0.2-2.3,1-2.3,2.5c-0.1,4-0.1,8-0.2,12
			c0,2.8-1.3,4-4.2,4c-20.8-0.5-16.6,3.3-17-15.8c-0.1-6.3-0.1-12.6,0.1-18.9S22.9,59,29.5,59c6.8,0,10.1,2.8,10.6,9.1
			c0.2,2.1,0.1,4.2,0.2,6.3c0,1.5-0.1,3.3,2.2,3.2c2.4-0.1,1.7-2.1,1.7-3.5c0-10.9,0.9-21.8-0.2-32.5c-1.2-11.3,10.9-21.9,22-22
			C77.9,19.5,89.9,19.6,101.9,19.6L101.9,19.6z M101.9,90.6c9.2,0,18.3-0.2,27.4,0.1c6.6,0.2,13.3-1.2,19.8,1.5
			c2.7,1.1,4.7,0.1,4.6-3.5c-0.1-15,0.2-30.1-0.1-45.1c-0.2-11.6-7.5-17.4-16.3-17.6c-23.8-0.6-47.6-0.4-71.5-0.1
			c-8.6,0.1-16.4,7.2-15.9,16.4c0.8,14.1,0.2,28.2,0.2,42.3c0,8.2,0,8.1,7.7,6.3c1.7-0.3,3.4-0.4,5.1-0.3
			C76,90.6,89,90.6,101.9,90.6L101.9,90.6z M156.6,130.9c0-6.3-0.5-12.6,0.1-18.8c0.7-7.4-5-14.7-14.4-14.8
			c-27.1-0.1-54.1-0.2-81.2,0c-9.5,0.1-14.9,6.1-14.9,15.6c0,9.1,0.1,18.2-0.1,27.3c-0.1,3.3,1.2,4.4,4.3,4.3
			c4.8-0.1,9.5-0.2,14.3,0c3.5,0.1,4.6-1.3,4.5-4.7c-0.2-10.3,0.1-20.6-0.2-30.9c-0.1-4.6,1.2-6.4,6.1-6.3c17.7,0.3,35.4,0.3,53.2,0
			c4.3-0.1,5.6,1.4,5.5,5.6c-0.2,10.5-0.1,21-0.1,31.4c0,1.8-0.7,4.4,2,4.5c6.3,0.3,12.6,0.2,18.8,0.1c1.7,0,2.2-1.4,1.8-2.9
			c-0.7-2.5-1.8-0.7-2.8-0.1c-3.2,1.8-6.7,1-10.1,1c-4.6,0.1-6.7-3.1-6.8-6.9c-0.4-3.8,2.4-7.1,6.1-7.5c0.1,0,0.1,0,0.2,0
			C147.6,127.6,152.3,127.1,156.6,130.9L156.6,130.9z M101.6,109c-7,0-14.1,0.2-21.1-0.1c-3.8-0.1-5.5,0.8-5.3,5
			c0.3,8.6,0.3,17.1,0,25.7c-0.1,3.8,1.1,4.9,4.9,4.9c14.3-0.2,28.5-0.1,42.8,0c3.3,0,4.8-0.8,4.7-4.4c-0.2-8.9-0.2-17.9,0-26.8
			c0.1-3.3-1-4.4-4.3-4.3C116.1,109.2,108.9,109,101.6,109L101.6,109z M158.3,151.5H45c1.9,4.3,4.7,5.6,8.8,5.5
			c31.6-0.1,63.2-0.1,94.8,0C152.9,157.1,155.9,155.8,158.3,151.5L158.3,151.5z M179,81.7c-0.4-4,0.8-8.8-0.7-13.4
			c-0.6-2-1.7-3.3-4.1-3.2c-2,0.1-4.6,0.3-4.6,2.4c0,3.6-3.5,8.2,2.5,10.7c2.2,0.9,1.9,4.3,0.6,4.8c-5.6,2-3.1,6.5-3.7,10
			c-0.4,2.8,0.9,3.5,3.6,3.7c4.8,0.4,7.2-0.9,6.4-6.2C178.6,87.9,179,85.2,179,81.7z M25.1,81.4L25.1,81.4c0,4,0,8,0,11.9
			c0,2,0.7,3.4,2.9,3.2c1.9-0.2,5.3,1,5.5-1.3c0.3-3.9,2.7-8.6-2.1-11.8c-1.9-1.2-2.8-3.7-0.7-4.6c4.9-2,2.7-5.9,3.1-9.2
			c0.4-3-0.9-4.5-4.2-4.6s-4.6,1.3-4.5,4.3C25.1,73.4,25.1,77.4,25.1,81.4z M146.9,163.5c-4.4-0.8-7.4-0.1-6.8,5.6
			c0.4,4.4,0.5,8.6,6.4,8.9c6.1,0.2,6.1-4.1,6.3-8.5S152.2,162.1,146.9,163.5z M62.9,169.2c0.9-4.2-0.5-6.6-5.9-6
			c-3.5,0.4-6.8-0.4-6.4,5.1c0.4,6.6,2.3,9.8,7.1,9.6C63.2,177.7,63,173.7,62.9,169.2L62.9,169.2z"/>
		<path class="st0" d="M101.5,82.1c-11.8,0-23.6-0.1-35.4,0.1c-3.8,0.1-5.7-0.8-5.6-5c0.2-9.9-0.1-19.8,0.2-29.7
			c0.2-7,4.5-11.1,11.6-11.1c19.4-0.1,38.8-0.1,58.3,0c7.4,0,11.9,3.3,12.4,10.5c0.7,10.2,0.4,20.5,0.4,30.8c0,3.6-2.4,4.5-5.8,4.5
			C125.4,82,113.4,82.1,101.5,82.1z M119.7,75.7c5.3,0,9.7,0,14.1,0c2.6,0,3.8-1,3.7-3.7c-0.1-7.2,0.1-14.5-0.1-21.7
			c-0.1-5.3-3.1-7.9-8.3-7.9c-6.8,0-13.7,0.1-20.6-0.1c-2.9-0.1-4.1,0.9-4,3.9c0.2,4.4,0,8.8,0.1,13.1c0.1,5.1-1.7,11.7,0.9,15
			C108.5,78.2,115.5,75,119.7,75.7L119.7,75.7z M98.3,59.3c0-4.4-0.1-8.7,0-13.1c0.1-3-1.1-4-4-3.9c-7.2,0.2-14.4,0-21.7,0.1
			c-3.6,0-5.6,1.9-5.6,5.5c0,8,0.1,16-0.1,23.9c-0.1,3.1,1.2,3.9,4,3.9c7.8-0.1,15.6-0.1,23.4,0c2.9,0,4.2-0.8,4-3.9
			C98.1,67.7,98.3,63.5,98.3,59.3z"/>
		<path class="st0" d="M57.3,142.5c-6.9,0-10.1-2.4-9.9-7.3s3.6-7.3,10.2-7.3c6.1,0,9.5,2.9,9.4,8S64.8,142.5,57.3,142.5z"/>
		<path class="st0" d="M113.6,133.8c2.2,0.6,6.8-1.5,6.8,2.9c0,4.1-4.4,3.7-7.6,3.6c-0.6,0-1.1,0-1.7,0c-3.1,0.3-5.8-0.9-5.7-3.9
			c0.1-2.9,3.2-2.5,5.5-2.6C111.6,133.8,112.3,133.8,113.6,133.8z"/>
		<path class="st0" d="M112.9,114.4c2.9,0.8,7.6-0.9,7.5,3.3c-0.1,3.9-4.5,3-7.5,3s-7.5,0.8-7.6-2.9
			C105.3,113.2,110.4,115.5,112.9,114.4z"/>
		<path class="st0" d="M112.4,130c-0.9,0-1.9,0-2.8,0c-2.1,0.1-4.2-0.8-4.3-2.8c-0.1-2.2,1.8-3.5,4.2-3.5c2.3,0,4.5,0,6.8,0
			c2.4,0,4.3,1.1,4.2,3.5c-0.1,2.2-2.1,2.8-4.2,2.8C115,130,113.7,130,112.4,130z"/>
		<path class="st0" d="M90.7,130h-3.4c-1.8,0-3.4-0.3-3.5-2.7s0.8-3.6,3.2-3.6c2.3,0,4.5-0.1,6.8,0s4.3,0.1,4.4,3.1
			c0.1,3.6-2.4,3.1-4.7,3.2C92.6,130,91.7,130,90.7,130z"/>
		<path class="st0" d="M89.9,140.4c-1.1,0-2.3-0.1-3.4-0.4c-1.7-0.5-2.8-2.1-2.6-3.9c0.1-2.1,1.8-2.2,3.3-2.3c2.1-0.1,4.1-0.1,6.2,0
			c1.9,0.1,4.7-0.7,4.8,2.4s-2.1,4.1-4.9,4.1L89.9,140.4z"/>
		<path class="st0" d="M91.3,114.7c1.1-0.1,2.2-0.1,3.4,0c1.6,0.2,3.5,0.3,3.6,2.7c0,2.2-1.5,3-3.3,3.1c-2.2,0.2-4.5,0.2-6.7,0.2
			c-2.1-0.1-4.4-0.4-4.4-3.2c0-3,2.7-2.6,4.6-2.8C89.4,114.6,90.3,114.6,91.3,114.7L91.3,114.7z"/>
	</g>
</g>
<path class="st1" d="M18.4,2h167.2c9.1,0,16.4,7.3,16.4,16.4v167.2c0,9.1-7.3,16.4-16.4,16.4H18.4C9.3,202,2,194.7,2,185.6V18.4
	C2,9.3,9.3,2,18.4,2z"/>
</svg>
