<?xml version="1.0" encoding="utf-8"?>
<!-- Generator: Adobe Illustrator 21.0.0, SVG Export Plug-In . SVG Version: 6.00 Build 0)  -->
<svg version="1.1" id="Layer_1" xmlns="http://www.w3.org/2000/svg" xmlns:xlink="http://www.w3.org/1999/xlink" x="0px" y="0px"
	 viewBox="0 0 204 204" style="enable-background:new 0 0 204 204;" xml:space="preserve">
<style type="text/css">
	.st0{fill:#E67E22;}
	.st1{fill:none;stroke:#E67E22;stroke-width:4;stroke-miterlimit:10;}
</style>
<title>TempLogger</title>
<g id="Products">
	<g id="TempLogger">
		<path class="st0" d="M160.1,81.9c0,15.7,0,31.5,0,47.2c-0.1,2,0.7,3.9,2.2,5.2c8.9,8.4,11.9,19.1,9.9,30.8
			c-1.1,6.5-5.1,12-10.1,16.7c-8.3,7.8-18.3,7.9-28.6,7.1c-1.6-0.1-2.8-1.2-4-2.2c-1.2-0.9-1.4-2.6-0.5-3.8l0.1-0.1
			c0.7-1.3,2.3-1.9,3.7-1.3c4.9,1.4,10.1,1.6,15.1,0.5c7.1-1.3,11.8-6.4,15.5-12.5c2.9-4.9,3.2-10.1,2.6-15.4c-0.7-6-4-11-8.6-14.8
			c-2.7-2.3-4-4.8-3.7-8.4c0.1-2.2,0.1-4.4-0.1-6.7c-0.1-2.3-1.2-3.8-3.8-3.6c-2.4,0.2-3.5-0.7-3.5-3.1s0.9-3.7,3.5-3.6
			c3,0.1,4.2-1.4,4-4.4c-0.1-1-0.1-2,0-3c0.3-2.9-1.2-4.2-3.9-4c-2.6,0.2-3.7-0.7-3.6-3.3s1.1-3.6,3.7-3.3s3.9-1,3.8-3.8
			c-0.1-1.6,0-3.1,0-4.7c0.1-3.3-1.1-5.1-4.7-4.6c-2,0.3-2.8-0.8-2.7-2.8c0.1-1.7,0.1-3.5,2.5-3.4c1.8,0,3.9,0.1,4.5-1.9
			c0.9-2.8,0.8-5.7-0.1-8.5c-0.5-1.3-2.2-1.4-3.6-1.3c-2.4,0.2-3.5-0.8-3.5-3.2c0-2.3,0.8-3.6,3.4-3.3c3.1,0.3,4.5-1.2,4.2-4.4
			c-0.1-1.2-0.1-2.4,0-3.7c0.1-2.6-1.2-4-3.8-3.9s-3.6-1-3.6-3.5s1.3-3.5,3.8-3.3c1.6,0.3,3.2-0.8,3.5-2.4c0-0.1,0-0.2,0-0.4
			c0.5-3.9-1.6-11.8-6.8-14c-9.1-3.8-18.3,2-18.3,12.1c-0.1,14,0,27.9-0.1,41.9c0,2.6,0.9,4.2,3.3,5c3.7,1.3,5.3,4.3,5.3,8
			c0,26.2,0,52.3,0,78.5c0,4.9-3.6,8.3-9.1,8.7c-4.3,0.3-8.6,0.1-13,0.1c-12.6,0-25.3,0-37.9,0c-2.5,0-5.1-0.6-7.4-1.6
			c-2-0.7-3.4-2.7-3.4-4.8c-0.1-3.4-0.1-6.9-0.1-10.3c0-23.1,0.1-46.1-0.1-69.2c-0.1-7.3,2.1-10.4,10.5-10.4
			c13.8,0,27.5-0.1,41.2,0.1c3.3,0,4.2-1.2,4.2-4.3c-0.1-14.2,0-28.4,0-42.6c0-8.1,5.4-15.2,12.9-18.2c3.6-1.4,6.9-2.2,10.6-1.1
			c5.9,1.8,10.8,5.2,13.3,11c1.2,2.8,1.4,6,1.4,9.1c0,15.5,0,31,0,46.5L160.1,81.9z M130.6,129.3c0-12,0-24,0-35.9
			c0-5.3-0.2-5.5-5.3-5.5c-15.8,0-31.7,0-47.5,0.1c-4.2,0-4.8,0.6-4.8,4.8c0,24.5,0,49,0.1,73.5c0,3.9,0.6,4.4,4.4,4.4
			c16.2,0,32.4,0,48.5,0c4.3,0,4.6-0.3,4.6-4.8C130.6,153.7,130.6,141.5,130.6,129.3L130.6,129.3z"/>
		<path class="st0" d="M31.3,75.4c1.3-11.2,7.6-19.4,17.2-25.3c4.9-3,10.1-5,16-4.7c2.1,0.1,4.2,0.1,4.3,2.9c0,2.5-1.6,3.4-3.9,3.6
			c-8.3,0.3-16,4.3-21.1,10.8c-3.1,3.8-5.5,8-5.8,13.1c0,1.9-0.7,3.7-1.8,5.2c-0.7,0.9-1.4,1.7-2.7,1.5c-1.1-0.3-1.9-1.3-1.9-2.4
			C31.3,78.6,31.4,77.2,31.3,75.4z"/>
		<path class="st0" d="M63.6,56.3c1.7,0.1,3.9-0.9,5,1.4s-0.6,5.1-3.8,5.2C58,63,54,67.1,50.4,72.1c-0.8,1.3-1.3,2.8-1.4,4.4
			c-0.2,1.1-0.5,2.2-0.9,3.2c-0.7,1.9-1.8,3.5-4.1,3.1s-1.7-2.5-1.9-4.1c-0.9-8.9,7.4-17.2,12.8-19.8C57.6,57.5,60.2,55.3,63.6,56.3
			z"/>
		<path class="st0" d="M52.8,79.2c0.4-8.4,6-11.4,12.2-12.7c1.6-0.4,3.2,0.5,3.8,2c0.7,1.2,0.3,2.8-1,3.5c-0.2,0.1-0.4,0.2-0.7,0.3
			c-4.5,1.4-7.5,4.1-8.8,8.7c-0.5,1.7-2,2.3-3.8,1.8S52.8,80.7,52.8,79.2z"/>
		<path class="st0" d="M100.9,124.6c-5.7,0-11.3,0-16.9,0c-4.3,0-6.1-1.7-6.1-6c-0.1-7-0.1-13.9,0-20.9c0-3.4,1.8-5.4,5.3-5.5
			c12-0.1,23.9-0.1,35.9,0c2.8-0.2,5.2,2,5.3,4.8c0,0.2,0,0.3,0,0.5c0.2,7.3,0.3,14.6,0,21.9c-0.1,3.7-2.1,5.2-5.9,5.3
			C112.7,124.7,106.8,124.6,100.9,124.6z M100.9,118.4L100.9,118.4h12.6c4.1,0,4.7-0.5,4.6-4.5s-0.1-8,0.1-11.9
			c0.1-2.7-1.2-3.7-3.5-3.7c-9.1,0-18.1,0-27.2,0c-2.4,0-3.6,1.2-3.5,3.7c0.1,4.3,0.1,8.6,0,12.9c-0.1,2.6,1.2,3.6,3.6,3.5
			C92.1,118.4,96.6,118.4,100.9,118.4L100.9,118.4z"/>
	</g>
</g>
<path class="st1" d="M18.4,2h167.2c9.1,0,16.4,7.3,16.4,16.4v167.2c0,9.1-7.3,16.4-16.4,16.4H18.4C9.3,202,2,194.7,2,185.6V18.4
	C2,9.3,9.3,2,18.4,2z"/>
</svg>
