<?xml version="1.0" encoding="utf-8"?>
<!-- Generator: Adobe Illustrator 21.0.0, SVG Export Plug-In . SVG Version: 6.00 Build 0)  -->
<svg version="1.1" id="Layer_1" xmlns="http://www.w3.org/2000/svg" xmlns:xlink="http://www.w3.org/1999/xlink" x="0px" y="0px"
	 viewBox="0 0 204 204" style="enable-background:new 0 0 204 204;" xml:space="preserve">
<style type="text/css">
	.st0{fill:#E67E22;}
	.st1{fill:none;stroke:#E67E22;stroke-width:4;stroke-miterlimit:10;}
</style>
<title>Wearables</title>
<g id="Products">
	<g id="Wearables">
		<path class="st0" d="M98.3,36.6c7.5,0,15.1,0,22.6,0c2,0,2.9,0.5,2.8,2.8c-0.1,5.2,0.8,10.3,3.7,14.8c0.4,0.7,1.1,1.2,1.9,1.5
			c7.5,2.3,8.9,5.9,8.9,11.6c0,0.8,0,1.7,0,2.5c0,1.7,0.8,2.5,2.5,2.6c4.2,0.2,6.4,2.6,6.4,6.8c0,3.7,0,7.4,0,11.2
			c0.1,3.4-2.6,6.2-6,6.3c-1,0.1-2.5-0.3-2.4,1.3c0,1.4,1.4,1.4,2.4,1.6c4.6,0.6,5.9,2.1,6,6.8c0,7.9,0,15.9,0,23.8
			c0.1,3.4-2.6,6.3-6,6.5c-0.1,0-0.2,0-0.3,0c-1.9,0-2.6,0.9-2.8,2.7c-0.6,4.9-3.7,7.7-8.4,8.8c-2.6,0.6-2.9,3.2-3.9,5.1
			c-2,3.9-2.3,8.2-2,12.5c0.1,1.1-0.4,1.8-1.5,1.8c-1.5,0-3,0.1-4.5,0.1H76.3c-3,0-3.5-0.3-3.3-3.2c0.4-5.1-1.5-9.5-3.7-13.8
			c-0.7-1.4-1.9-2.3-3.4-2.5c-4.5-1.1-7.7-5.1-7.8-9.8c0.1-24,0.1-48,0-72c0-4.9,2.4-8.5,7.2-9.9c4.2-1.2,4.8-4.5,6.2-7.6
			s1.6-6.5,1.5-9.9c0-1.7,1-2.2,2.6-2.2C83.2,36.5,90.7,36.5,98.3,36.6L98.3,36.6z M63,101.9L63,101.9c0.1,11.8,0.1,23.7,0.1,35.5
			c0,3.6,2.2,5.9,5.6,5.9c3.8,0,7.6,0,11.4,0c15.8,0,31.6,0,47.4,0.1c1.8,0.1,3.6-0.8,4.6-2.3c1.1-1.6,1.6-3.5,1.4-5.4
			c0-22.8,0-45.6,0-68.5c0-4.1-2.4-6.6-6.4-6.6c-19.3,0-38.7,0-58,0c-3.3-0.1-5.9,2.5-6,5.8c0,0.1,0,0.2,0,0.4
			C63,78.4,63,90.1,63,101.9z M142.2,118.6c0-3.8,0-7.6,0-11.4c0-1.3-0.2-2.7-1.9-2.7s-1.9,1.4-1.9,2.7c0,7.3,0,14.7,0,22
			c0,1.4,0.4,2.4,2.1,2.4s1.8-1.2,1.8-2.4C142.3,125.6,142.3,122.1,142.2,118.6L142.2,118.6z M142.2,84.3L142.2,84.3
			c0-1.8,0.1-3.6,0-5.4c0.1-0.9-0.6-1.7-1.5-1.8c-0.1,0-0.1,0-0.2,0c-1-0.1-1.9,0.6-2,1.6c0,0,0,0.1,0,0.1c-0.1,3.6,0,7.2,0.1,10.9
			c-0.1,1,0.6,1.9,1.6,1.9c0.2,0,0.3,0,0.5,0c1.2-0.1,1.6-1.1,1.6-2.1C142.3,87.8,142.2,86,142.2,84.3L142.2,84.3z"/>
		<path class="st0" d="M15.3,103.6c-0.9-4.9,0.2-9.7,1.7-14.1c2-6.4,5.3-12.4,9.5-17.6c1.2-1.5,2.9-1.9,4.4-0.8
			c1.4,1.2,0.5,2.7-0.5,3.9c-3.2,4.3-6.4,8.7-7.9,13.9c-0.9,3.1-2.3,6.2-2.2,9.5c0.1,4.5-0.6,9.1,0.3,13.3c1.2,6,3.1,11.9,6.9,17
			c1.5,2.1,3.1,4.1,4.8,6c0.8,0.7,1.2,1.8,1.1,2.9c-0.1,0.8-0.3,1.7-1.2,2c-0.8,0.3-1.7,0-2.3-0.6c-3.8-3.7-7-8.1-9.5-12.9
			c-1.9-4.1-3.5-8.3-4.6-12.7C14.9,110.2,15.5,106.8,15.3,103.6z"/>
		<path class="st0" d="M189,104c-0.2,3.4-0.1,6.8-0.6,10.1c-0.4,2.3-1.1,4.5-2,6.6c-2.4,5.8-5.2,11.3-9.6,16c-0.5,0.6-1,1.1-1.6,1.5
			c-0.8,0.6-2,0.6-2.8-0.1c-0.8-0.6-1.1-1.8-0.6-2.7c0.3-0.8,0.7-1.5,1.3-2.1c3.9-3.9,6.8-8.6,8.5-13.7c2.3-6.1,3.1-12.7,2.4-19.2
			c-0.5-3.9-0.8-7.9-2.1-11.6c-1.5-3.8-3.4-7.4-5.8-10.8c-0.9-1.3-1.7-2.6-2.7-3.8c-0.8-1-1-1.9,0-2.8c0.8-1,2.2-1.1,3.2-0.3
			c0.1,0,0.1,0.1,0.1,0.1c2.8,2.5,5.1,5.6,6.6,9.1c1.9,3.8,3.4,7.8,4.8,11.8c1,3.3,0.6,6.9,0.9,10.3C189,103,189,103.5,189,104
			L189,104z"/>
		<path class="st0" d="M30.6,104.7c0.4-8.4,2.6-15.7,7.7-21.9c0.7-0.9,1.6-1.8,2.8-1.8c1.9,0.1,2.8,2.5,1.5,4.2
			c-2.2,2.7-4.2,5.5-5.2,8.8c-1.3,4.6-2.4,9.1-1.5,14.1c1,6.2,3.8,12,8.1,16.6c0.7,0.6,1,1.6,0.6,2.5c-0.5,1.1-1.6,1-2.6,0.9
			c-1.1-0.1-2.1-0.7-2.8-1.5c-2.1-2.2-3.8-4.8-5.1-7.6C31.7,114.5,30.9,109.4,30.6,104.7z"/>
		<path class="st0" d="M173.6,103.8c0.3,6.4-1.9,11.5-4.3,16.6c-1.2,2.3-2.8,4.4-4.6,6.3c-1,1.2-2.5,2.2-3.8,0.9
			c-1.1-1.1-1-2.9,0.1-3.9c0,0,0,0,0.1-0.1c3.8-3.9,6.3-8.9,7.2-14.3c0.7-3.9,1-8.2-0.7-12.4c-1.1-2.8-1.7-5.8-3.5-8.3
			c-0.8-1.1-1.7-2.2-2.6-3.3c-1-1.1-1.4-2.2-0.1-3.4s2.6-1.3,3.9,0.1c2.9,3.2,5.1,6.9,6.4,11C172.8,96.8,174.5,100.4,173.6,103.8z"
			/>
		<path class="st0" d="M67.9,101.9c0-9.2,0-18.4,0-27.6c0-4.5,2.4-7.2,6.9-7.3c15.5-0.1,30.9-0.1,46.4,0c5,0,7.8,3,7.8,8.2
			c0,15.4,0,30.8,0,46.2c0,2.5,0,5,0,7.5c0,1.4-0.4,2.8-1.1,4c-1.6,2.9-3.9,4.1-7.3,4.1c-15.1-0.1-30.3,0-45.4-0.1
			c-4.7,0-7.3-2.9-7.3-7.4C67.9,120.3,67.9,111.1,67.9,101.9L67.9,101.9z M72.9,101.6c0,8.9,0,17.9,0,26.8c0,3.2,0.3,3.6,3.5,3.7
			c14.6,0.1,29.1,0.1,43.7,0c3.1,0,4-1,4-4.1c0-17.1,0-34.3,0-51.4c0-4.3-0.3-4.5-4.5-4.5c-14.6,0-29.3,0.1-43.9,0
			c-2.3,0-2.8,0.8-2.8,2.9C73,83.9,73,92.8,72.9,101.6L72.9,101.6z"/>
	</g>
</g>
<path class="st1" d="M18.4,2h167.2c9.1,0,16.4,7.3,16.4,16.4v167.2c0,9.1-7.3,16.4-16.4,16.4H18.4C9.3,202,2,194.7,2,185.6V18.4
	C2,9.3,9.3,2,18.4,2z"/>
</svg>
